<svg id="visual" viewBox="0 0 900 300" width="900" height="300" xmlns="http://www.w3.org/2000/svg" xmlns:xlink="http://www.w3.org/1999/xlink" version="1.1"><rect x="0" y="0" width="900" height="300" fill="#001122"></rect><path d="M68 300L85 300L85 287L90 287L90 274L62 274L62 261L57 261L57 248L83 248L83 235L88 235L88 222L64 222L64 209L75 209L75 196L65 196L65 183L78 183L78 170L64 170L64 157L88 157L88 143L76 143L76 130L54 130L54 117L64 117L64 104L80 104L80 91L82 91L82 78L79 78L79 65L50 65L50 52L58 52L58 39L52 39L52 26L86 26L86 13L61 13L61 0L900 0L900 13L900 13L900 26L900 26L900 39L900 39L900 52L900 52L900 65L900 65L900 78L900 78L900 91L900 91L900 104L900 104L900 117L900 117L900 130L900 130L900 143L900 143L900 157L900 157L900 170L900 170L900 183L900 183L900 196L900 196L900 209L900 209L900 222L900 222L900 235L900 235L900 248L900 248L900 261L900 261L900 274L900 274L900 287L900 287L900 300L900 300Z" fill="#001122"></path><path d="M156 300L127 300L127 287L139 287L139 274L146 274L146 261L138 261L138 248L122 248L122 235L135 235L135 222L144 222L144 209L138 209L138 196L141 196L141 183L127 183L127 170L148 170L148 157L137 157L137 143L155 143L155 130L159 130L159 117L149 117L149 104L140 104L140 91L121 91L121 78L139 78L139 65L125 65L125 52L125 52L125 39L141 39L141 26L150 26L150 13L132 13L132 0L900 0L900 13L900 13L900 26L900 26L900 39L900 39L900 52L900 52L900 65L900 65L900 78L900 78L900 91L900 91L900 104L900 104L900 117L900 117L900 130L900 130L900 143L900 143L900 157L900 157L900 170L900 170L900 183L900 183L900 196L900 196L900 209L900 209L900 222L900 222L900 235L900 235L900 248L900 248L900 261L900 261L900 274L900 274L900 287L900 287L900 300L900 300Z" fill="#001937"></path><path d="M223 300L222 300L222 287L227 287L227 274L215 274L215 261L224 261L224 248L196 248L196 235L196 235L196 222L189 222L189 209L226 209L226 196L222 196L222 183L205 183L205 170L201 170L201 157L215 157L215 143L228 143L228 130L211 130L211 117L205 117L205 104L214 104L214 91L195 91L195 78L203 78L203 65L201 65L201 52L196 52L196 39L202 39L202 26L204 26L204 13L202 13L202 0L900 0L900 13L900 13L900 26L900 26L900 39L900 39L900 52L900 52L900 65L900 65L900 78L900 78L900 91L900 91L900 104L900 104L900 117L900 117L900 130L900 130L900 143L900 143L900 157L900 157L900 170L900 170L900 183L900 183L900 196L900 196L900 209L900 209L900 222L900 222L900 235L900 235L900 248L900 248L900 261L900 261L900 274L900 274L900 287L900 287L900 300L900 300Z" fill="#00204d"></path><path d="M279 300L294 300L294 287L283 287L283 274L277 274L277 261L270 261L270 248L279 248L279 235L271 235L271 222L281 222L281 209L293 209L293 196L269 196L269 183L292 183L292 170L273 170L273 157L263 157L263 143L269 143L269 130L264 130L264 117L282 117L282 104L293 104L293 91L276 91L276 78L280 78L280 65L258 65L258 52L269 52L269 39L277 39L277 26L290 26L290 13L257 13L257 0L900 0L900 13L900 13L900 26L900 26L900 39L900 39L900 52L900 52L900 65L900 65L900 78L900 78L900 91L900 91L900 104L900 104L900 117L900 117L900 130L900 130L900 143L900 143L900 157L900 157L900 170L900 170L900 183L900 183L900 196L900 196L900 209L900 209L900 222L900 222L900 235L900 235L900 248L900 248L900 261L900 261L900 274L900 274L900 287L900 287L900 300L900 300Z" fill="#002664"></path><path d="M336 300L328 300L328 287L340 287L340 274L365 274L365 261L336 261L336 248L366 248L366 235L352 235L352 222L356 222L356 209L343 209L343 196L365 196L365 183L359 183L359 170L328 170L328 157L355 157L355 143L329 143L329 130L334 130L334 117L360 117L360 104L358 104L358 91L343 91L343 78L338 78L338 65L357 65L357 52L361 52L361 39L348 39L348 26L367 26L367 13L332 13L332 0L900 0L900 13L900 13L900 26L900 26L900 39L900 39L900 52L900 52L900 65L900 65L900 78L900 78L900 91L900 91L900 104L900 104L900 117L900 117L900 130L900 130L900 143L900 143L900 157L900 157L900 170L900 170L900 183L900 183L900 196L900 196L900 209L900 209L900 222L900 222L900 235L900 235L900 248L900 248L900 261L900 261L900 274L900 274L900 287L900 287L900 300L900 300Z" fill="#002b7a"></path><path d="M416 300L419 300L419 287L422 287L422 274L405 274L405 261L432 261L432 248L414 248L414 235L404 235L404 222L400 222L400 209L397 209L397 196L436 196L436 183L414 183L414 170L405 170L405 157L434 157L434 143L407 143L407 130L406 130L406 117L404 117L404 104L428 104L428 91L396 91L396 78L410 78L410 65L436 65L436 52L410 52L410 39L435 39L435 26L412 26L412 13L398 13L398 0L900 0L900 13L900 13L900 26L900 26L900 39L900 39L900 52L900 52L900 65L900 65L900 78L900 78L900 91L900 91L900 104L900 104L900 117L900 117L900 130L900 130L900 143L900 143L900 157L900 157L900 170L900 170L900 183L900 183L900 196L900 196L900 209L900 209L900 222L900 222L900 235L900 235L900 248L900 248L900 261L900 261L900 274L900 274L900 287L900 287L900 300L900 300Z" fill="#002e8f"></path><path d="M496 300L465 300L465 287L506 287L506 274L485 274L485 261L499 261L499 248L490 248L490 235L487 235L487 222L480 222L480 209L491 209L491 196L501 196L501 183L467 183L467 170L499 170L499 157L471 157L471 143L501 143L501 130L502 130L502 117L473 117L473 104L465 104L465 91L490 91L490 78L494 78L494 65L489 65L489 52L469 52L469 39L498 39L498 26L482 26L482 13L491 13L491 0L900 0L900 13L900 13L900 26L900 26L900 39L900 39L900 52L900 52L900 65L900 65L900 78L900 78L900 91L900 91L900 104L900 104L900 117L900 117L900 130L900 130L900 143L900 143L900 157L900 157L900 170L900 170L900 183L900 183L900 196L900 196L900 209L900 209L900 222L900 222L900 235L900 235L900 248L900 248L900 261L900 261L900 274L900 274L900 287L900 287L900 300L900 300Z" fill="#032fa3"></path><path d="M564 300L552 300L552 287L542 287L542 274L552 274L552 261L543 261L543 248L551 248L551 235L564 235L564 222L562 222L562 209L565 209L565 196L564 196L564 183L536 183L536 170L574 170L574 157L555 157L555 143L553 143L553 130L547 130L547 117L546 117L546 104L552 104L552 91L565 91L565 78L553 78L553 65L546 65L546 52L562 52L562 39L539 39L539 26L554 26L554 13L543 13L543 0L900 0L900 13L900 13L900 26L900 26L900 39L900 39L900 52L900 52L900 65L900 65L900 78L900 78L900 91L900 91L900 104L900 104L900 117L900 117L900 130L900 130L900 143L900 143L900 157L900 157L900 170L900 170L900 183L900 183L900 196L900 196L900 209L900 209L900 222L900 222L900 235L900 235L900 248L900 248L900 261L900 261L900 274L900 274L900 287L900 287L900 300L900 300Z" fill="#132fb7"></path><path d="M606 300L637 300L637 287L641 287L641 274L642 274L642 261L610 261L610 248L627 248L627 235L616 235L616 222L609 222L609 209L639 209L639 196L633 196L633 183L606 183L606 170L639 170L639 157L645 157L645 143L626 143L626 130L635 130L635 117L619 117L619 104L638 104L638 91L618 91L618 78L644 78L644 65L641 65L641 52L626 52L626 39L614 39L614 26L615 26L615 13L609 13L609 0L900 0L900 13L900 13L900 26L900 26L900 39L900 39L900 52L900 52L900 65L900 65L900 78L900 78L900 91L900 91L900 104L900 104L900 117L900 117L900 130L900 130L900 143L900 143L900 157L900 157L900 170L900 170L900 183L900 183L900 196L900 196L900 209L900 209L900 222L900 222L900 235L900 235L900 248L900 248L900 261L900 261L900 274L900 274L900 287L900 287L900 300L900 300Z" fill="#262dca"></path><path d="M678 300L674 300L674 287L679 287L679 274L694 274L694 261L683 261L683 248L677 248L677 235L688 235L688 222L689 222L689 209L673 209L673 196L674 196L674 183L708 183L708 170L699 170L699 157L708 157L708 143L676 143L676 130L677 130L677 117L698 117L698 104L697 104L697 91L701 91L701 78L675 78L675 65L690 65L690 52L687 52L687 39L698 39L698 26L676 26L676 13L681 13L681 0L900 0L900 13L900 13L900 26L900 26L900 39L900 39L900 52L900 52L900 65L900 65L900 78L900 78L900 91L900 91L900 104L900 104L900 117L900 117L900 130L900 130L900 143L900 143L900 157L900 157L900 170L900 170L900 183L900 183L900 196L900 196L900 209L900 209L900 222L900 222L900 235L900 235L900 248L900 248L900 261L900 261L900 274L900 274L900 287L900 287L900 300L900 300Z" fill="#3a28dc"></path><path d="M774 300L752 300L752 287L761 287L761 274L760 274L760 261L751 261L751 248L765 248L765 235L747 235L747 222L766 222L766 209L777 209L777 196L765 196L765 183L758 183L758 170L782 170L782 157L748 157L748 143L762 143L762 130L747 130L747 117L770 117L770 104L759 104L759 91L744 91L744 78L768 78L768 65L752 65L752 52L765 52L765 39L768 39L768 26L759 26L759 13L748 13L748 0L900 0L900 13L900 13L900 26L900 26L900 39L900 39L900 52L900 52L900 65L900 65L900 78L900 78L900 91L900 91L900 104L900 104L900 117L900 117L900 130L900 130L900 143L900 143L900 157L900 157L900 170L900 170L900 183L900 183L900 196L900 196L900 209L900 209L900 222L900 222L900 235L900 235L900 248L900 248L900 261L900 261L900 274L900 274L900 287L900 287L900 300L900 300Z" fill="#501dee"></path><path d="M823 300L818 300L818 287L816 287L816 274L834 274L834 261L813 261L813 248L849 248L849 235L843 235L843 222L849 222L849 209L819 209L819 196L821 196L821 183L843 183L843 170L815 170L815 157L833 157L833 143L839 143L839 130L847 130L847 117L836 117L836 104L838 104L838 91L825 91L825 78L814 78L814 65L851 65L851 52L825 52L825 39L832 39L832 26L830 26L830 13L846 13L846 0L900 0L900 13L900 13L900 26L900 26L900 39L900 39L900 52L900 52L900 65L900 65L900 78L900 78L900 91L900 91L900 104L900 104L900 117L900 117L900 130L900 130L900 143L900 143L900 157L900 157L900 170L900 170L900 183L900 183L900 196L900 196L900 209L900 209L900 222L900 222L900 235L900 235L900 248L900 248L900 261L900 261L900 274L900 274L900 287L900 287L900 300L900 300Z" fill="#6600ff"></path></svg>