<svg id="visual" viewBox="0 0 900 300" width="900" height="300" xmlns="http://www.w3.org/2000/svg" xmlns:xlink="http://www.w3.org/1999/xlink" version="1.1"><rect x="0" y="0" width="900" height="300" fill="#27282c"></rect><path d="M0 69L13.7 76.2C27.3 83.3 54.7 97.7 82 99C109.3 100.3 136.7 88.7 163.8 91.7C191 94.7 218 112.3 245.2 113.7C272.3 115 299.7 100 327 97.2C354.3 94.3 381.7 103.7 409 103.8C436.3 104 463.7 95 491 97.8C518.3 100.7 545.7 115.3 573 112.5C600.3 109.7 627.7 89.3 654.8 92.2C682 95 709 121 736.2 130.5C763.3 140 790.7 133 818 120.8C845.3 108.7 872.7 91.3 886.3 82.7L900 74L900 301L886.3 301C872.7 301 845.3 301 818 301C790.7 301 763.3 301 736.2 301C709 301 682 301 654.8 301C627.7 301 600.3 301 573 301C545.7 301 518.3 301 491 301C463.7 301 436.3 301 409 301C381.7 301 354.3 301 327 301C299.7 301 272.3 301 245.2 301C218 301 191 301 163.8 301C136.7 301 109.3 301 82 301C54.7 301 27.3 301 13.7 301L0 301Z" fill="#27282c"></path><path d="M0 136L13.7 141.2C27.3 146.3 54.7 156.7 82 159.5C109.3 162.3 136.7 157.7 163.8 144.2C191 130.7 218 108.3 245.2 106.2C272.3 104 299.7 122 327 134.8C354.3 147.7 381.7 155.3 409 150.7C436.3 146 463.7 129 491 124.8C518.3 120.7 545.7 129.3 573 132C600.3 134.7 627.7 131.3 654.8 125.3C682 119.3 709 110.7 736.2 117C763.3 123.3 790.7 144.7 818 155.2C845.3 165.7 872.7 165.3 886.3 165.2L900 165L900 301L886.3 301C872.7 301 845.3 301 818 301C790.7 301 763.3 301 736.2 301C709 301 682 301 654.8 301C627.7 301 600.3 301 573 301C545.7 301 518.3 301 491 301C463.7 301 436.3 301 409 301C381.7 301 354.3 301 327 301C299.7 301 272.3 301 245.2 301C218 301 191 301 163.8 301C136.7 301 109.3 301 82 301C54.7 301 27.3 301 13.7 301L0 301Z" fill="#343340"></path><path d="M0 124L13.7 121.5C27.3 119 54.7 114 82 116.5C109.3 119 136.7 129 163.8 128.2C191 127.3 218 115.7 245.2 116.8C272.3 118 299.7 132 327 142.2C354.3 152.3 381.7 158.7 409 156.5C436.3 154.3 463.7 143.7 491 139.8C518.3 136 545.7 139 573 140.5C600.3 142 627.7 142 654.8 141.8C682 141.7 709 141.3 736.2 139.8C763.3 138.3 790.7 135.7 818 136.5C845.3 137.3 872.7 141.7 886.3 143.8L900 146L900 301L886.3 301C872.7 301 845.3 301 818 301C790.7 301 763.3 301 736.2 301C709 301 682 301 654.8 301C627.7 301 600.3 301 573 301C545.7 301 518.3 301 491 301C463.7 301 436.3 301 409 301C381.7 301 354.3 301 327 301C299.7 301 272.3 301 245.2 301C218 301 191 301 163.8 301C136.7 301 109.3 301 82 301C54.7 301 27.3 301 13.7 301L0 301Z" fill="#463c52"></path><path d="M0 142L13.7 143C27.3 144 54.7 146 82 147C109.3 148 136.7 148 163.8 150.7C191 153.3 218 158.7 245.2 154.7C272.3 150.7 299.7 137.3 327 141.5C354.3 145.7 381.7 167.3 409 178.5C436.3 189.7 463.7 190.3 491 179.7C518.3 169 545.7 147 573 141.8C600.3 136.7 627.7 148.3 654.8 153.5C682 158.7 709 157.3 736.2 154C763.3 150.7 790.7 145.3 818 143.3C845.3 141.3 872.7 142.7 886.3 143.3L900 144L900 301L886.3 301C872.7 301 845.3 301 818 301C790.7 301 763.3 301 736.2 301C709 301 682 301 654.8 301C627.7 301 600.3 301 573 301C545.7 301 518.3 301 491 301C463.7 301 436.3 301 409 301C381.7 301 354.3 301 327 301C299.7 301 272.3 301 245.2 301C218 301 191 301 163.8 301C136.7 301 109.3 301 82 301C54.7 301 27.3 301 13.7 301L0 301Z" fill="#5e4461"></path><path d="M0 172L13.7 167.2C27.3 162.3 54.7 152.7 82 156.8C109.3 161 136.7 179 163.8 181.8C191 184.7 218 172.3 245.2 173.2C272.3 174 299.7 188 327 189.8C354.3 191.7 381.7 181.3 409 172.3C436.3 163.3 463.7 155.7 491 157.2C518.3 158.7 545.7 169.3 573 171.3C600.3 173.3 627.7 166.7 654.8 166.8C682 167 709 174 736.2 178.3C763.3 182.7 790.7 184.3 818 184C845.3 183.7 872.7 181.3 886.3 180.2L900 179L900 301L886.3 301C872.7 301 845.3 301 818 301C790.7 301 763.3 301 736.2 301C709 301 682 301 654.8 301C627.7 301 600.3 301 573 301C545.7 301 518.3 301 491 301C463.7 301 436.3 301 409 301C381.7 301 354.3 301 327 301C299.7 301 272.3 301 245.2 301C218 301 191 301 163.8 301C136.7 301 109.3 301 82 301C54.7 301 27.3 301 13.7 301L0 301Z" fill="#7a4b6c"></path><path d="M0 208L13.7 202.7C27.3 197.3 54.7 186.7 82 182.3C109.3 178 136.7 180 163.8 183.7C191 187.3 218 192.7 245.2 194.7C272.3 196.7 299.7 195.3 327 195.2C354.3 195 381.7 196 409 196.8C436.3 197.7 463.7 198.3 491 196.3C518.3 194.3 545.7 189.7 573 186.8C600.3 184 627.7 183 654.8 180.8C682 178.7 709 175.3 736.2 174.7C763.3 174 790.7 176 818 177.8C845.3 179.7 872.7 181.3 886.3 182.2L900 183L900 301L886.3 301C872.7 301 845.3 301 818 301C790.7 301 763.3 301 736.2 301C709 301 682 301 654.8 301C627.7 301 600.3 301 573 301C545.7 301 518.3 301 491 301C463.7 301 436.3 301 409 301C381.7 301 354.3 301 327 301C299.7 301 272.3 301 245.2 301C218 301 191 301 163.8 301C136.7 301 109.3 301 82 301C54.7 301 27.3 301 13.7 301L0 301Z" fill="#975271"></path><path d="M0 208L13.7 202.7C27.3 197.3 54.7 186.7 82 187.8C109.3 189 136.7 202 163.8 205.5C191 209 218 203 245.2 203.2C272.3 203.3 299.7 209.7 327 212.8C354.3 216 381.7 216 409 209.5C436.3 203 463.7 190 491 188.8C518.3 187.7 545.7 198.3 573 202C600.3 205.7 627.7 202.3 654.8 200.5C682 198.7 709 198.3 736.2 202C763.3 205.7 790.7 213.3 818 210.7C845.3 208 872.7 195 886.3 188.5L900 182L900 301L886.3 301C872.7 301 845.3 301 818 301C790.7 301 763.3 301 736.2 301C709 301 682 301 654.8 301C627.7 301 600.3 301 573 301C545.7 301 518.3 301 491 301C463.7 301 436.3 301 409 301C381.7 301 354.3 301 327 301C299.7 301 272.3 301 245.2 301C218 301 191 301 163.8 301C136.7 301 109.3 301 82 301C54.7 301 27.3 301 13.7 301L0 301Z" fill="#b35971"></path><path d="M0 210L13.7 207.8C27.3 205.7 54.7 201.3 82 205.8C109.3 210.3 136.7 223.7 163.8 228C191 232.3 218 227.7 245.2 224.3C272.3 221 299.7 219 327 219C354.3 219 381.7 221 409 222C436.3 223 463.7 223 491 225.5C518.3 228 545.7 233 573 230.2C600.3 227.3 627.7 216.7 654.8 210.8C682 205 709 204 736.2 206.8C763.3 209.7 790.7 216.3 818 217.5C845.3 218.7 872.7 214.3 886.3 212.2L900 210L900 301L886.3 301C872.7 301 845.3 301 818 301C790.7 301 763.3 301 736.2 301C709 301 682 301 654.8 301C627.7 301 600.3 301 573 301C545.7 301 518.3 301 491 301C463.7 301 436.3 301 409 301C381.7 301 354.3 301 327 301C299.7 301 272.3 301 245.2 301C218 301 191 301 163.8 301C136.7 301 109.3 301 82 301C54.7 301 27.3 301 13.7 301L0 301Z" fill="#cc636d"></path><path d="M0 226L13.7 228.8C27.3 231.7 54.7 237.3 82 239.5C109.3 241.7 136.7 240.3 163.8 238.7C191 237 218 235 245.2 230.5C272.3 226 299.7 219 327 216.5C354.3 214 381.7 216 409 218C436.3 220 463.7 222 491 227.2C518.3 232.3 545.7 240.7 573 243.3C600.3 246 627.7 243 654.8 238.5C682 234 709 228 736.2 229.3C763.3 230.7 790.7 239.3 818 243.2C845.3 247 872.7 246 886.3 245.5L900 245L900 301L886.3 301C872.7 301 845.3 301 818 301C790.7 301 763.3 301 736.2 301C709 301 682 301 654.8 301C627.7 301 600.3 301 573 301C545.7 301 518.3 301 491 301C463.7 301 436.3 301 409 301C381.7 301 354.3 301 327 301C299.7 301 272.3 301 245.2 301C218 301 191 301 163.8 301C136.7 301 109.3 301 82 301C54.7 301 27.3 301 13.7 301L0 301Z" fill="#e27064"></path><path d="M0 257L13.7 255.3C27.3 253.7 54.7 250.3 82 250.3C109.3 250.3 136.7 253.7 163.8 254.8C191 256 218 255 245.2 251.2C272.3 247.3 299.7 240.7 327 241.7C354.3 242.7 381.7 251.3 409 253.2C436.3 255 463.7 250 491 248.5C518.3 247 545.7 249 573 250.5C600.3 252 627.7 253 654.8 254.5C682 256 709 258 736.2 257.8C763.3 257.7 790.7 255.3 818 252.2C845.3 249 872.7 245 886.3 243L900 241L900 301L886.3 301C872.7 301 845.3 301 818 301C790.7 301 763.3 301 736.2 301C709 301 682 301 654.8 301C627.7 301 600.3 301 573 301C545.7 301 518.3 301 491 301C463.7 301 436.3 301 409 301C381.7 301 354.3 301 327 301C299.7 301 272.3 301 245.2 301C218 301 191 301 163.8 301C136.7 301 109.3 301 82 301C54.7 301 27.3 301 13.7 301L0 301Z" fill="#f18258"></path><path d="M0 252L13.7 251.8C27.3 251.7 54.7 251.3 82 251.5C109.3 251.7 136.7 252.3 163.8 252.5C191 252.7 218 252.3 245.2 255.5C272.3 258.7 299.7 265.3 327 267.2C354.3 269 381.7 266 409 265.2C436.3 264.3 463.7 265.7 491 265.5C518.3 265.3 545.7 263.7 573 260.7C600.3 257.7 627.7 253.3 654.8 251.7C682 250 709 251 736.2 252.3C763.3 253.7 790.7 255.3 818 255.5C845.3 255.7 872.7 254.3 886.3 253.7L900 253L900 301L886.3 301C872.7 301 845.3 301 818 301C790.7 301 763.3 301 736.2 301C709 301 682 301 654.8 301C627.7 301 600.3 301 573 301C545.7 301 518.3 301 491 301C463.7 301 436.3 301 409 301C381.7 301 354.3 301 327 301C299.7 301 272.3 301 245.2 301C218 301 191 301 163.8 301C136.7 301 109.3 301 82 301C54.7 301 27.3 301 13.7 301L0 301Z" fill="#fa974a"></path><path d="M0 272L13.7 272.8C27.3 273.7 54.7 275.3 82 275.8C109.3 276.3 136.7 275.7 163.8 275C191 274.3 218 273.7 245.2 273.3C272.3 273 299.7 273 327 272.8C354.3 272.7 381.7 272.3 409 271.7C436.3 271 463.7 270 491 270.8C518.3 271.7 545.7 274.3 573 276.5C600.3 278.7 627.7 280.3 654.8 280C682 279.7 709 277.3 736.2 277.7C763.3 278 790.7 281 818 280.2C845.3 279.3 872.7 274.7 886.3 272.3L900 270L900 301L886.3 301C872.7 301 845.3 301 818 301C790.7 301 763.3 301 736.2 301C709 301 682 301 654.8 301C627.7 301 600.3 301 573 301C545.7 301 518.3 301 491 301C463.7 301 436.3 301 409 301C381.7 301 354.3 301 327 301C299.7 301 272.3 301 245.2 301C218 301 191 301 163.8 301C136.7 301 109.3 301 82 301C54.7 301 27.3 301 13.7 301L0 301Z" fill="#fcaf3c"></path></svg>