<?xml version="1.0" encoding="UTF-8" standalone="no"?>
<!-- Created with Inkscape (http://www.inkscape.org/) -->

<svg
   version="1.1"
   id="svg54127"
   width="974.39996"
   height="686.39996"
   viewBox="0 0 974.39996 686.39996"
   sodipodi:docname="Add.svg"
   xml:space="preserve"
   inkscape:version="1.2 (dc2aedaf03, 2022-05-15)"
   xmlns:inkscape="http://www.inkscape.org/namespaces/inkscape"
   xmlns:sodipodi="http://sodipodi.sourceforge.net/DTD/sodipodi-0.dtd"
   xmlns="http://www.w3.org/2000/svg"
   xmlns:svg="http://www.w3.org/2000/svg"><defs
     id="defs54131"><clipPath
       clipPathUnits="userSpaceOnUse"
       id="clipPath54253"><path
         d="M 117.42942,91.040192 H 723.6 V 507.6 H 117.42942 Z"
         id="path54251" /></clipPath><clipPath
       clipPathUnits="userSpaceOnUse"
       id="clipPath54263"><path
         d="M 117.42942,91.040192 H 723.6 V 507.6 H 117.42942 Z"
         id="path54261" /></clipPath><clipPath
       clipPathUnits="userSpaceOnUse"
       id="clipPath54273"><path
         d="M 117.42942,91.040192 H 723.6 V 507.6 H 117.42942 Z"
         id="path54271" /></clipPath><clipPath
       clipPathUnits="userSpaceOnUse"
       id="clipPath54283"><path
         d="M 117.42942,91.040192 H 723.6 V 507.6 H 117.42942 Z"
         id="path54281" /></clipPath><clipPath
       clipPathUnits="userSpaceOnUse"
       id="clipPath54333"><path
         d="M 159.86136,257.66411 H 402.32959 V 457.61282 H 159.86136 Z"
         id="path54331" /></clipPath><clipPath
       clipPathUnits="userSpaceOnUse"
       id="clipPath54563"><path
         d="M 117.42942,91.040192 H 723.6 V 507.6 H 117.42942 Z"
         id="path54561" /></clipPath><clipPath
       clipPathUnits="userSpaceOnUse"
       id="clipPath54573"><path
         d="M 117.42942,91.040192 H 723.6 V 507.6 H 117.42942 Z"
         id="path54571" /></clipPath><clipPath
       clipPathUnits="userSpaceOnUse"
       id="clipPath54583"><path
         d="M 117.42942,91.040192 H 723.6 V 507.6 H 117.42942 Z"
         id="path54581" /></clipPath><clipPath
       clipPathUnits="userSpaceOnUse"
       id="clipPath54593"><path
         d="M 117.42942,91.040192 H 723.6 V 507.6 H 117.42942 Z"
         id="path54591" /></clipPath><clipPath
       clipPathUnits="userSpaceOnUse"
       id="clipPath54643"><path
         d="M 159.86136,257.66411 H 402.32959 V 457.61282 H 159.86136 Z"
         id="path54641" /></clipPath></defs><sodipodi:namedview
     id="namedview54129"
     pagecolor="#505050"
     bordercolor="#eeeeee"
     borderopacity="1"
     inkscape:showpageshadow="0"
     inkscape:pageopacity="0"
     inkscape:pagecheckerboard="0"
     inkscape:deskcolor="#505050"
     showgrid="false"
     inkscape:zoom="0.87234682"
     inkscape:cx="451.08206"
     inkscape:cy="345.04625"
     inkscape:window-width="1916"
     inkscape:window-height="1052"
     inkscape:window-x="0"
     inkscape:window-y="24"
     inkscape:window-maximized="1"
     inkscape:current-layer="svg54127" /><g
     id="g54135"
     inkscape:groupmode="layer"
     inkscape:label="Page 1"
     transform="matrix(1.3333333,0,0,-1.3333333,-984.40002,686.39998)" /><path
     d="M 0,686.39998 H 974.39998 V 0 H 0 Z"
     style="fill:#ffffff;fill-opacity:1;fill-rule:nonzero;stroke:none;stroke-width:1.33333"
     id="path54447" /><path
     d="m 156.57258,565.01306 h 808.2274 V 9.5999997 h -808.2274 z"
     style="fill:#ffffff;fill-opacity:1;fill-rule:nonzero;stroke:none;stroke-width:1.33333"
     id="path54449" /><path
     d="m 332.11518,565.01306 v 4.66666"
     style="fill:#555555;fill-opacity:1;fill-rule:nonzero;stroke:#555555;stroke-width:1.06667;stroke-linecap:butt;stroke-linejoin:round;stroke-miterlimit:10;stroke-dasharray:none;stroke-opacity:1"
     id="path54451" /><text
     xml:space="preserve"
     style="font-style:italic;font-variant:normal;font-weight:normal;font-size:46.4923px;font-family:CMSY10;-inkscape-font-specification:CMSY10;writing-mode:lr-tb;fill:#555555;fill-opacity:1;fill-rule:nonzero;stroke:none;stroke-width:1.33333"
     id="text54455"
     x="292.71252"
     y="606.63275"><tspan
       x="292.71252"
       y="606.63275"
       id="tspan54453"
       style="stroke-width:1.33333">−</tspan></text><text
     xml:space="preserve"
     style="font-variant:normal;font-weight:normal;font-size:46.4923px;font-family:CMR17;-inkscape-font-specification:CMR17;writing-mode:lr-tb;fill:#555555;fill-opacity:1;fill-rule:nonzero;stroke:none;stroke-width:1.33333"
     id="text54459"
     x="328.87329"
     y="606.63275"><tspan
       x="328.87329 350.16687"
       y="606.63275"
       sodipodi:role="line"
       id="tspan54457"
       style="stroke-width:1.33333">20</tspan></text><path
     d="m 560.68628,565.01306 v 4.66666"
     style="fill:#555555;fill-opacity:1;fill-rule:nonzero;stroke:#555555;stroke-width:1.06667;stroke-linecap:butt;stroke-linejoin:round;stroke-miterlimit:10;stroke-dasharray:none;stroke-opacity:1"
     id="path54461" /><text
     xml:space="preserve"
     style="font-variant:normal;font-weight:normal;font-size:46.4923px;font-family:CMR17;-inkscape-font-specification:CMR17;writing-mode:lr-tb;fill:#555555;fill-opacity:1;fill-rule:nonzero;stroke:none;stroke-width:1.33333"
     id="text54465"
     x="550.02515"
     y="606.63275"><tspan
       x="550.02515"
       y="606.63275"
       id="tspan54463"
       style="stroke-width:1.33333">0</tspan></text><path
     d="m 789.25738,565.01306 v 4.66666"
     style="fill:#555555;fill-opacity:1;fill-rule:nonzero;stroke:#555555;stroke-width:1.06667;stroke-linecap:butt;stroke-linejoin:round;stroke-miterlimit:10;stroke-dasharray:none;stroke-opacity:1"
     id="path54467" /><text
     xml:space="preserve"
     style="font-variant:normal;font-weight:normal;font-size:46.4923px;font-family:CMR17;-inkscape-font-specification:CMR17;writing-mode:lr-tb;fill:#555555;fill-opacity:1;fill-rule:nonzero;stroke:none;stroke-width:1.33333"
     id="text54471"
     x="767.93518"
     y="606.63275"><tspan
       x="767.93518 789.22864"
       y="606.63275"
       sodipodi:role="line"
       id="tspan54469"
       style="stroke-width:1.33333">20</tspan></text><text
     xml:space="preserve"
     style="font-style:italic;font-variant:normal;font-weight:normal;font-size:55.7908px;font-family:CMMI12;-inkscape-font-specification:CMMI12;writing-mode:lr-tb;fill:#555555;fill-opacity:1;fill-rule:nonzero;stroke:none;stroke-width:1.33333"
     id="text54475"
     x="507.48267"
     y="662.85229"><tspan
       x="507.48267 543.46106"
       y="662.85229"
       sodipodi:role="line"
       id="tspan54473"
       style="stroke-width:1.33333">ω/</tspan></text><text
     xml:space="preserve"
     style="font-variant:normal;font-weight:normal;font-size:55.7908px;font-family:CMR17;-inkscape-font-specification:CMR17;writing-mode:lr-tb;fill:#555555;fill-opacity:1;fill-rule:nonzero;stroke:none;stroke-width:1.33333"
     id="text54479"
     x="570.81494"
     y="662.85229"><tspan
       x="570.81494"
       y="662.85229"
       id="tspan54477"
       style="stroke-width:1.33333">∆</tspan></text><path
     d="m 156.57258,556.87827 h -4.6667"
     style="fill:#555555;fill-opacity:1;fill-rule:nonzero;stroke:#555555;stroke-width:1.06667;stroke-linecap:butt;stroke-linejoin:round;stroke-miterlimit:10;stroke-dasharray:none;stroke-opacity:1"
     id="path54481" /><text
     xml:space="preserve"
     style="font-variant:normal;font-weight:normal;font-size:46.4923px;font-family:CMR17;-inkscape-font-specification:CMR17;writing-mode:lr-tb;fill:#555555;fill-opacity:1;fill-rule:nonzero;stroke:none;stroke-width:1.33333"
     id="text54485"
     x="70.627197"
     y="573.02148"><tspan
       x="70.627197"
       y="573.02148"
       id="tspan54483"
       style="stroke-width:1.33333">0</tspan></text><text
     xml:space="preserve"
     style="font-style:italic;font-variant:normal;font-weight:normal;font-size:46.4923px;font-family:CMMI12;-inkscape-font-specification:CMMI12;writing-mode:lr-tb;fill:#555555;fill-opacity:1;fill-rule:nonzero;stroke:none;stroke-width:1.33333"
     id="text54489"
     x="91.949463"
     y="573.02148"><tspan
       x="91.949463"
       y="573.02148"
       id="tspan54487"
       style="stroke-width:1.33333">.</tspan></text><text
     xml:space="preserve"
     style="font-variant:normal;font-weight:normal;font-size:46.4923px;font-family:CMR17;-inkscape-font-specification:CMR17;writing-mode:lr-tb;fill:#555555;fill-opacity:1;fill-rule:nonzero;stroke:none;stroke-width:1.33333"
     id="text54493"
     x="104.59473"
     y="573.02148"><tspan
       x="104.59473 125.88831"
       y="573.02148"
       sodipodi:role="line"
       id="tspan54491"
       style="stroke-width:1.33333">00</tspan></text><path
     d="m 156.57258,388.30126 h -4.6667"
     style="fill:#555555;fill-opacity:1;fill-rule:nonzero;stroke:#555555;stroke-width:1.06667;stroke-linecap:butt;stroke-linejoin:round;stroke-miterlimit:10;stroke-dasharray:none;stroke-opacity:1"
     id="path54495" /><text
     xml:space="preserve"
     style="font-variant:normal;font-weight:normal;font-size:46.4923px;font-family:CMR17;-inkscape-font-specification:CMR17;writing-mode:lr-tb;fill:#555555;fill-opacity:1;fill-rule:nonzero;stroke:none;stroke-width:1.33333"
     id="text54499"
     x="70.627197"
     y="404.44443"><tspan
       x="70.627197"
       y="404.44443"
       id="tspan54497"
       style="stroke-width:1.33333">0</tspan></text><text
     xml:space="preserve"
     style="font-style:italic;font-variant:normal;font-weight:normal;font-size:46.4923px;font-family:CMMI12;-inkscape-font-specification:CMMI12;writing-mode:lr-tb;fill:#555555;fill-opacity:1;fill-rule:nonzero;stroke:none;stroke-width:1.33333"
     id="text54503"
     x="91.949463"
     y="404.44443"><tspan
       x="91.949463"
       y="404.44443"
       id="tspan54501"
       style="stroke-width:1.33333">.</tspan></text><text
     xml:space="preserve"
     style="font-variant:normal;font-weight:normal;font-size:46.4923px;font-family:CMR17;-inkscape-font-specification:CMR17;writing-mode:lr-tb;fill:#555555;fill-opacity:1;fill-rule:nonzero;stroke:none;stroke-width:1.33333"
     id="text54507"
     x="104.59473"
     y="404.44443"><tspan
       x="104.59473 125.88831"
       y="404.44443"
       sodipodi:role="line"
       id="tspan54505"
       style="stroke-width:1.33333">05</tspan></text><path
     d="m 156.57258,219.72427 h -4.6667"
     style="fill:#555555;fill-opacity:1;fill-rule:nonzero;stroke:#555555;stroke-width:1.06667;stroke-linecap:butt;stroke-linejoin:round;stroke-miterlimit:10;stroke-dasharray:none;stroke-opacity:1"
     id="path54509" /><text
     xml:space="preserve"
     style="font-variant:normal;font-weight:normal;font-size:46.4923px;font-family:CMR17;-inkscape-font-specification:CMR17;writing-mode:lr-tb;fill:#555555;fill-opacity:1;fill-rule:nonzero;stroke:none;stroke-width:1.33333"
     id="text54513"
     x="70.627197"
     y="235.86745"><tspan
       x="70.627197"
       y="235.86745"
       id="tspan54511"
       style="stroke-width:1.33333">0</tspan></text><text
     xml:space="preserve"
     style="font-style:italic;font-variant:normal;font-weight:normal;font-size:46.4923px;font-family:CMMI12;-inkscape-font-specification:CMMI12;writing-mode:lr-tb;fill:#555555;fill-opacity:1;fill-rule:nonzero;stroke:none;stroke-width:1.33333"
     id="text54517"
     x="91.949463"
     y="235.86745"><tspan
       x="91.949463"
       y="235.86745"
       id="tspan54515"
       style="stroke-width:1.33333">.</tspan></text><text
     xml:space="preserve"
     style="font-variant:normal;font-weight:normal;font-size:46.4923px;font-family:CMR17;-inkscape-font-specification:CMR17;writing-mode:lr-tb;fill:#555555;fill-opacity:1;fill-rule:nonzero;stroke:none;stroke-width:1.33333"
     id="text54521"
     x="104.59473"
     y="235.86745"><tspan
       x="104.59473 125.88831"
       y="235.86745"
       sodipodi:role="line"
       id="tspan54519"
       style="stroke-width:1.33333">10</tspan></text><path
     d="m 156.57258,51.147279 h -4.6667"
     style="fill:#555555;fill-opacity:1;fill-rule:nonzero;stroke:#555555;stroke-width:1.06667;stroke-linecap:butt;stroke-linejoin:round;stroke-miterlimit:10;stroke-dasharray:none;stroke-opacity:1"
     id="path54523" /><text
     xml:space="preserve"
     style="font-variant:normal;font-weight:normal;font-size:46.4923px;font-family:CMR17;-inkscape-font-specification:CMR17;writing-mode:lr-tb;fill:#555555;fill-opacity:1;fill-rule:nonzero;stroke:none;stroke-width:1.33333"
     id="text54527"
     x="70.627197"
     y="67.290443"><tspan
       x="70.627197"
       y="67.290443"
       id="tspan54525"
       style="stroke-width:1.33333">0</tspan></text><text
     xml:space="preserve"
     style="font-style:italic;font-variant:normal;font-weight:normal;font-size:46.4923px;font-family:CMMI12;-inkscape-font-specification:CMMI12;writing-mode:lr-tb;fill:#555555;fill-opacity:1;fill-rule:nonzero;stroke:none;stroke-width:1.33333"
     id="text54531"
     x="91.949463"
     y="67.290443"><tspan
       x="91.949463"
       y="67.290443"
       id="tspan54529"
       style="stroke-width:1.33333">.</tspan></text><text
     xml:space="preserve"
     style="font-variant:normal;font-weight:normal;font-size:46.4923px;font-family:CMR17;-inkscape-font-specification:CMR17;writing-mode:lr-tb;fill:#555555;fill-opacity:1;fill-rule:nonzero;stroke:none;stroke-width:1.33333"
     id="text54535"
     x="104.59473"
     y="67.290443"><tspan
       x="104.59473 125.88831"
       y="67.290443"
       sodipodi:role="line"
       id="tspan54533"
       style="stroke-width:1.33333">15</tspan></text><text
     xml:space="preserve"
     transform="rotate(-90)"
     style="font-style:italic;font-variant:normal;font-weight:normal;font-size:55.7908px;font-family:CMMI12;-inkscape-font-specification:CMMI12;writing-mode:lr-tb;fill:#555555;fill-opacity:1;fill-rule:nonzero;stroke:none;stroke-width:1.33333"
     id="text54539"
     x="-360.46503"
     y="51.394657"><tspan
       x="-360.46503"
       y="51.394657"
       id="tspan54537"
       style="stroke-width:1.33333">A</tspan></text><text
     xml:space="preserve"
     transform="rotate(-90)"
     style="font-style:italic;font-variant:normal;font-weight:normal;font-size:39.0533px;font-family:CMMI12;-inkscape-font-specification:CMMI12;writing-mode:lr-tb;fill:#555555;fill-opacity:1;fill-rule:nonzero;stroke:none;stroke-width:1.33333"
     id="text54543"
     x="-319.5134"
     y="59.763187"><tspan
       x="-319.5134"
       y="59.763187"
       id="tspan54541"
       style="stroke-width:1.33333">d</tspan></text><text
     xml:space="preserve"
     transform="rotate(-90)"
     style="font-variant:normal;font-weight:normal;font-size:55.7908px;font-family:CMR17;-inkscape-font-specification:CMR17;writing-mode:lr-tb;fill:#555555;fill-opacity:1;fill-rule:nonzero;stroke:none;stroke-width:1.33333"
     id="text54547"
     x="-289.68076"
     y="51.392826"><tspan
       x="-289.68076"
       y="51.392826"
       id="tspan54545"
       style="stroke-width:1.33333">(</tspan></text><text
     xml:space="preserve"
     transform="rotate(-90)"
     style="font-style:italic;font-variant:normal;font-weight:normal;font-size:55.7908px;font-family:CMMI12;-inkscape-font-specification:CMMI12;writing-mode:lr-tb;fill:#555555;fill-opacity:1;fill-rule:nonzero;stroke:none;stroke-width:1.33333"
     id="text54551"
     x="-269.92352"
     y="51.394657"><tspan
       x="-269.92352"
       y="51.394657"
       id="tspan54549"
       style="stroke-width:1.33333">ω</tspan></text><text
     xml:space="preserve"
     transform="rotate(-90)"
     style="font-variant:normal;font-weight:normal;font-size:55.7908px;font-family:CMR17;-inkscape-font-specification:CMR17;writing-mode:lr-tb;fill:#555555;fill-opacity:1;fill-rule:nonzero;stroke:none;stroke-width:1.33333"
     id="text54555"
     x="-233.90526"
     y="51.392826"><tspan
       x="-233.90526"
       y="51.392826"
       id="tspan54553"
       style="stroke-width:1.33333">)</tspan></text><g
     id="g54557"
     transform="matrix(1.3333333,0,0,-1.3333333,0,686.39998)"><g
       id="g54559"
       clip-path="url(#clipPath54563)"><path
         d="m 129.08655,100.82282 33.23943,-0.1794 37.61304,-0.43307 88.93005,-1.139074 9.0388,0.185102 6.99777,0.357832 5.83148,0.52196 4.95676,0.66477 4.37361,0.80195 4.08203,0.96874 3.79046,1.12088 3.79046,1.3616 3.49889,1.49186 3.49889,1.73445 3.49888,1.98946 3.49889,2.25188 3.49889,2.51569 3.79046,3.01679 3.79046,3.30425 4.08204,3.8509 4.66518,4.71934 5.53991,5.94547 7.28934,8.18075 9.91352,11.46333 5.83148,7.03562 3.49889,4.53091 2.91573,4.14369 2.3326,3.72264 2.04101,3.72406 1.74945,3.70912 1.45787,3.61615 1.45787,4.29509 1.16629,4.11906 1.1663,4.97176 1.16629,6.18043 0.87473,5.76245 0.87472,7.14169 0.87472,9.12494 0.87472,12.11894 0.58315,10.58885 0.58315,13.61751 0.58315,18.18775 0.58314,25.55557 0.58315,38.5834 0.58315,65.05292 0.43736,88.2884 0.43736,-88.2884 0.58315,-65.05292 0.58315,-38.5834 0.58314,-25.55557 0.58315,-18.18775 0.87473,-19.22281 0.87472,-13.46305 0.87472,-9.98207 0.87472,-7.72074 0.87472,-6.17121 1.1663,-6.56086 1.16629,-5.23409 1.1663,-4.30675 1.45787,-4.46207 1.45787,-3.73399 1.74944,-3.80865 1.74945,-3.29276 2.04102,-3.3905 2.62416,-3.88154 3.20731,-4.29066 4.08204,-5.06334 6.41463,-7.56537 10.20508,-11.67891 6.99778,-7.69808 5.24833,-5.45091 4.37361,-4.24196 4.08203,-3.65957 3.79047,-3.10736 3.79046,-2.8079 3.49888,-2.31795 3.49889,-2.0546 3.49889,-1.79721 3.49889,-1.55111 3.49888,-1.32055 3.79047,-1.19215 4.08203,-1.03609 4.37361,-0.86317 4.66518,-0.68528 5.24833,-0.538333 6.12306,-0.393113 7.58092,-0.24517 9.91351,-0.08017 15.745,0.125308 40.82035,0.628757 52.48331,0.723441 35.57202,0.26487 9.62194,0.0293 v 0"
         style="fill:none;stroke:#e24a33;stroke-width:5;stroke-linecap:square;stroke-linejoin:round;stroke-miterlimit:10;stroke-dasharray:none;stroke-opacity:1"
         id="path54565" /></g></g><g
     id="g54567"
     transform="matrix(1.3333333,0,0,-1.3333333,0,686.39998)"><g
       id="g54569"
       clip-path="url(#clipPath54573)"><path
         d="m 129.08655,103.11003 53.6496,2.46508 26.53323,0.97485 22.74277,0.61602 22.15962,0.37158 25.65851,0.43219 8.74722,0.38528 6.7062,0.50503 5.83148,0.65603 5.24833,0.81522 4.66518,0.94185 4.37361,1.09762 4.37361,1.329 4.08204,1.46568 4.08203,1.69376 4.08204,1.92582 4.37361,2.31689 4.37361,2.56446 4.95675,3.17183 5.83148,4.01757 8.74722,6.34646 9.62194,6.91113 5.83148,3.9071 5.24833,3.24173 5.24833,2.96433 6.12306,3.1749 8.16406,4.2201 2.91574,1.76605 2.3326,1.68131 1.74944,1.52477 1.45787,1.53699 1.45787,1.89765 1.16629,1.89861 1.1663,2.40022 0.87472,2.27792 0.87472,2.87665 0.87473,3.76207 0.87472,5.14889 0.58315,4.64503 0.58314,6.18195 0.58315,8.64178 0.58315,12.94638 0.58315,21.5517 0.29157,17.22498 0.29158,25.81474 0.29157,42.96907 0.29157,85.73997 0.14579,85.48096 0.14579,-85.48096 0.29157,-85.73997 0.29158,-42.96907 0.58314,-43.03972 0.58315,-21.5517 0.58315,-12.94638 0.58315,-8.64178 0.58315,-6.18195 0.87472,-6.56092 0.87472,-4.61017 0.87472,-3.42493 0.87472,-2.65211 1.1663,-2.73811 1.16629,-2.12519 1.1663,-1.71001 1.45787,-1.73616 1.74944,-1.68453 2.04102,-1.60701 2.33259,-1.541 3.20732,-1.82652 5.5399,-2.83408 7.58092,-3.91828 5.24833,-2.97919 4.95676,-3.06901 5.53991,-3.70516 6.7062,-4.77138 16.03656,-11.52851 5.24834,-3.44343 4.66518,-2.80954 4.37361,-2.38483 4.37361,-2.12528 4.08203,-1.74338 4.08204,-1.51389 4.37361,-1.37768 4.37361,-1.14217 4.66518,-0.98397 4.95676,-0.81417 5.5399,-0.67448 6.12305,-0.51738 7.28935,-0.38994 9.62194,-0.28171 18.07759,-0.25774 25.07536,-0.42217 21.86804,-0.60245 25.07536,-0.92039 30.90684,-1.36991 23.61749,-1.13089 v 0"
         style="fill:none;stroke:#348abd;stroke-width:5;stroke-linecap:square;stroke-linejoin:round;stroke-miterlimit:10;stroke-dasharray:none;stroke-opacity:1"
         id="path54575" /></g></g><g
     id="g54577"
     transform="matrix(1.3333333,0,0,-1.3333333,0,686.39998)"><g
       id="g54579"
       clip-path="url(#clipPath54583)"><path
         d="m 129.08655,103.25008 73.76821,5.27791 32.07313,2.06759 9.91352,0.88998 8.16407,0.95124 6.99777,1.02992 6.41463,1.15679 6.12305,1.32011 6.12305,1.54713 6.12306,1.7787 6.41462,2.10088 6.99778,2.53215 9.03879,3.52637 15.45342,6.05212 6.12305,2.13638 5.24833,1.60123 4.66519,1.19829 4.37361,0.90116 4.37361,0.66551 4.08203,0.39725 4.08204,0.17719 4.08203,-0.0397 4.37361,-0.27134 4.66518,-0.52586 4.95676,-0.78399 6.12305,-1.20031 16.03657,-3.27503 4.08204,-0.53842 3.20731,-0.20976 2.62417,0.0402 2.04101,0.22578 1.74945,0.39249 1.45787,0.53257 1.16629,0.62247 1.1663,0.88057 0.87472,0.9097 0.87472,1.2314 0.87472,1.72923 0.58315,1.58474 0.58315,2.12966 0.58315,2.99946 0.58315,4.51943 0.58314,7.55806 0.29158,6.05899 0.29157,9.10214 0.29158,15.19876 0.29157,30.49001 0.29157,92.1694 0.14579,187.50061 0.14579,-187.50061 0.29157,-92.1694 0.29158,-30.49001 0.29157,-15.19876 0.58315,-15.16113 0.58314,-7.55806 0.58315,-4.51943 0.58315,-2.99946 0.58315,-2.12966 0.87472,-2.23245 0.87472,-1.53643 0.87472,-1.10941 1.1663,-1.05609 1.1663,-0.73885 1.45787,-0.63128 1.74944,-0.47199 2.04102,-0.28851 2.33259,-0.0961 2.91574,0.1189 3.49889,0.38095 4.3736,0.71412 6.12306,1.24464 13.12083,2.72468 5.24833,0.83616 4.66518,0.52586 4.37361,0.27134 4.08203,0.0397 4.08204,-0.17719 4.08203,-0.39725 4.08204,-0.61363 4.37361,-0.886 4.66518,-1.18383 4.95676,-1.49312 5.53991,-1.90081 6.99777,-2.64517 24.78379,-9.58678 6.7062,-2.2235 6.12305,-1.80049 6.12305,-1.56919 6.12306,-1.3412 6.41462,-1.17684 6.99778,-1.04863 7.58092,-0.90691 9.03879,-0.84703 11.66296,-0.85393 25.36693,-1.55801 24.20064,-1.61237 32.65628,-2.44226 13.99555,-1.04376 v 0"
         style="fill:none;stroke:#988ed5;stroke-width:5;stroke-linecap:square;stroke-linejoin:round;stroke-miterlimit:10;stroke-dasharray:none;stroke-opacity:1"
         id="path54585" /></g></g><g
     id="g54587"
     transform="matrix(1.3333333,0,0,-1.3333333,0,686.39998)"><g
       id="g54589"
       clip-path="url(#clipPath54593)"><path
         d="m 129.08655,104.73361 10.20509,1.5479 9.91351,1.7309 9.62194,1.90399 9.62194,2.12604 10.20509,2.48669 11.07981,2.93702 13.70397,3.87864 26.53323,7.56424 9.33037,2.38912 7.8725,1.78974 6.99777,1.36797 6.41463,1.03663 6.12305,0.77175 5.83148,0.52039 5.83148,0.29883 5.83148,0.0694 5.83148,-0.16354 5.83148,-0.39523 5.83148,-0.62098 6.12305,-0.88328 6.41463,-1.16039 6.7062,-1.44218 7.58092,-1.86728 8.74722,-2.3911 13.12083,-3.84578 15.74499,-4.56772 8.74722,-2.30393 7.28935,-1.70076 6.7062,-1.33802 6.12305,-0.99148 5.5399,-0.66691 4.66519,-0.34332 3.79046,-0.0647 2.62416,0.1444 2.04102,0.31432 1.45787,0.43656 1.1663,0.60502 0.87472,0.75121 0.58315,0.77246 0.58315,1.18759 0.58314,2.04412 0.29158,1.69052 0.29157,2.62895 0.29158,4.6442 0.29157,10.40699 0.29157,44.37766 0.14579,317.179 0.14579,-317.179 0.29157,-44.37766 0.29158,-10.40699 0.29157,-4.6442 0.58315,-4.31947 0.58314,-2.04412 0.58315,-1.18759 0.58315,-0.77246 0.87472,-0.75121 1.1663,-0.60502 1.45787,-0.43656 1.74944,-0.28335 2.62417,-0.16898 3.49888,0.0334 4.37362,0.28665 4.95675,0.54978 5.53991,0.83321 6.12305,1.14302 6.7062,1.47616 7.58092,1.89803 9.33037,2.58086 15.74499,4.64054 12.82926,3.67593 8.45564,2.1947 7.28935,1.66628 6.7062,1.30329 6.12305,0.96926 5.83148,0.70856 5.83148,0.48651 5.83148,0.25662 5.83148,0.0236 5.83148,-0.20774 5.83148,-0.43298 6.12305,-0.68564 6.41463,-0.9543 6.7062,-1.23065 7.28935,-1.5717 8.16407,-1.99648 9.91351,-2.66894 14.87027,-4.26803 19.82703,-5.65642 11.66296,-3.08514 10.20509,-2.47363 9.91351,-2.1733 9.62194,-1.88373 9.91352,-1.71061 9.33036,-1.40613 v 0"
         style="fill:none;stroke:#777777;stroke-width:5;stroke-linecap:square;stroke-linejoin:round;stroke-miterlimit:10;stroke-dasharray:none;stroke-opacity:1"
         id="path54595" /></g></g><g
     id="g54597"
     transform="matrix(1.3333333,0,0,-1.3333333,0,686.39998)"><path
       d="M 117.42942,91.040192 V 507.6"
       style="fill:none;stroke:#d3d3d3;stroke-width:3;stroke-linecap:square;stroke-linejoin:miter;stroke-miterlimit:10;stroke-dasharray:none;stroke-opacity:1"
       id="path54599" /><path
       d="M 723.6,91.040192 V 507.6"
       style="fill:none;stroke:#d3d3d3;stroke-width:3;stroke-linecap:square;stroke-linejoin:miter;stroke-miterlimit:10;stroke-dasharray:none;stroke-opacity:1"
       id="path54601" /><path
       d="M 117.42942,91.040192 H 723.6"
       style="fill:none;stroke:#d3d3d3;stroke-width:3;stroke-linecap:square;stroke-linejoin:miter;stroke-miterlimit:10;stroke-dasharray:none;stroke-opacity:1"
       id="path54603" /><path
       d="M 117.42942,507.6 H 723.6"
       style="fill:none;stroke:#d3d3d3;stroke-width:3;stroke-linecap:square;stroke-linejoin:miter;stroke-miterlimit:10;stroke-dasharray:none;stroke-opacity:1"
       id="path54605" /><path
       d="M 159.86136,257.66411 H 402.32959 V 457.61282 H 159.86136 Z"
       style="fill:#ffffff;fill-opacity:1;fill-rule:nonzero;stroke:none"
       id="path54607" /><text
       xml:space="preserve"
       transform="matrix(1,0,0,-1,241.19278,222.2818)"
       style="font-style:italic;font-variant:normal;font-weight:normal;font-size:41.8431px;font-family:CMMI12;-inkscape-font-specification:CMMI12;writing-mode:lr-tb;fill:#555555;fill-opacity:1;fill-rule:nonzero;stroke:none"
       id="text54611"><tspan
         x="0 26.983768"
         y="0"
         sodipodi:role="line"
         id="tspan54609">ω/</tspan></text><text
       xml:space="preserve"
       transform="matrix(1,0,0,-1,288.69195,222.2818)"
       style="font-variant:normal;font-weight:normal;font-size:41.8431px;font-family:CMR17;-inkscape-font-specification:CMR17;writing-mode:lr-tb;fill:#555555;fill-opacity:1;fill-rule:nonzero;stroke:none"
       id="text54615"><tspan
         x="0"
         y="0"
         id="tspan54613">∆</tspan></text><text
       xml:space="preserve"
       transform="matrix(0,1,1,0,145.43692,302.7696)"
       style="font-style:italic;font-variant:normal;font-weight:normal;font-size:41.8431px;font-family:CMMI12;-inkscape-font-specification:CMMI12;writing-mode:lr-tb;fill:#555555;fill-opacity:1;fill-rule:nonzero;stroke:none"
       id="text54619"><tspan
         x="0"
         y="0"
         id="tspan54617">A</tspan></text><text
       xml:space="preserve"
       transform="matrix(0,1,1,0,151.71336,333.48331)"
       style="font-style:italic;font-variant:normal;font-weight:normal;font-size:29.29px;font-family:CMMI12;-inkscape-font-specification:CMMI12;writing-mode:lr-tb;fill:#555555;fill-opacity:1;fill-rule:nonzero;stroke:none"
       id="text54623"><tspan
         x="0"
         y="0"
         id="tspan54621">d</tspan></text><text
       xml:space="preserve"
       transform="matrix(0,1,1,0,145.4356,355.85779)"
       style="font-variant:normal;font-weight:normal;font-size:41.8431px;font-family:CMR17;-inkscape-font-specification:CMR17;writing-mode:lr-tb;fill:#555555;fill-opacity:1;fill-rule:nonzero;stroke:none"
       id="text54627"><tspan
         x="0"
         y="0"
         id="tspan54625">(</tspan></text><text
       xml:space="preserve"
       transform="matrix(0,1,1,0,145.43692,370.67572)"
       style="font-style:italic;font-variant:normal;font-weight:normal;font-size:41.8431px;font-family:CMMI12;-inkscape-font-specification:CMMI12;writing-mode:lr-tb;fill:#555555;fill-opacity:1;fill-rule:nonzero;stroke:none"
       id="text54631"><tspan
         x="0"
         y="0"
         id="tspan54629">ω</tspan></text><text
       xml:space="preserve"
       transform="matrix(0,1,1,0,145.4356,397.68942)"
       style="font-variant:normal;font-weight:normal;font-size:41.8431px;font-family:CMR17;-inkscape-font-specification:CMR17;writing-mode:lr-tb;fill:#555555;fill-opacity:1;fill-rule:nonzero;stroke:none"
       id="text54635"><tspan
         x="0"
         y="0"
         id="tspan54633">)</tspan></text></g><g
     id="g54637"
     transform="matrix(1.3333333,0,0,-1.3333333,0,686.39998)"><g
       id="g54639"
       clip-path="url(#clipPath54643)"><path
         d="m 164.52421,261.50956 15.39511,0.10953 3.03237,0.23277 1.9827,0.3658 1.51618,0.51167 1.1663,0.61833 1.04967,0.80213 0.93303,0.98048 0.93304,1.31357 0.93304,1.7444 0.93303,2.2943 0.93304,2.98582 0.93304,3.84092 0.93303,4.8783 0.93304,6.10943 0.93304,7.53346 1.04966,10.39179 1.04967,12.58867 1.16629,16.61306 1.39956,23.23031 4.54855,78.87204 0.81641,9.02111 0.58315,4.38469 0.46652,2.09577 0.34988,0.68604 0.23326,0.0184 0.23326,-0.34072 0.34989,-1.19392 0.46652,-2.87467 0.58315,-5.62962 0.69977,-9.59176 0.81641,-14.64574 1.1663,-25.743 3.49888,-81.17638 1.04967,-17.75603 0.93304,-11.92054 0.8164,-7.61288 0.69978,-4.70956 0.69978,-3.33337 0.69978,-2.25515 0.69977,-1.45538 0.69978,-0.89393 0.69978,-0.5213 0.81641,-0.3204 1.16629,-0.18238 2.21596,-0.0631 25.07536,-0.003 84.20656,0.10037 1.04967,0.21717 0.8164,0.39348 0.58315,0.49802 0.58315,0.77528 0.58315,1.16428 0.58315,1.68913 0.58314,2.37055 0.58315,3.22216 0.69978,5.23352 0.69978,6.98162 0.8164,10.62562 0.93304,15.56113 1.04967,21.53711 1.63281,39.05037 1.86607,43.7624 1.04967,19.41014 0.81641,10.89514 0.58314,5.18213 0.46652,2.50828 0.34989,0.92 0.23326,0.16048 0.23326,-0.19558 0.23326,-0.54417 0.34989,-1.44933 0.46652,-3.05376 0.58314,-5.46414 0.81641,-10.27266 1.04967,-16.58009 1.86607,-34.08975 2.21596,-39.31398 1.39956,-20.88948 1.16629,-14.40441 1.1663,-11.67984 1.04967,-8.37116 1.04966,-6.59905 0.93304,-4.60108 0.93304,-3.6107 0.93303,-2.79843 0.93304,-2.14443 0.93304,-1.6264 0.93303,-1.22192 1.04967,-1.00592 1.16629,-0.78034 1.28293,-0.57058 1.51618,-0.41811 1.98271,-0.29719 2.91574,-0.18392 5.59822,-0.0813 9.33036,-0.0103 v 0"
         style="fill:none;stroke:#8eba42;stroke-width:4;stroke-linecap:square;stroke-linejoin:round;stroke-miterlimit:10;stroke-dasharray:none;stroke-opacity:1"
         id="path54645" /></g></g><path
     d="M 213.14848,342.84784 V 76.249572"
     style="fill:none;stroke:#d3d3d3;stroke-width:4;stroke-linecap:square;stroke-linejoin:miter;stroke-miterlimit:10;stroke-dasharray:none;stroke-opacity:1"
     id="path54649" /><path
     d="M 536.43948,342.84784 V 76.249572"
     style="fill:none;stroke:#d3d3d3;stroke-width:4;stroke-linecap:square;stroke-linejoin:miter;stroke-miterlimit:10;stroke-dasharray:none;stroke-opacity:1"
     id="path54651" /><path
     d="m 213.14848,342.84784 h 323.291"
     style="fill:none;stroke:#d3d3d3;stroke-width:4;stroke-linecap:square;stroke-linejoin:miter;stroke-miterlimit:10;stroke-dasharray:none;stroke-opacity:1"
     id="path54653" /><path
     d="m 213.14848,76.249572 h 323.291"
     style="fill:none;stroke:#d3d3d3;stroke-width:4;stroke-linecap:square;stroke-linejoin:miter;stroke-miterlimit:10;stroke-dasharray:none;stroke-opacity:1"
     id="path54655" /></svg>
