<?xml version="1.0" encoding="UTF-8" standalone="no"?>
<!-- Created with Inkscape (http://www.inkscape.org/) -->

<svg
   width="64.211761mm"
   height="64.211761mm"
   viewBox="0 0 64.211761 64.211761"
   version="1.1"
   id="svg5"
   inkscape:version="1.2 (dc2aedaf03, 2022-05-15)"
   sodipodi:docname="logo.svg"
   inkscape:export-filename="logo.png"
   inkscape:export-xdpi="96"
   inkscape:export-ydpi="96"
   xmlns:inkscape="http://www.inkscape.org/namespaces/inkscape"
   xmlns:sodipodi="http://sodipodi.sourceforge.net/DTD/sodipodi-0.dtd"
   xmlns="http://www.w3.org/2000/svg"
   xmlns:svg="http://www.w3.org/2000/svg"
   xmlns:ns1="http://www.iki.fi/pav/software/textext/">
  <sodipodi:namedview
     id="namedview7"
     pagecolor="#ffffff"
     bordercolor="#000000"
     borderopacity="0.25"
     inkscape:showpageshadow="2"
     inkscape:pageopacity="0.0"
     inkscape:pagecheckerboard="0"
     inkscape:deskcolor="#d1d1d1"
     inkscape:document-units="mm"
     showgrid="false"
     inkscape:zoom="1"
     inkscape:cx="98.5"
     inkscape:cy="147"
     inkscape:window-width="1916"
     inkscape:window-height="1052"
     inkscape:window-x="0"
     inkscape:window-y="24"
     inkscape:window-maximized="1"
     inkscape:current-layer="layer1" />
  <defs
     id="defs2">
    <inkscape:path-effect
       effect="spiro"
       id="path-effect972"
       is_visible="true"
       lpeversion="1" />
    <inkscape:path-effect
       effect="spiro"
       id="path-effect968"
       is_visible="true"
       lpeversion="1" />
    <inkscape:path-effect
       effect="spiro"
       id="path-effect964"
       is_visible="true"
       lpeversion="1" />
  </defs>
  <g
     inkscape:label="Layer 1"
     inkscape:groupmode="layer"
     id="layer1"
     transform="translate(-52.460937,-40.961174)">
    <circle
       style="fill:#d0d060;fill-opacity:1;stroke:none;stroke-width:1;stroke-opacity:1"
       id="path184"
       cx="84.566818"
       cy="73.067055"
       r="32.105881" />
    <g
       transform="matrix(8.4793762,0,0,8.4793762,62.99936,48.546143)"
       ns1:version="1.6.0"
       ns1:texconverter="xelatex"
       ns1:pdfconverter="inkscape"
       ns1:text="{\\bf a}"
       ns1:preamble="/home/kirito/.config/textext/beamer_preamble.tex"
       ns1:scale="15.716146837665367"
       ns1:alignment="middle center"
       ns1:stroke-to-path="0"
       ns1:inkscapeversion="1.2"
       ns1:jacobian_sqrt="5.54432"
       id="g1047">
      <defs
         id="id-832ee13e-f8c1-47d7-9e8d-2a2b1724bd08">
        <g
           id="id-23374c70-3369-4afc-8d0b-a64e9a524a02">
          <g
             id="id-b88f09d1-def9-4b2a-bd2e-b0c71c58f909">
            <path
               d="M 5.40625,3.484375 H 1.21875 V -10.46875 h 4.1875 z m -3.625,-13.4375 V 2.96875 H 4.875 V -9.953125 Z M 3.234375,-4.5 c 0.394531,0 0.675781,0.109375 0.84375,0.328125 0.175781,0.210937 0.265625,0.484375 0.265625,0.828125 0,0.34375 -0.078125,0.617188 -0.234375,0.8125 -0.148437,0.1875 -0.386719,0.308594 -0.71875,0.359375 v 0.453125 c 0,0.074219 -0.027344,0.132812 -0.078125,0.171875 -0.054688,0.042969 -0.109375,0.0625 -0.171875,0.0625 -0.0625,0 -0.121094,-0.019531 -0.171875,-0.0625 C 2.914062,-1.585938 2.890625,-1.644531 2.890625,-1.71875 V -2.5625 c 0.351563,-0.019531 0.59375,-0.082031 0.71875,-0.1875 0.125,-0.113281 0.1875,-0.304688 0.1875,-0.578125 0,-0.21875 -0.046875,-0.382813 -0.140625,-0.5 -0.085938,-0.125 -0.242188,-0.1875 -0.46875,-0.1875 -0.1875,0 -0.359375,0.039063 -0.515625,0.109375 -0.054687,0.023438 -0.09375,0.03125 -0.125,0.03125 -0.074219,0 -0.136719,-0.019531 -0.1875,-0.0625 -0.042969,-0.039062 -0.0625,-0.097656 -0.0625,-0.171875 0,-0.125 0.097656,-0.21875 0.296875,-0.28125 C 2.789062,-4.460938 3.003906,-4.5 3.234375,-4.5 Z m -0.09375,3.296875 c 0.101563,0 0.1875,0.039063 0.25,0.109375 0.0625,0.0625 0.09375,0.148438 0.09375,0.25 0,0.105469 -0.03125,0.195312 -0.09375,0.265625 -0.0625,0.0625 -0.148437,0.09375 -0.25,0.09375 -0.105469,0 -0.1875,-0.03125 -0.25,-0.09375 -0.0625,-0.070313 -0.09375,-0.160156 -0.09375,-0.265625 0,-0.101562 0.03125,-0.1875 0.09375,-0.25 0.0625,-0.070312 0.144531,-0.109375 0.25,-0.109375 z m 0,0"
               id="id-a6cf4c17-5ce0-4e17-b29d-a0a7a01f4ee9" />
          </g>
          <g
             id="id-118c7052-8916-4896-bd3e-5ad8608551c9">
            <path
               d="m 4.921875,-1.640625 c 0,0.199219 0.019531,0.34375 0.0625,0.4375 C 5.035156,-1.109375 5.125,-1.039062 5.25,-1 L 4.890625,0.15625 C 4.554688,0.125 4.28125,0.0507812 4.0625,-0.0625 3.84375,-0.175781 3.664062,-0.351562 3.53125,-0.59375 3.195312,-0.0820312 2.664062,0.171875 1.9375,0.171875 c -0.53125,0 -0.953125,-0.1523438 -1.265625,-0.453125 -0.3125,-0.3125 -0.46875,-0.710938 -0.46875,-1.203125 0,-0.582031 0.210937,-1.03125 0.640625,-1.34375 0.4375,-0.3125 1.0625,-0.46875 1.875,-0.46875 H 3.1875 v -0.1875 C 3.1875,-3.765625 3.125,-3.957031 3,-4.0625 2.882812,-4.164062 2.671875,-4.21875 2.359375,-4.21875 c -0.167969,0 -0.375,0.027344 -0.625,0.078125 -0.25,0.054687 -0.507813,0.121094 -0.765625,0.203125 L 0.578125,-5.078125 c 0.320313,-0.132813 0.664063,-0.238281 1.03125,-0.3125 C 1.972656,-5.460938 2.3125,-5.5 2.625,-5.5 c 0.789062,0 1.367188,0.164062 1.734375,0.484375 0.375,0.3125 0.5625,0.796875 0.5625,1.453125 z M 2.46875,-1.0625 c 0.144531,0 0.28125,-0.035156 0.40625,-0.109375 0.125,-0.082031 0.226562,-0.1875 0.3125,-0.3125 v -0.875 H 2.875 c -0.3125,0 -0.546875,0.0625 -0.703125,0.1875 -0.15625,0.117187 -0.234375,0.289063 -0.234375,0.515625 0,0.179688 0.046875,0.324219 0.140625,0.4375 0.09375,0.105469 0.222656,0.15625 0.390625,0.15625 z m 0,0"
               id="id-1aa84c5f-2d98-42e6-adce-a782240acd75" />
          </g>
        </g>
      </defs>
      <g
         fill="#000000"
         fill-opacity="1"
         id="id-0bf14550-a2dc-4662-9444-ac8bca0012d1"
         transform="translate(-148.915,-129.265)">
        <g
           transform="translate(148.712,134.765)"
           id="g1157">
          <path
             d="m 4.921875,-1.640625 c 0,0.199219 0.019531,0.34375 0.0625,0.4375 C 5.035156,-1.109375 5.125,-1.039062 5.25,-1 L 4.890625,0.15625 C 4.554688,0.125 4.28125,0.0507812 4.0625,-0.0625 3.84375,-0.175781 3.664062,-0.351562 3.53125,-0.59375 3.195312,-0.0820312 2.664062,0.171875 1.9375,0.171875 c -0.53125,0 -0.953125,-0.1523438 -1.265625,-0.453125 -0.3125,-0.3125 -0.46875,-0.710938 -0.46875,-1.203125 0,-0.582031 0.210937,-1.03125 0.640625,-1.34375 0.4375,-0.3125 1.0625,-0.46875 1.875,-0.46875 H 3.1875 v -0.1875 C 3.1875,-3.765625 3.125,-3.957031 3,-4.0625 2.882812,-4.164062 2.671875,-4.21875 2.359375,-4.21875 c -0.167969,0 -0.375,0.027344 -0.625,0.078125 -0.25,0.054687 -0.507813,0.121094 -0.765625,0.203125 L 0.578125,-5.078125 c 0.320313,-0.132813 0.664063,-0.238281 1.03125,-0.3125 C 1.972656,-5.460938 2.3125,-5.5 2.625,-5.5 c 0.789062,0 1.367188,0.164062 1.734375,0.484375 0.375,0.3125 0.5625,0.796875 0.5625,1.453125 z M 2.46875,-1.0625 c 0.144531,0 0.28125,-0.035156 0.40625,-0.109375 0.125,-0.082031 0.226562,-0.1875 0.3125,-0.3125 v -0.875 H 2.875 c -0.3125,0 -0.546875,0.0625 -0.703125,0.1875 -0.15625,0.117187 -0.234375,0.289063 -0.234375,0.515625 0,0.179688 0.046875,0.324219 0.140625,0.4375 0.09375,0.105469 0.222656,0.15625 0.390625,0.15625 z m 0,0"
             id="id-4c02d249-2465-4c5a-86fb-e3b8d2a8f602" />
        </g>
      </g>
    </g>
  </g>
</svg>
