<?xml version="1.0" encoding="UTF-8" standalone="no"?>
<!-- Created with matplotlib (https://matplotlib.org/) -->

<svg
   height="301.57642pt"
   version="1.1"
   viewBox="0 0 537.65143 301.57642"
   width="537.65143pt"
   id="svg912"
   sodipodi:docname="work.svg"
   inkscape:version="1.1.2 (0a00cf5339, 2022-02-04, custom)"
   xmlns:inkscape="http://www.inkscape.org/namespaces/inkscape"
   xmlns:sodipodi="http://sodipodi.sourceforge.net/DTD/sodipodi-0.dtd"
   xmlns="http://www.w3.org/2000/svg"
   xmlns:svg="http://www.w3.org/2000/svg"
   xmlns:rdf="http://www.w3.org/1999/02/22-rdf-syntax-ns#"
   xmlns:cc="http://creativecommons.org/ns#"
   xmlns:dc="http://purl.org/dc/elements/1.1/">
  <sodipodi:namedview
     id="namedview914"
     pagecolor="#505050"
     bordercolor="#eeeeee"
     borderopacity="1"
     inkscape:pageshadow="0"
     inkscape:pageopacity="0"
     inkscape:pagecheckerboard="0"
     inkscape:document-units="pt"
     showgrid="false"
     inkscape:zoom="0.4906507"
     inkscape:cx="-177.31555"
     inkscape:cy="10.190549"
     inkscape:window-width="1916"
     inkscape:window-height="1052"
     inkscape:window-x="0"
     inkscape:window-y="24"
     inkscape:window-maximized="1"
     inkscape:current-layer="svg912"
     inkscape:snap-bbox="true"
     inkscape:snap-bbox-midpoints="true"
     inkscape:snap-smooth-nodes="true"
     inkscape:snap-object-midpoints="true"
     inkscape:snap-global="true" />
  <metadata
     id="metadata893">
    <rdf:RDF>
      <cc:Work>
        <dc:type
           rdf:resource="http://purl.org/dc/dcmitype/StillImage" />
        <dc:date>2022-04-10T11:29:15.773098</dc:date>
        <dc:format>image/svg+xml</dc:format>
        <dc:creator>
          <cc:Agent>
            <dc:title>Matplotlib v3.3.4, https://matplotlib.org/</dc:title>
          </cc:Agent>
        </dc:creator>
      </cc:Work>
    </rdf:RDF>
  </metadata>
  <defs
     id="defs897">
    <inkscape:path-effect
       effect="spiro"
       id="path-effect6537"
       is_visible="true"
       lpeversion="1" />
    <inkscape:path-effect
       effect="spiro"
       id="path-effect4235"
       is_visible="true"
       lpeversion="1" />
    <inkscape:path-effect
       effect="spiro"
       id="path-effect3843"
       is_visible="true"
       lpeversion="1" />
    <inkscape:path-effect
       effect="spiro"
       id="path-effect3726"
       is_visible="true"
       lpeversion="1" />
    <style
       type="text/css"
       id="style895">*{stroke-linecap:butt;stroke-linejoin:round;}</style>
    <inkscape:path-effect
       effect="spiro"
       id="path-effect2856"
       is_visible="true"
       lpeversion="1" />
    <inkscape:path-effect
       effect="spiro"
       id="path-effect2707"
       is_visible="true"
       lpeversion="1" />
    <marker
       style="overflow:visible"
       id="Arrow2Send"
       refX="0"
       refY="0"
       orient="auto"
       inkscape:stockid="Arrow2Send"
       inkscape:isstock="true">
      <path
         transform="matrix(-0.3,0,0,-0.3,0.69,0)"
         d="M 8.7185878,4.0337352 -2.2072895,0.01601326 8.7185884,-4.0017078 c -1.7454984,2.3720609 -1.7354408,5.6174519 -6e-7,8.035443 z"
         style="fill:context-stroke;fill-rule:evenodd;stroke:context-stroke;stroke-width:0.625;stroke-linejoin:round"
         id="path1875" />
    </marker>
    <marker
       style="overflow:visible"
       id="Arrow2Mend"
       refX="0"
       refY="0"
       orient="auto"
       inkscape:stockid="Arrow2Mend"
       inkscape:isstock="true">
      <path
         transform="scale(-0.6)"
         d="M 8.7185878,4.0337352 -2.2072895,0.01601326 8.7185884,-4.0017078 c -1.7454984,2.3720609 -1.7354408,5.6174519 -6e-7,8.035443 z"
         style="fill:context-stroke;fill-rule:evenodd;stroke:context-stroke;stroke-width:0.625;stroke-linejoin:round"
         id="path1869" />
    </marker>
    <inkscape:path-effect
       effect="spiro"
       id="path-effect1477"
       is_visible="true"
       lpeversion="1" />
    <inkscape:path-effect
       effect="spiro"
       id="path-effect1391"
       is_visible="true"
       lpeversion="1" />
    <inkscape:path-effect
       effect="spiro"
       id="path-effect1391-3"
       is_visible="true"
       lpeversion="1" />
    <marker
       style="overflow:visible"
       id="Arrow2Send-7"
       refX="0"
       refY="0"
       orient="auto"
       inkscape:stockid="Arrow2Send"
       inkscape:isstock="true">
      <path
         transform="matrix(-0.3,0,0,-0.3,0.69,0)"
         d="M 8.7185878,4.0337352 -2.2072895,0.01601326 8.7185884,-4.0017078 c -1.7454984,2.3720609 -1.7354408,5.6174519 -6e-7,8.035443 z"
         style="fill:context-stroke;fill-rule:evenodd;stroke:context-stroke;stroke-width:0.625;stroke-linejoin:round"
         id="path1875-5" />
    </marker>
    <inkscape:path-effect
       effect="spiro"
       id="path-effect1391-35"
       is_visible="true"
       lpeversion="1" />
    <marker
       style="overflow:visible"
       id="Arrow2Send-2"
       refX="0"
       refY="0"
       orient="auto"
       inkscape:stockid="Arrow2Send"
       inkscape:isstock="true">
      <path
         transform="matrix(-0.3,0,0,-0.3,0.69,0)"
         d="M 8.7185878,4.0337352 -2.2072895,0.01601326 8.7185884,-4.0017078 c -1.7454984,2.3720609 -1.7354408,5.6174519 -6e-7,8.035443 z"
         style="fill:context-stroke;fill-rule:evenodd;stroke:context-stroke;stroke-width:0.625;stroke-linejoin:round"
         id="path1875-9" />
    </marker>
    <inkscape:path-effect
       effect="spiro"
       id="path-effect1391-1"
       is_visible="true"
       lpeversion="1" />
    <marker
       style="overflow:visible"
       id="Arrow2Send-7-2"
       refX="0"
       refY="0"
       orient="auto"
       inkscape:stockid="Arrow2Send"
       inkscape:isstock="true">
      <path
         transform="matrix(-0.3,0,0,-0.3,0.69,0)"
         d="M 8.7185878,4.0337352 -2.2072895,0.01601326 8.7185884,-4.0017078 c -1.7454984,2.3720609 -1.7354408,5.6174519 -6e-7,8.035443 z"
         style="fill:context-stroke;fill-rule:evenodd;stroke:context-stroke;stroke-width:0.625;stroke-linejoin:round"
         id="path1875-5-7" />
    </marker>
    <inkscape:path-effect
       effect="spiro"
       id="path-effect1391-35-0"
       is_visible="true"
       lpeversion="1" />
    <inkscape:path-effect
       effect="spiro"
       id="path-effect2707-2"
       is_visible="true"
       lpeversion="1" />
    <g
       id="id-d3df6bca-91ee-4cd3-8ae2-342f91ac3b69">
      <symbol
         overflow="visible"
         id="id-fb203237-3f1e-4cc5-bc39-cc5dbfef6621">
        <path
           style="stroke:none;stroke-width:0"
           d="M 5.40625,-10.46875 H 1.21875 V 3.484375 h 4.1875 z M 4.875,-9.953125 V 2.96875 H 1.78125 V -9.953125 Z M 3.234375,-4.5 c -0.390625,0 -0.9375,0.125 -0.9375,0.390625 0,0.125 0.09375,0.234375 0.25,0.234375 0.03125,0 0.078125,-0.015625 0.125,-0.03125 0.171875,-0.078125 0.3125,-0.109375 0.515625,-0.109375 0.5,0 0.609375,0.296875 0.609375,0.6875 0,0.53125 -0.1875,0.71875 -0.90625,0.765625 v 0.84375 c 0,0.140625 0.125,0.234375 0.25,0.234375 0.125,0 0.25,-0.09375 0.25,-0.234375 V -2.171875 C 4.0625,-2.265625 4.34375,-2.65625 4.34375,-3.34375 4.34375,-3.953125 4.09375,-4.5 3.234375,-4.5 Z m -0.09375,3.296875 c -0.203125,0 -0.34375,0.15625 -0.34375,0.359375 0,0.203125 0.140625,0.359375 0.34375,0.359375 0.203125,0 0.34375,-0.15625 0.34375,-0.359375 0,-0.203125 -0.140625,-0.359375 -0.34375,-0.359375 z m 0,0"
           id="id-ab92b216-c705-4611-9b40-92ad1e4e6fb3" />
      </symbol>
      <symbol
         overflow="visible"
         id="id-f0874e87-bc45-49d4-a335-583aaf6ff034">
        <path
           style="stroke:none;stroke-width:0"
           d="m 1.359375,-7.78125 c -0.375,0 -0.625,0.28125 -0.625,0.640625 0,0.34375 0.25,0.609375 0.625,0.609375 0.390625,0 0.65625,-0.265625 0.65625,-0.609375 C 2.015625,-7.5 1.75,-7.78125 1.359375,-7.78125 Z M 1.828125,-5.25 H 0.921875 V 0 h 0.90625 z m 0,0"
           id="id-58f661a9-0fe2-49c8-8299-02fe2c02f492" />
      </symbol>
      <symbol
         overflow="visible"
         id="id-c1e5b780-8a3c-4404-8ea5-cbd01a77481c">
        <path
           style="stroke:none;stroke-width:0"
           d="M 6.1875,-5.375 C 5.484375,-5.375 5,-5 4.625,-4.421875 4.421875,-5.03125 3.953125,-5.375 3.296875,-5.375 c -0.6875,0 -1.15625,0.359375 -1.515625,0.890625 L 1.703125,-5.25 H 0.921875 V 0 h 0.90625 V -3.734375 C 2.1875,-4.28125 2.5,-4.65625 3.078125,-4.65625 c 0.390625,0 0.734375,0.234375 0.734375,1.015625 V 0 h 0.90625 v -3.734375 c 0.359375,-0.546875 0.671875,-0.921875 1.25,-0.921875 0.390625,0 0.734375,0.234375 0.734375,1.015625 V 0 h 0.90625 V -3.765625 C 7.609375,-4.75 7.046875,-5.375 6.1875,-5.375 Z m 0,0"
           id="id-a0a33add-171f-417e-a922-36b42fbb80c7" />
      </symbol>
      <symbol
         overflow="visible"
         id="id-1ae80e13-0aea-47a8-b56f-fa19bfe8d41b">
        <path
           style="stroke:none;stroke-width:0"
           d="m 3.328125,-5.375 c -0.59375,0 -1.171875,0.296875 -1.546875,0.828125 L 1.703125,-5.25 h -0.78125 v 7.375 l 0.90625,-0.109375 v -2.5 c 0.34375,0.421875 0.8125,0.609375 1.375,0.609375 1.359375,0 2.078125,-1.15625 2.078125,-2.75 0,-1.65625 -0.5625,-2.75 -1.953125,-2.75 z m -0.34375,4.75 c -0.46875,0 -0.875,-0.234375 -1.15625,-0.640625 v -2.5625 c 0.28125,-0.421875 0.71875,-0.8125 1.265625,-0.8125 0.796875,0 1.1875,0.640625 1.1875,2.015625 0,1.375 -0.453125,2 -1.296875,2 z m 0,0"
           id="id-5755ef5e-0c53-4b4b-bd42-01a6c356540f" />
      </symbol>
      <symbol
         overflow="visible"
         id="id-325545df-49ba-49c9-a7ce-56ce984ace67">
        <path
           style="stroke:none;stroke-width:0"
           d="M 4.8125,-5.25 H 3.890625 v 3.75 c -0.3125,0.515625 -0.734375,0.90625 -1.3125,0.90625 -0.5625,0 -0.796875,-0.28125 -0.796875,-0.984375 V -5.25 H 0.859375 v 3.765625 c 0,1.03125 0.546875,1.609375 1.46875,1.609375 0.75,0 1.234375,-0.296875 1.625,-0.9375 L 4.03125,0 H 4.8125 Z m 0,0"
           id="id-07b898c9-7d19-411e-aef4-052d6a52fcd7" />
      </symbol>
      <symbol
         overflow="visible"
         id="id-bf5154a2-465b-403b-bf20-6597e52fec21">
        <path
           style="stroke:none;stroke-width:0"
           d="m 3.203125,-5.375 c -0.640625,0 -1.125,0.40625 -1.40625,1.1875 L 1.703125,-5.25 H 0.921875 V 0 h 0.90625 v -3 c 0.21875,-1 0.609375,-1.46875 1.265625,-1.46875 0.1875,0 0.296875,0.015625 0.453125,0.046875 L 3.71875,-5.3125 C 3.5625,-5.359375 3.375,-5.375 3.203125,-5.375 Z m 0,0"
           id="id-f41fe483-978e-454a-b0cd-56769336c59c" />
      </symbol>
      <symbol
         overflow="visible"
         id="id-4af1d7e2-e0b4-44d8-9499-9d8eb4f844ee">
        <path
           style="stroke:none;stroke-width:0"
           d="m 3.25,-0.84375 c -0.265625,0.140625 -0.46875,0.203125 -0.703125,0.203125 -0.453125,0 -0.625,-0.25 -0.625,-0.78125 v -3.125 h 1.15625 L 3.171875,-5.25 h -1.25 V -6.546875 L 1,-6.4375 V -5.25 H 0.09375 v 0.703125 H 1 V -1.375 c 0,0.96875 0.53125,1.5 1.421875,1.5 C 2.875,0.125 3.25,0 3.59375,-0.234375 Z m 0,0"
           id="id-b6121649-a848-445d-b6b3-f53247ee9c67" />
      </symbol>
      <symbol
         overflow="visible"
         id="id-3933f66a-c082-4c5d-89fd-f70d4cbc9d18">
        <path
           style="stroke:none;stroke-width:0"
           d="M 4.8125,-5.25 H 3.859375 l -1.375,4.578125 L 1.078125,-5.25 H 0.09375 L 1.859375,0 h 0.3125 C 1.875,0.8125 1.578125,1.21875 0.515625,1.40625 L 0.609375,2.125 C 2.0625,1.96875 2.6875,1.140625 3.046875,0.03125 Z m 0,0"
           id="id-9ee94e61-7efd-4a6a-b878-503b4035a8a9" />
      </symbol>
    </g>
    <g
       id="g3998">
      <symbol
         overflow="visible"
         id="symbol3968">
        <path
           style="stroke:none;stroke-width:0"
           d="M 5.40625,-10.46875 H 1.21875 V 3.484375 h 4.1875 z M 4.875,-9.953125 V 2.96875 H 1.78125 V -9.953125 Z M 3.234375,-4.5 c -0.390625,0 -0.9375,0.125 -0.9375,0.390625 0,0.125 0.09375,0.234375 0.25,0.234375 0.03125,0 0.078125,-0.015625 0.125,-0.03125 0.171875,-0.078125 0.3125,-0.109375 0.515625,-0.109375 0.5,0 0.609375,0.296875 0.609375,0.6875 0,0.53125 -0.1875,0.71875 -0.90625,0.765625 v 0.84375 c 0,0.140625 0.125,0.234375 0.25,0.234375 0.125,0 0.25,-0.09375 0.25,-0.234375 V -2.171875 C 4.0625,-2.265625 4.34375,-2.65625 4.34375,-3.34375 4.34375,-3.953125 4.09375,-4.5 3.234375,-4.5 Z m -0.09375,3.296875 c -0.203125,0 -0.34375,0.15625 -0.34375,0.359375 0,0.203125 0.140625,0.359375 0.34375,0.359375 0.203125,0 0.34375,-0.15625 0.34375,-0.359375 0,-0.203125 -0.140625,-0.359375 -0.34375,-0.359375 z m 0,0"
           id="path3966" />
      </symbol>
      <symbol
         overflow="visible"
         id="symbol3972">
        <path
           style="stroke:none;stroke-width:0"
           d="m 1.359375,-7.78125 c -0.375,0 -0.625,0.28125 -0.625,0.640625 0,0.34375 0.25,0.609375 0.625,0.609375 0.390625,0 0.65625,-0.265625 0.65625,-0.609375 C 2.015625,-7.5 1.75,-7.78125 1.359375,-7.78125 Z M 1.828125,-5.25 H 0.921875 V 0 h 0.90625 z m 0,0"
           id="path3970" />
      </symbol>
      <symbol
         overflow="visible"
         id="symbol3976">
        <path
           style="stroke:none;stroke-width:0"
           d="M 6.1875,-5.375 C 5.484375,-5.375 5,-5 4.625,-4.421875 4.421875,-5.03125 3.953125,-5.375 3.296875,-5.375 c -0.6875,0 -1.15625,0.359375 -1.515625,0.890625 L 1.703125,-5.25 H 0.921875 V 0 h 0.90625 V -3.734375 C 2.1875,-4.28125 2.5,-4.65625 3.078125,-4.65625 c 0.390625,0 0.734375,0.234375 0.734375,1.015625 V 0 h 0.90625 v -3.734375 c 0.359375,-0.546875 0.671875,-0.921875 1.25,-0.921875 0.390625,0 0.734375,0.234375 0.734375,1.015625 V 0 h 0.90625 V -3.765625 C 7.609375,-4.75 7.046875,-5.375 6.1875,-5.375 Z m 0,0"
           id="path3974" />
      </symbol>
      <symbol
         overflow="visible"
         id="symbol3980">
        <path
           style="stroke:none;stroke-width:0"
           d="m 3.328125,-5.375 c -0.59375,0 -1.171875,0.296875 -1.546875,0.828125 L 1.703125,-5.25 h -0.78125 v 7.375 l 0.90625,-0.109375 v -2.5 c 0.34375,0.421875 0.8125,0.609375 1.375,0.609375 1.359375,0 2.078125,-1.15625 2.078125,-2.75 0,-1.65625 -0.5625,-2.75 -1.953125,-2.75 z m -0.34375,4.75 c -0.46875,0 -0.875,-0.234375 -1.15625,-0.640625 v -2.5625 c 0.28125,-0.421875 0.71875,-0.8125 1.265625,-0.8125 0.796875,0 1.1875,0.640625 1.1875,2.015625 0,1.375 -0.453125,2 -1.296875,2 z m 0,0"
           id="path3978" />
      </symbol>
      <symbol
         overflow="visible"
         id="symbol3984">
        <path
           style="stroke:none;stroke-width:0"
           d="M 4.8125,-5.25 H 3.890625 v 3.75 c -0.3125,0.515625 -0.734375,0.90625 -1.3125,0.90625 -0.5625,0 -0.796875,-0.28125 -0.796875,-0.984375 V -5.25 H 0.859375 v 3.765625 c 0,1.03125 0.546875,1.609375 1.46875,1.609375 0.75,0 1.234375,-0.296875 1.625,-0.9375 L 4.03125,0 H 4.8125 Z m 0,0"
           id="path3982" />
      </symbol>
      <symbol
         overflow="visible"
         id="symbol3988">
        <path
           style="stroke:none;stroke-width:0"
           d="m 3.203125,-5.375 c -0.640625,0 -1.125,0.40625 -1.40625,1.1875 L 1.703125,-5.25 H 0.921875 V 0 h 0.90625 v -3 c 0.21875,-1 0.609375,-1.46875 1.265625,-1.46875 0.1875,0 0.296875,0.015625 0.453125,0.046875 L 3.71875,-5.3125 C 3.5625,-5.359375 3.375,-5.375 3.203125,-5.375 Z m 0,0"
           id="path3986" />
      </symbol>
      <symbol
         overflow="visible"
         id="symbol3992">
        <path
           style="stroke:none;stroke-width:0"
           d="m 3.25,-0.84375 c -0.265625,0.140625 -0.46875,0.203125 -0.703125,0.203125 -0.453125,0 -0.625,-0.25 -0.625,-0.78125 v -3.125 h 1.15625 L 3.171875,-5.25 h -1.25 V -6.546875 L 1,-6.4375 V -5.25 H 0.09375 v 0.703125 H 1 V -1.375 c 0,0.96875 0.53125,1.5 1.421875,1.5 C 2.875,0.125 3.25,0 3.59375,-0.234375 Z m 0,0"
           id="path3990" />
      </symbol>
      <symbol
         overflow="visible"
         id="symbol3996">
        <path
           style="stroke:none;stroke-width:0"
           d="M 4.8125,-5.25 H 3.859375 l -1.375,4.578125 L 1.078125,-5.25 H 0.09375 L 1.859375,0 h 0.3125 C 1.875,0.8125 1.578125,1.21875 0.515625,1.40625 L 0.609375,2.125 C 2.0625,1.96875 2.6875,1.140625 3.046875,0.03125 Z m 0,0"
           id="path3994" />
      </symbol>
    </g>
    <g
       id="id-8028bffe-cba3-4234-a3e2-d39a31b35d2f">
      <symbol
         overflow="visible"
         id="id-7ab606ad-f2d8-41d8-adc9-89930f6c6dc8">
        <path
           style="stroke:none;stroke-width:0"
           d="M 5.40625,-10.46875 H 1.21875 V 3.484375 h 4.1875 z M 4.875,-9.953125 V 2.96875 H 1.78125 V -9.953125 Z M 3.234375,-4.5 c -0.390625,0 -0.9375,0.125 -0.9375,0.390625 0,0.125 0.09375,0.234375 0.25,0.234375 0.03125,0 0.078125,-0.015625 0.125,-0.03125 0.171875,-0.078125 0.3125,-0.109375 0.515625,-0.109375 0.5,0 0.609375,0.296875 0.609375,0.6875 0,0.53125 -0.1875,0.71875 -0.90625,0.765625 v 0.84375 c 0,0.140625 0.125,0.234375 0.25,0.234375 0.125,0 0.25,-0.09375 0.25,-0.234375 V -2.171875 C 4.0625,-2.265625 4.34375,-2.65625 4.34375,-3.34375 4.34375,-3.953125 4.09375,-4.5 3.234375,-4.5 Z m -0.09375,3.296875 c -0.203125,0 -0.34375,0.15625 -0.34375,0.359375 0,0.203125 0.140625,0.359375 0.34375,0.359375 0.203125,0 0.34375,-0.15625 0.34375,-0.359375 0,-0.203125 -0.140625,-0.359375 -0.34375,-0.359375 z m 0,0"
           id="id-2a634b60-f1dc-453f-940b-67847b2ce73c" />
      </symbol>
      <symbol
         overflow="visible"
         id="id-5124599f-1550-492c-b7a8-1e075ca1b806">
        <path
           style="stroke:none;stroke-width:0"
           d="m 3.3125,-5.375 c -0.625,0 -1.125,0.296875 -1.484375,0.78125 v -2.890625 l -0.90625,0.125 V 0 H 1.71875 L 1.8125,-0.578125 C 2.171875,-0.140625 2.625,0.125 3.203125,0.125 c 1.28125,0 2.078125,-1.109375 2.078125,-2.75 0,-1.765625 -0.78125,-2.75 -1.96875,-2.75 z m -0.328125,4.765625 c -0.46875,0 -0.875,-0.28125 -1.15625,-0.703125 v -2.515625 c 0.28125,-0.421875 0.65625,-0.8125 1.234375,-0.8125 0.734375,0 1.21875,0.515625 1.21875,2.015625 0,1.421875 -0.515625,2.015625 -1.296875,2.015625 z m 0,0"
           id="id-9ce12cdc-d6cd-4e70-af67-ec718eb3b9ab" />
      </symbol>
      <symbol
         overflow="visible"
         id="id-9eb9656b-c10e-4183-95d2-bebaa8537593">
        <path
           style="stroke:none;stroke-width:0"
           d="M 4.4375,-1.21875 V -3.625 c 0,-1.09375 -0.578125,-1.75 -1.84375,-1.75 C 2,-5.375 1.421875,-5.25 0.78125,-5.015625 L 1,-4.34375 C 1.546875,-4.53125 2.03125,-4.625 2.421875,-4.625 c 0.734375,0 1.09375,0.28125 1.09375,1.03125 v 0.390625 H 2.71875 c -1.46875,0 -2.3125,0.609375 -2.3125,1.734375 0,0.9375 0.625,1.59375 1.671875,1.59375 0.640625,0 1.1875,-0.25 1.5625,-0.796875 0.15625,0.515625 0.5,0.734375 1.03125,0.796875 L 4.875,-0.515625 C 4.609375,-0.625 4.4375,-0.765625 4.4375,-1.21875 Z M 2.28125,-0.5625 c -0.59375,0 -0.90625,-0.328125 -0.90625,-0.953125 0,-0.71875 0.484375,-1.078125 1.453125,-1.078125 h 0.6875 v 1.203125 C 3.21875,-0.84375 2.828125,-0.5625 2.28125,-0.5625 Z m 0,0"
           id="id-0cc286df-bfed-40b4-bebc-c1aa64140205" />
      </symbol>
      <symbol
         overflow="visible"
         id="id-8695e139-ec28-4c73-a4eb-b2d36f291323">
        <path
           style="stroke:none;stroke-width:0"
           d="m 3.25,-0.84375 c -0.265625,0.140625 -0.46875,0.203125 -0.703125,0.203125 -0.453125,0 -0.625,-0.25 -0.625,-0.78125 v -3.125 h 1.15625 L 3.171875,-5.25 h -1.25 V -6.546875 L 1,-6.4375 V -5.25 H 0.09375 v 0.703125 H 1 V -1.375 c 0,0.96875 0.53125,1.5 1.421875,1.5 C 2.875,0.125 3.25,0 3.59375,-0.234375 Z m 0,0"
           id="id-8c490039-a589-41b2-bcd1-19958dcb287e" />
      </symbol>
      <symbol
         overflow="visible"
         id="id-dcabac6c-abb2-47f3-a2e7-1e71840afc01">
        <path
           style="stroke:none;stroke-width:0"
           d="m 3.390625,-5.375 c -0.65625,0 -1.171875,0.328125 -1.5625,0.84375 v -2.921875 l -0.90625,0.09375 V 0 h 0.90625 V -3.734375 C 2.1875,-4.28125 2.59375,-4.65625 3.15625,-4.65625 3.65625,-4.65625 4,-4.421875 4,-3.640625 V 0 H 4.921875 V -3.765625 C 4.921875,-4.75 4.34375,-5.375 3.390625,-5.375 Z m 0,0"
           id="id-10df06a8-8197-44e3-908d-42cbb8eb83ee" />
      </symbol>
    </g>
    <g
       id="g4351">
      <symbol
         overflow="visible"
         id="symbol4333">
        <path
           style="stroke:none;stroke-width:0"
           d="M 5.40625,-10.46875 H 1.21875 V 3.484375 h 4.1875 z M 4.875,-9.953125 V 2.96875 H 1.78125 V -9.953125 Z M 3.234375,-4.5 c -0.390625,0 -0.9375,0.125 -0.9375,0.390625 0,0.125 0.09375,0.234375 0.25,0.234375 0.03125,0 0.078125,-0.015625 0.125,-0.03125 0.171875,-0.078125 0.3125,-0.109375 0.515625,-0.109375 0.5,0 0.609375,0.296875 0.609375,0.6875 0,0.53125 -0.1875,0.71875 -0.90625,0.765625 v 0.84375 c 0,0.140625 0.125,0.234375 0.25,0.234375 0.125,0 0.25,-0.09375 0.25,-0.234375 V -2.171875 C 4.0625,-2.265625 4.34375,-2.65625 4.34375,-3.34375 4.34375,-3.953125 4.09375,-4.5 3.234375,-4.5 Z m -0.09375,3.296875 c -0.203125,0 -0.34375,0.15625 -0.34375,0.359375 0,0.203125 0.140625,0.359375 0.34375,0.359375 0.203125,0 0.34375,-0.15625 0.34375,-0.359375 0,-0.203125 -0.140625,-0.359375 -0.34375,-0.359375 z m 0,0"
           id="path4331" />
      </symbol>
      <symbol
         overflow="visible"
         id="symbol4337">
        <path
           style="stroke:none;stroke-width:0"
           d="m 3.3125,-5.375 c -0.625,0 -1.125,0.296875 -1.484375,0.78125 v -2.890625 l -0.90625,0.125 V 0 H 1.71875 L 1.8125,-0.578125 C 2.171875,-0.140625 2.625,0.125 3.203125,0.125 c 1.28125,0 2.078125,-1.109375 2.078125,-2.75 0,-1.765625 -0.78125,-2.75 -1.96875,-2.75 z m -0.328125,4.765625 c -0.46875,0 -0.875,-0.28125 -1.15625,-0.703125 v -2.515625 c 0.28125,-0.421875 0.65625,-0.8125 1.234375,-0.8125 0.734375,0 1.21875,0.515625 1.21875,2.015625 0,1.421875 -0.515625,2.015625 -1.296875,2.015625 z m 0,0"
           id="path4335" />
      </symbol>
      <symbol
         overflow="visible"
         id="symbol4341">
        <path
           style="stroke:none;stroke-width:0"
           d="M 4.4375,-1.21875 V -3.625 c 0,-1.09375 -0.578125,-1.75 -1.84375,-1.75 C 2,-5.375 1.421875,-5.25 0.78125,-5.015625 L 1,-4.34375 C 1.546875,-4.53125 2.03125,-4.625 2.421875,-4.625 c 0.734375,0 1.09375,0.28125 1.09375,1.03125 v 0.390625 H 2.71875 c -1.46875,0 -2.3125,0.609375 -2.3125,1.734375 0,0.9375 0.625,1.59375 1.671875,1.59375 0.640625,0 1.1875,-0.25 1.5625,-0.796875 0.15625,0.515625 0.5,0.734375 1.03125,0.796875 L 4.875,-0.515625 C 4.609375,-0.625 4.4375,-0.765625 4.4375,-1.21875 Z M 2.28125,-0.5625 c -0.59375,0 -0.90625,-0.328125 -0.90625,-0.953125 0,-0.71875 0.484375,-1.078125 1.453125,-1.078125 h 0.6875 v 1.203125 C 3.21875,-0.84375 2.828125,-0.5625 2.28125,-0.5625 Z m 0,0"
           id="path4339" />
      </symbol>
      <symbol
         overflow="visible"
         id="symbol4345">
        <path
           style="stroke:none;stroke-width:0"
           d="m 3.25,-0.84375 c -0.265625,0.140625 -0.46875,0.203125 -0.703125,0.203125 -0.453125,0 -0.625,-0.25 -0.625,-0.78125 v -3.125 h 1.15625 L 3.171875,-5.25 h -1.25 V -6.546875 L 1,-6.4375 V -5.25 H 0.09375 v 0.703125 H 1 V -1.375 c 0,0.96875 0.53125,1.5 1.421875,1.5 C 2.875,0.125 3.25,0 3.59375,-0.234375 Z m 0,0"
           id="path4343" />
      </symbol>
      <symbol
         overflow="visible"
         id="symbol4349">
        <path
           style="stroke:none;stroke-width:0"
           d="m 3.390625,-5.375 c -0.65625,0 -1.171875,0.328125 -1.5625,0.84375 v -2.921875 l -0.90625,0.09375 V 0 h 0.90625 V -3.734375 C 2.1875,-4.28125 2.59375,-4.65625 3.15625,-4.65625 3.65625,-4.65625 4,-4.421875 4,-3.640625 V 0 H 4.921875 V -3.765625 C 4.921875,-4.75 4.34375,-5.375 3.390625,-5.375 Z m 0,0"
           id="path4347" />
      </symbol>
    </g>
    <g
       id="id-3fba8836-55e2-4206-a881-633f2c0dbd6e">
      <symbol
         overflow="visible"
         id="id-4953cda7-fd8c-47a5-b157-30d1da44b7bf">
        <path
           style="stroke:none;stroke-width:0"
           d=""
           id="id-8389cc91-53d9-4960-8e4d-f2bf6d1e07a1" />
      </symbol>
      <symbol
         overflow="visible"
         id="id-eead3a87-6ed6-4aa0-8371-c1e4fece76dd">
        <path
           style="stroke:none;stroke-width:0"
           d="M 6.265625,-5.671875 C 6.75,-6.453125 7.171875,-6.484375 7.53125,-6.5 c 0.125,-0.015625 0.140625,-0.171875 0.140625,-0.1875 0,-0.078125 -0.0625,-0.125 -0.140625,-0.125 -0.25,0 -0.546875,0.03125 -0.8125,0.03125 -0.328125,0 -0.671875,-0.03125 -0.984375,-0.03125 -0.0625,0 -0.1875,0 -0.1875,0.1875 0,0.109375 0.078125,0.125 0.15625,0.125 0.265625,0.015625 0.453125,0.125 0.453125,0.328125 0,0.15625 -0.140625,0.375 -0.140625,0.375 l -3.0625,4.875 -0.6875,-5.28125 C 2.265625,-6.375 2.5,-6.5 2.953125,-6.5 c 0.140625,0 0.25,0 0.25,-0.203125 0,-0.078125 -0.078125,-0.109375 -0.125,-0.109375 -0.40625,0 -0.828125,0.03125 -1.25,0.03125 -0.171875,0 -0.359375,0 -0.546875,0 -0.171875,0 -0.359375,-0.03125 -0.53125,-0.03125 -0.078125,0 -0.1875,0 -0.1875,0.1875 0,0.125 0.078125,0.125 0.25,0.125 0.546875,0 0.5625,0.09375 0.59375,0.34375 L 2.1875,-0.015625 C 2.21875,0.1875 2.265625,0.21875 2.390625,0.21875 c 0.15625,0 0.203125,-0.046875 0.28125,-0.171875 z m 0,0"
           id="id-e312cfc5-bf17-43bc-9f89-f602ac92d3be" />
      </symbol>
    </g>
    <g
       id="g5941">
      <symbol
         overflow="visible"
         id="symbol5935">
        <path
           style="stroke:none;stroke-width:0"
           d=""
           id="path5933" />
      </symbol>
      <symbol
         overflow="visible"
         id="symbol5939">
        <path
           style="stroke:none;stroke-width:0"
           d="M 6.265625,-5.671875 C 6.75,-6.453125 7.171875,-6.484375 7.53125,-6.5 c 0.125,-0.015625 0.140625,-0.171875 0.140625,-0.1875 0,-0.078125 -0.0625,-0.125 -0.140625,-0.125 -0.25,0 -0.546875,0.03125 -0.8125,0.03125 -0.328125,0 -0.671875,-0.03125 -0.984375,-0.03125 -0.0625,0 -0.1875,0 -0.1875,0.1875 0,0.109375 0.078125,0.125 0.15625,0.125 0.265625,0.015625 0.453125,0.125 0.453125,0.328125 0,0.15625 -0.140625,0.375 -0.140625,0.375 l -3.0625,4.875 -0.6875,-5.28125 C 2.265625,-6.375 2.5,-6.5 2.953125,-6.5 c 0.140625,0 0.25,0 0.25,-0.203125 0,-0.078125 -0.078125,-0.109375 -0.125,-0.109375 -0.40625,0 -0.828125,0.03125 -1.25,0.03125 -0.171875,0 -0.359375,0 -0.546875,0 -0.171875,0 -0.359375,-0.03125 -0.53125,-0.03125 -0.078125,0 -0.1875,0 -0.1875,0.1875 0,0.125 0.078125,0.125 0.25,0.125 0.546875,0 0.5625,0.09375 0.59375,0.34375 L 2.1875,-0.015625 C 2.21875,0.1875 2.265625,0.21875 2.390625,0.21875 c 0.15625,0 0.203125,-0.046875 0.28125,-0.171875 z m 0,0"
           id="path5937" />
      </symbol>
    </g>
    <inkscape:path-effect
       effect="spiro"
       id="path-effect3843-3"
       is_visible="true"
       lpeversion="1" />
    <inkscape:path-effect
       effect="spiro"
       id="path-effect3843-3-7"
       is_visible="true"
       lpeversion="1" />
    <inkscape:path-effect
       effect="spiro"
       id="path-effect4235-6"
       is_visible="true"
       lpeversion="1" />
  </defs>
  <rect
     style="fill:#404040;fill-opacity:1;stroke:none;stroke-width:4.5;stroke-miterlimit:4;stroke-dasharray:none;stroke-opacity:1"
     id="rect8630"
     width="534.87091"
     height="301.57642"
     x="2.7804916"
     y="0" />
  <defs
     id="defs910">
    <clipPath
       id="p5fca741d82">
      <rect
         height="434.88"
         width="558"
         x="90"
         y="69.120003"
         id="rect907" />
    </clipPath>
  </defs>
  <circle
     style="fill:#902d03;fill-opacity:1;stroke:none;stroke-width:15.8099"
     id="path846-0"
     cx="271.46487"
     cy="277.73322"
     r="22.504444" />
  <path
     style="fill:none;stroke:none;stroke-width:4.5;stroke-linecap:butt;stroke-linejoin:miter;stroke-miterlimit:4;stroke-dasharray:none;stroke-opacity:1"
     d="m 0,188.71563 c 6.6925964,-0.19296 13.354713,-1.41024 19.683105,-3.59646 10.885702,-3.76059 20.757353,-10.42731 28.284159,-19.14441 5.85639,-6.78252 10.267948,-14.72449 13.637328,-23.02793 3.816875,-9.40624 6.42132,-19.48108 12.278083,-27.7723 1.512889,-2.14174 3.248685,-4.15804 5.368097,-5.70206 2.119411,-1.54402 4.651017,-2.59807 7.272058,-2.67583 2.190869,-0.065 4.374408,0.55478 6.295498,1.61003 1.921089,1.05525 3.588868,2.53428 5.008242,4.20446 2.58289,3.0393 4.35421,6.69775 5.63061,10.47657 1.2764,3.77882 2.07974,7.69777 2.90904,11.59917 2.17357,10.2254 4.60825,20.57118 9.74752,29.67454 5.36844,9.50929 13.72802,17.41175 23.78422,21.66847 10.0562,4.25671 21.7825,4.71603 31.93138,0.68526 9.70728,-3.85538 17.47577,-11.44379 23.9259,-19.65908 23.8541,-30.38208 32.21814,-69.657407 42.78868,-106.810505 3.63376,-12.771857 7.60135,-25.445914 11.57541,-38.116011 1.15459,-3.681068 2.3266,-7.400145 4.29945,-10.715444 1.97285,-3.3152991 4.85143,-6.2392075 8.49347,-7.5115514 1.14868,-0.4012911 2.35652,-0.6327891 3.57218,-0.6846533"
     id="path4233"
     inkscape:path-effect="#path-effect4235"
     inkscape:original-d="m 0,188.71563 c 6.561785,-1.19807 13.12282,-2.39689 19.683105,-3.59646 6.560284,-1.19957 18.856856,-12.76219 28.284159,-19.14441 9.427302,-6.38222 9.092301,-15.3512 13.637328,-23.02793 4.545028,-7.67673 8.186136,-18.51412 12.278083,-27.7723 4.09194,-9.25819 8.427518,-5.58451 12.640155,-8.37789 4.21263,-2.79338 7.53657,3.87707 11.30374,5.81449 3.76716,1.9374 5.69385,14.71791 8.53965,22.07574 2.8458,7.35784 6.49909,19.78377 9.74752,29.67454 3.24843,9.89076 37.14448,14.90324 55.7156,22.35373 18.57112,7.45049 15.95135,-13.10531 23.9259,-19.65908 7.97454,-6.55377 28.52654,-71.206252 42.78868,-106.810505 14.26215,-35.604252 7.71769,-25.409925 11.57541,-38.116011 3.85771,-12.7060874 8.52936,-12.1505804 12.79292,-18.2269954 4.26356,-6.0764153 2.38221,-0.4556858 3.57218,-0.6846533" />
  <path
     style="fill:none;stroke:none;stroke-width:4.5;stroke-linecap:butt;stroke-linejoin:miter;stroke-miterlimit:4;stroke-dasharray:none;stroke-opacity:1"
     d="m 535.96886,188.71563 c -6.69259,-0.19296 -13.35471,-1.41025 -19.6831,-3.59646 -10.8857,-3.76059 -20.75735,-10.42731 -28.28416,-19.14441 -5.85639,-6.78252 -10.26795,-14.72449 -13.63733,-23.02793 -3.81688,-9.40624 -6.42133,-19.48108 -12.27809,-27.7723 -1.51289,-2.14174 -3.24868,-4.15804 -5.36809,-5.70206 -2.11942,-1.54402 -4.65102,-2.59807 -7.27206,-2.67583 -2.19087,-0.065 -4.37441,0.55478 -6.2955,1.61003 -1.92109,1.05525 -3.58887,2.53428 -5.00824,4.20446 -2.58289,3.0393 -4.35421,6.69775 -5.63061,10.47657 -1.2764,3.77882 -2.07974,7.69777 -2.90904,11.59917 -2.17357,10.2254 -4.60825,20.57118 -9.74752,29.67454 -5.36844,9.50929 -13.72802,17.41175 -23.78422,21.66847 -10.0562,4.25671 -21.7825,4.71603 -31.93138,0.68526 -9.70728,-3.85538 -17.47577,-11.44379 -23.9259,-19.65908 -23.8541,-30.38208 -32.21814,-69.657408 -42.78868,-106.810505 -3.63376,-12.771857 -7.60135,-25.445914 -11.57541,-38.116011 -1.15459,-3.681068 -2.3266,-7.400145 -4.29945,-10.715444 -1.97285,-3.3152995 -4.85143,-6.2392081 -8.49347,-7.5115517 -1.14868,-0.401291 -2.35652,-0.6327889 -3.57218,-0.684653"
     id="path4233-2"
     inkscape:path-effect="#path-effect4235-6"
     inkscape:original-d="m 535.96886,188.71563 c -6.56178,-1.19807 -13.12282,-2.39689 -19.6831,-3.59646 -6.56029,-1.19957 -18.85686,-12.76219 -28.28416,-19.14441 -9.42731,-6.38222 -9.0923,-15.3512 -13.63733,-23.02793 -4.54503,-7.67673 -8.18614,-18.51412 -12.27809,-27.7723 -4.09193,-9.25819 -8.42751,-5.58451 -12.64015,-8.37789 -4.21263,-2.79338 -7.53657,3.87707 -11.30374,5.81449 -3.76716,1.9374 -5.69385,14.71791 -8.53965,22.07574 -2.8458,7.35784 -6.49909,19.78377 -9.74752,29.67454 -3.24843,9.89076 -37.14448,14.90324 -55.7156,22.35373 -18.57112,7.45049 -15.95135,-13.10531 -23.9259,-19.65908 C 332.23908,160.50229 311.68708,95.849808 297.42494,60.245555 283.16279,24.641303 289.70725,34.83563 285.84953,22.129544 281.99182,9.4234566 277.32017,9.9789636 273.05661,3.9025483 c -4.26356,-6.076415 -2.38221,-0.455686 -3.57218,-0.684653" />
  <path
     style="fill:none;fill-opacity:1;stroke:#c43030;stroke-width:2.25;stroke-linecap:butt;stroke-linejoin:miter;stroke-miterlimit:4;stroke-dasharray:none;stroke-opacity:1"
     d="M 3,188.71563 H 535.96886"
     id="path6535"
     inkscape:original-d="m 3,188.71563 c 177.65704,7.5e-4 355.31332,7.5e-4 532.96886,0"
     inkscape:path-effect="#path-effect6537" />
  <path
     style="fill:none;stroke:#000020;stroke-width:5.66929;stroke-linecap:butt;stroke-linejoin:miter;stroke-miterlimit:4;stroke-dasharray:none;stroke-opacity:1;marker-end:url(#Arrow2Send-7-2)"
     d="m 269.96487,277.73323 c 20.6126,-3.14713 39.88195,-14.37482 52.78372,-30.75554 14.49852,-18.40802 20.66761,-43.13124 16.51684,-66.19276 -4.15077,-23.06151 -18.55316,-44.08213 -38.56027,-56.27959"
     id="path1389-6-6"
     inkscape:path-effect="#path-effect1391-35-0"
     inkscape:original-d="m 269.96487,277.73323 c 17.59383,-10.2511 35.18839,-20.50293 52.78372,-30.75554 17.59529,-10.2526 -4.4496,-77.72343 -22.04343,-122.47235"
     sodipodi:nodetypes="csc" />
  <path
     style="fill:#c43030;fill-opacity:1;stroke:none;stroke-width:2.74172;stroke-miterlimit:4;stroke-dasharray:none;stroke-opacity:1"
     d="m 26.201145,186.44287 c 9.503133,-3.91548 15.989088,-8.21888 23.109234,-15.33285 8.830398,-8.82276 14.427999,-18.35647 20.541264,-34.98544 5.936737,-16.1488 10.038292,-22.78566 15.94311,-25.79807 5.676262,-2.89582 12.466012,0.92813 16.455077,9.2674 1.98632,4.15247 2.73361,6.73164 5.51777,19.04391 2.52928,11.1851 4.5327,17.35193 7.79362,23.99004 5.186,10.5569 12.74977,18.55595 22.53273,23.82948 l 2.80247,1.51067 -59.175457,-0.009 -59.175444,-0.009 z"
     id="path6656" />
  <path
     style="fill:#c43030;fill-opacity:1;stroke:none;stroke-width:2.74172;stroke-miterlimit:4;stroke-dasharray:none;stroke-opacity:1"
     d="m 401.62468,186.02758 c 4.70754,-2.68272 8.24011,-5.48178 12.34491,-9.78165 8.92275,-9.34677 13.09939,-18.72403 17.76833,-39.89288 2.14915,-9.74422 3.20646,-13.22141 5.27992,-17.36422 3.89933,-7.79097 10.33748,-11.31383 15.97765,-8.74273 5.63786,2.57004 9.92333,9.33592 15.75944,24.88091 7.30575,19.45951 12.14764,27.61985 22.01784,37.10806 6.63913,6.3822 13.77881,10.95309 22.54055,14.43069 l 3.19867,1.26958 -59.16438,0.0267 -59.16438,0.0267 z"
     id="path6734" />
  <path
     style="fill:none;stroke:#000020;stroke-width:5.66929;stroke-linecap:butt;stroke-linejoin:miter;stroke-miterlimit:4;stroke-dasharray:none;stroke-opacity:1;marker-end:url(#Arrow2Send-2)"
     d="m 268.46487,277.73323 c -20.61259,-3.14714 -39.88192,-14.37483 -52.78368,-30.75554 -14.49851,-18.40802 -20.66761,-43.13124 -16.51684,-66.19276 4.15078,-23.06151 18.55317,-44.08213 38.56027,-56.27959"
     id="path1389-3"
     inkscape:path-effect="#path-effect1391-1"
     inkscape:original-d="m 268.46487,277.73323 c -17.59379,-10.2511 -35.18835,-20.50293 -52.78368,-30.75554 -17.5953,-10.2526 4.4496,-77.72343 22.04343,-122.47235"
     sodipodi:nodetypes="csc" />
  <path
     style="fill:#c43030;fill-opacity:1;stroke:none;stroke-width:1.23459;stroke-miterlimit:4;stroke-dasharray:none;stroke-opacity:1"
     d="m 176.6904,187.0629 c 2.82044,-1.48292 6.7867,-4.16694 9.36232,-6.33562 3.97559,-3.34746 9.4507,-9.29198 13.05356,-14.17271 0.72872,-0.98718 1.3549,-1.76492 1.39151,-1.72832 0.0366,0.0366 -0.2642,0.9803 -0.66846,2.09709 -1.13566,3.13731 -2.4719,7.93205 -3.15432,11.31846 -0.53349,2.64741 -0.79512,4.36818 -1.38225,9.09138 l -0.1087,0.8745 -10.3271,-0.004 -10.32709,-0.004 z"
     id="path7807" />
  <path
     style="fill:#c43030;fill-opacity:1;stroke:none;stroke-width:1.23459;stroke-miterlimit:4;stroke-dasharray:none;stroke-opacity:1"
     d="m 343.13362,187.33318 c -0.51909,-4.29465 -1.09178,-7.86797 -1.68292,-10.50057 -0.38671,-1.72226 -0.70372,-3.21829 -0.70445,-3.32452 -7.4e-4,-0.10623 1.22603,1.0512 2.72614,2.57206 5.02805,5.09763 9.1435,8.25501 14.24816,10.93122 l 2.26342,1.18664 -8.37233,0.005 -8.37232,0.005 z"
     id="path8141" />
  <path
     style="fill:#c43030;fill-opacity:1;stroke:none;stroke-width:0.172596;stroke-miterlimit:4;stroke-dasharray:none;stroke-opacity:1"
     d="m 316.2016,132.80083 c -0.0969,-0.0893 -0.42056,-0.38908 -0.71915,-0.66631 -1.49999,-1.39268 -3.10416,-2.77116 -4.76953,-4.09851 l -0.71719,-0.57162 0.30618,-0.29382 c 0.79993,-0.76767 1.62833,-1.3707 2.51785,-1.83286 0.21056,-0.1094 0.38702,-0.19428 0.39213,-0.18861 0.005,0.006 0.14818,0.36628 0.31794,0.80136 0.85207,2.18396 2.66456,6.61667 2.83795,6.94065 0.0513,0.0959 0.0142,0.0757 -0.16618,-0.0903 z"
     id="path8297" />
  <path
     style="fill:#003030;fill-opacity:1;stroke:none;stroke-width:0.172596;stroke-miterlimit:4;stroke-dasharray:none;stroke-opacity:1"
     d="m 327.88974,155.21274 c -1.53947,-2.6738 -3.45741,-5.59984 -4.79396,-7.31378 -1.54667,-1.98338 -3.79277,-4.56246 -6.16281,-7.07645 -0.63453,-0.67306 -7.84427,-7.91911 -7.86189,-7.90149 -0.005,0.005 -0.0672,0.45373 -0.13996,0.99888 -0.14885,1.11546 -0.2088,1.44026 -0.34229,1.85417 l -0.0928,0.28766 -0.0203,-0.5034 c -0.0215,-0.53456 0.0127,-1.2935 0.0824,-1.82665 0.0404,-0.30904 0.1847,-1.11088 0.2039,-1.133 0.0229,-0.0264 1.61591,1.29352 2.61471,2.16638 6.64563,5.80767 12.28076,12.61948 16.80931,20.31927 0.16066,0.27317 0.29211,0.5028 0.29211,0.5103 0,0.008 -0.0812,0.0137 -0.18034,0.0137 h -0.18034 z"
     id="path8375" />
  <path
     style="fill:#c43030;fill-opacity:1;stroke:none;stroke-width:2.76228;stroke-miterlimit:4;stroke-dasharray:none;stroke-opacity:1"
     d="m 201.50528,186.04672 c 1.03605,-8.6034 3.56946,-16.8319 7.77298,-25.24667 3.52775,-7.06196 6.30108,-11.27572 11.27849,-17.13637 3.88556,-4.57507 10.44506,-10.68252 10.94462,-10.19037 0.1621,0.15969 0.29471,0.97577 0.29471,1.81352 0,0.92524 0.2276,1.51483 0.57979,1.50193 0.60197,-0.022 12.98881,-15.25127 13.25323,-16.29441 0.23103,-0.91135 -1.19461,-0.75171 -11.62981,1.3023 -6.41245,1.26219 -9.62453,2.08656 -9.62453,2.47008 0,0.31661 0.96082,1.13037 2.13515,1.80837 l 2.13515,1.23273 -1.78728,1.41642 c -0.983,0.77904 -3.71797,3.26335 -6.07772,5.5207 -2.35975,2.25735 -4.29045,3.97095 -4.29045,3.80801 0,-0.16296 1.37539,-3.54231 3.05641,-7.50968 4.35612,-10.28083 10.04583,-27.43981 15.49836,-46.739849 8.25887,-29.233524 13.70368,-47.33258 18.86255,-62.700827 2.43514,-7.254276 4.7919,-11.1353229 8.14295,-13.4095614 4.47328,-3.0358695 8.74677,-2.4099765 12.86985,1.8849105 3.32293,3.4613919 4.74757,6.8098599 9.90261,23.2751859 6.20498,19.818748 7.52861,24.268971 12.84376,43.182084 6.3971,22.763063 10.00392,34.513767 13.16447,42.888747 0.95727,2.53659 1.36758,4.17589 1.04464,4.1735 -0.29251,-0.002 -4.26307,-0.72188 -8.82345,-1.59934 -9.41689,-1.81192 -9.56596,-1.82681 -9.56596,-0.95611 0,0.95643 12.53464,16.3401 13.15118,16.14037 0.29254,-0.0948 0.6406,-0.97874 0.77346,-1.96439 l 0.24158,-1.7921 6.0294,5.94039 c 3.38587,3.33588 7.39107,7.8437 9.13508,10.28145 7.5777,10.59202 13.05819,24.26145 14.51912,36.21355 l 0.32117,2.62748 h -68.1927 -68.19268 z"
     id="path6695" />
</svg>
