<?xml version="1.0" encoding="UTF-8" standalone="no"?>
<!-- Created with Inkscape (http://www.inkscape.org/) -->

<svg
   width="183.35988mm"
   height="111.10465mm"
   viewBox="0 0 183.35987 111.10465"
   version="1.1"
   id="svg5"
   sodipodi:docname="urg.svg"
   inkscape:version="1.2 (dc2aedaf03, 2022-05-15)"
   xmlns:inkscape="http://www.inkscape.org/namespaces/inkscape"
   xmlns:sodipodi="http://sodipodi.sourceforge.net/DTD/sodipodi-0.dtd"
   xmlns:xlink="http://www.w3.org/1999/xlink"
   xmlns="http://www.w3.org/2000/svg"
   xmlns:svg="http://www.w3.org/2000/svg"
   xmlns:ns2="http://www.iki.fi/pav/software/textext/">
  <sodipodi:namedview
     id="namedview7"
     pagecolor="#ffffff"
     bordercolor="#666666"
     borderopacity="1.0"
     inkscape:pageshadow="2"
     inkscape:pageopacity="0.0"
     inkscape:pagecheckerboard="0"
     inkscape:document-units="mm"
     showgrid="false"
     inkscape:snap-midpoints="true"
     inkscape:snap-global="true"
     inkscape:zoom="1.2277704"
     inkscape:cx="362.03837"
     inkscape:cy="271.22335"
     inkscape:window-width="1916"
     inkscape:window-height="1052"
     inkscape:window-x="0"
     inkscape:window-y="24"
     inkscape:window-maximized="1"
     inkscape:current-layer="layer1"
     inkscape:showpageshadow="0"
     inkscape:deskcolor="#d1d1d1" />
  <defs
     id="defs2">
    <linearGradient
       inkscape:collect="always"
       id="linearGradient20321">
      <stop
         style="stop-color:#ff1700;stop-opacity:1;"
         offset="0"
         id="stop20317" />
      <stop
         style="stop-color:#ff1700;stop-opacity:0;"
         offset="1"
         id="stop20319" />
    </linearGradient>
    <inkscape:path-effect
       effect="spiro"
       id="path-effect8129"
       is_visible="true"
       lpeversion="1" />
    <inkscape:path-effect
       effect="spiro"
       id="path-effect8123"
       is_visible="true"
       lpeversion="1" />
    <inkscape:path-effect
       effect="spiro"
       id="path-effect7957"
       is_visible="true"
       lpeversion="1" />
    <inkscape:path-effect
       effect="spiro"
       id="path-effect7951"
       is_visible="true"
       lpeversion="1" />
    <inkscape:path-effect
       effect="spiro"
       id="path-effect7785"
       is_visible="true"
       lpeversion="1" />
    <inkscape:path-effect
       effect="spiro"
       id="path-effect7779"
       is_visible="true"
       lpeversion="1" />
    <marker
       style="overflow:visible"
       id="Arrow2Mend"
       refX="0"
       refY="0"
       orient="auto"
       inkscape:stockid="Arrow2Mend"
       inkscape:isstock="true">
      <path
         transform="scale(-0.6)"
         d="M 8.7185878,4.0337352 -2.2072895,0.01601326 8.7185884,-4.0017078 c -1.7454984,2.3720609 -1.7354408,5.6174519 -6e-7,8.035443 z"
         style="fill:context-stroke;fill-rule:evenodd;stroke:context-stroke;stroke-width:0.625;stroke-linejoin:round"
         id="path7022" />
    </marker>
    <marker
       style="overflow:visible"
       id="Arrow2Lend"
       refX="0"
       refY="0"
       orient="auto"
       inkscape:stockid="Arrow2Lend"
       inkscape:isstock="true">
      <path
         transform="matrix(-1.1,0,0,-1.1,-1.1,0)"
         d="M 8.7185878,4.0337352 -2.2072895,0.01601326 8.7185884,-4.0017078 c -1.7454984,2.3720609 -1.7354408,5.6174519 -6e-7,8.035443 z"
         style="fill:context-stroke;fill-rule:evenodd;stroke:context-stroke;stroke-width:0.625;stroke-linejoin:round"
         id="path7016" />
    </marker>
    <marker
       style="overflow:visible"
       id="Arrow2Lstart"
       refX="0"
       refY="0"
       orient="auto"
       inkscape:stockid="Arrow2Lstart"
       inkscape:isstock="true">
      <path
         transform="matrix(1.1,0,0,1.1,1.1,0)"
         d="M 8.7185878,4.0337352 -2.2072895,0.01601326 8.7185884,-4.0017078 c -1.7454984,2.3720609 -1.7354408,5.6174519 -6e-7,8.035443 z"
         style="fill:context-stroke;fill-rule:evenodd;stroke:context-stroke;stroke-width:0.625;stroke-linejoin:round"
         id="path7013" />
    </marker>
    <inkscape:path-effect
       effect="spiro"
       id="path-effect6913"
       is_visible="true"
       lpeversion="1" />
    <inkscape:path-effect
       effect="spiro"
       id="path-effect2246"
       is_visible="true"
       lpeversion="1" />
    <inkscape:path-effect
       effect="spiro"
       id="path-effect2240"
       is_visible="true"
       lpeversion="1" />
    <inkscape:path-effect
       effect="spiro"
       id="path-effect2234"
       is_visible="true"
       lpeversion="1" />
    <inkscape:path-effect
       effect="spiro"
       id="path-effect2228"
       is_visible="true"
       lpeversion="1" />
    <inkscape:path-effect
       effect="spiro"
       id="path-effect1966"
       is_visible="true"
       lpeversion="1" />
    <inkscape:path-effect
       effect="spiro"
       id="path-effect1736"
       is_visible="true"
       lpeversion="1" />
    <inkscape:path-effect
       effect="spiro"
       id="path-effect1393"
       is_visible="true"
       lpeversion="1" />
    <inkscape:path-effect
       effect="spiro"
       id="path-effect859"
       is_visible="true"
       lpeversion="1" />
    <inkscape:path-effect
       effect="spiro"
       id="path-effect859-3"
       is_visible="true"
       lpeversion="1" />
    <inkscape:path-effect
       effect="spiro"
       id="path-effect859-7"
       is_visible="true"
       lpeversion="1" />
    <linearGradient
       inkscape:collect="always"
       xlink:href="#linearGradient20321"
       id="linearGradient20323"
       x1="-169.89351"
       y1="106.5851"
       x2="-7.9520392"
       y2="106.5851"
       gradientUnits="userSpaceOnUse" />
  </defs>
  <g
     inkscape:label="Layer 1"
     inkscape:groupmode="layer"
     id="layer1"
     transform="translate(3.3766294,-50.024811)">
    <rect
       style="opacity:1;fill:#ffffff;fill-opacity:1;fill-rule:evenodd;stroke:none;stroke-width:0.337296;stroke-opacity:1"
       id="rect1666"
       width="183.35988"
       height="111.10465"
       x="-3.3766294"
       y="50.024811" />
    <path
       style="fill:none;stroke:#000000;stroke-width:0.888171;stroke-linecap:butt;stroke-linejoin:miter;stroke-miterlimit:4;stroke-dasharray:1.77634, 0.888171;stroke-dashoffset:0;stroke-opacity:1"
       d="m 15.636638,84.190618 c 5.861971,5.444664 9.324372,13.38608 9.324372,21.386522 0,8.00044 -3.462401,15.94186 -9.324372,21.38652"
       id="path1964"
       inkscape:path-effect="#path-effect1966"
       inkscape:original-d="m 15.636638,84.190618 c 3.108389,7.129049 6.216512,14.25789 9.324372,21.386522 3.107856,7.12863 -6.215983,14.25789 -9.324372,21.38652" />
    <path
       style="fill:none;stroke:#000000;stroke-width:0.888171;stroke-linecap:butt;stroke-linejoin:miter;stroke-miterlimit:4;stroke-dasharray:1.77634, 0.888171;stroke-dashoffset:0;stroke-opacity:1"
       d="m 84.428309,84.190618 c 5.861971,5.444664 9.324372,13.38608 9.324372,21.386522 0,8.00044 -3.462401,15.94186 -9.324372,21.38652"
       id="path2230"
       inkscape:path-effect="#path-effect2234"
       inkscape:original-d="m 84.428309,84.190618 c 3.108389,7.129049 6.216512,14.25789 9.324372,21.386522 3.107856,7.12863 -6.215983,14.25789 -9.324372,21.38652" />
    <path
       style="fill:none;stroke:#000000;stroke-width:0.888171;stroke-linecap:butt;stroke-linejoin:miter;stroke-miterlimit:4;stroke-dasharray:1.77634, 0.888171;stroke-dashoffset:0;stroke-opacity:1"
       d="m 132.05333,84.190618 c 5.86197,5.444665 9.32437,13.38608 9.32437,21.386522 0,8.00044 -3.4624,15.94186 -9.32437,21.38652"
       id="path2236"
       inkscape:path-effect="#path-effect2240"
       inkscape:original-d="m 132.05333,84.190618 c 3.10839,7.129049 6.21651,14.25789 9.32437,21.386522 3.10786,7.12863 -6.21598,14.25789 -9.32437,21.38652" />
    <path
       style="fill:none;stroke:#000000;stroke-width:0.888171;stroke-linecap:butt;stroke-linejoin:miter;stroke-miterlimit:4;stroke-dasharray:1.77634, 0.888171;stroke-dashoffset:0;stroke-opacity:1"
       d="m 153.22001,84.190618 c 5.86197,5.444665 9.32437,13.38608 9.32437,21.386522 0,8.00044 -3.4624,15.94186 -9.32437,21.38652"
       id="path2242"
       inkscape:path-effect="#path-effect2246"
       inkscape:original-d="m 153.22001,84.190618 c 3.10839,7.129049 6.21651,14.25789 9.32437,21.386522 3.10786,7.12863 -6.21598,14.25789 -9.32437,21.38652" />
    <g
       transform="matrix(1.3475261,0,0,1.3475261,9.7520243,102.88936)"
       ns2:version="1.3.0"
       ns2:texconverter="pdflatex"
       ns2:pdfconverter="inkscape"
       ns2:text="$\\epsilon_F$"
       ns2:preamble="/home/abhirup/textext.tex"
       ns2:scale="2.5"
       ns2:alignment="middle center"
       ns2:jacobian_sqrt="0.661458"
       id="g2300">
      <defs
         id="id-6a1871ca-226f-4364-a520-999822156b52">
        <g
           id="id-4433d989-912a-457c-8d72-0706aec2de3a">
          <g
             id="id-2c47d2cb-a5ec-4674-819b-453de2907354" />
          <g
             id="id-f6803fce-3a2d-473c-a70f-0be6c78f8da6">
            <path
               d="m 2.96875,-2.25 c 0.15625,0 0.34375,0 0.34375,-0.171875 C 3.3125,-2.5625 3.1875,-2.5625 3.015625,-2.5625 H 1.40625 c 0.234375,-0.84375 0.796875,-1.421875 1.703125,-1.421875 h 0.3125 c 0.171875,0 0.328125,0 0.328125,-0.171875 0,-0.140625 -0.125,-0.140625 -0.296875,-0.140625 H 3.09375 c -1.296875,0 -2.625,1 -2.625,2.515625 0,1.109375 0.75,1.890625 1.796875,1.890625 0.65625,0 1.296875,-0.40625 1.296875,-0.515625 0,-0.015625 0,-0.125 -0.09375,-0.125 -0.015625,0 -0.046875,0 -0.125,0.046875 -0.3125,0.203125 -0.6875,0.375 -1.046875,0.375 -0.578125,0 -1.078125,-0.421875 -1.078125,-1.296875 0,-0.34375 0.078125,-0.734375 0.109375,-0.84375 z m 0,0"
               id="id-e5205daf-f5fe-4649-b0c7-99054d5fc795" />
          </g>
          <g
             id="id-0a9849e6-1a15-47ea-ac62-9562517a8847" />
          <g
             id="id-994e6f4d-e2ad-4d8e-a8a3-dcb1dfdc8e4f">
            <path
               d="M 2.390625,-2.25 H 3.125 c 0.53125,0 0.625,0.09375 0.625,0.3125 0,0.109375 0,0.125 -0.046875,0.328125 -0.015625,0.03125 -0.03125,0.0625 -0.03125,0.078125 0,0.0625 0.0625,0.109375 0.125,0.109375 0.09375,0 0.09375,-0.046875 0.140625,-0.171875 l 0.375,-1.46875 c 0,-0.03125 0.015625,-0.125 0.015625,-0.140625 0,-0.078125 -0.046875,-0.109375 -0.109375,-0.109375 -0.09375,0 -0.109375,0.046875 -0.140625,0.171875 C 3.9375,-2.59375 3.734375,-2.5 3.140625,-2.5 h -0.6875 l 0.4375,-1.75 c 0.046875,-0.203125 0.0625,-0.234375 0.34375,-0.234375 H 4.3125 c 0.921875,0 1.09375,0.21875 1.09375,0.8125 0,0.21875 -0.03125,0.375 -0.03125,0.421875 0,0.0625 0.03125,0.125 0.125,0.125 0.109375,0 0.109375,-0.0625 0.125,-0.1875 L 5.75,-4.515625 c 0.015625,-0.21875 -0.03125,-0.21875 -0.203125,-0.21875 h -3.71875 c -0.140625,0 -0.21875,0 -0.21875,0.15625 0,0.09375 0.078125,0.09375 0.21875,0.09375 0,0 0.140625,0 0.265625,0.015625 C 2.234375,-4.453125 2.25,-4.4375 2.25,-4.375 c 0,0.046875 -0.015625,0.125 -0.03125,0.15625 L 1.3125,-0.578125 C 1.234375,-0.296875 1.234375,-0.25 0.6875,-0.25 c -0.109375,0 -0.203125,0 -0.203125,0.140625 C 0.484375,-0.03125 0.53125,0 0.59375,0 0.796875,0 1.3125,-0.03125 1.515625,-0.03125 l 0.53125,0.015625 C 2.234375,-0.015625 2.421875,0 2.59375,0 2.640625,0 2.75,0 2.75,-0.15625 2.75,-0.25 2.671875,-0.25 2.515625,-0.25 c -0.015625,0 -0.1875,0 -0.375,-0.015625 C 2,-0.28125 1.9375,-0.28125 1.9375,-0.390625 c 0,-0.015625 0,-0.046875 0.015625,-0.125 z m 0,0"
               id="id-19b9de86-76cc-486f-b7f4-b6d92fa5d362" />
          </g>
        </g>
      </defs>
      <g
         fill="#000000"
         fill-opacity="1"
         id="id-caaee2c4-1e01-4aec-8551-0f3490e18da9"
         transform="translate(-149.181,-130.468)">
        <g
           transform="translate(148.712,134.765)"
           id="g2293">
          <path
             d="m 2.96875,-2.25 c 0.15625,0 0.34375,0 0.34375,-0.171875 C 3.3125,-2.5625 3.1875,-2.5625 3.015625,-2.5625 H 1.40625 c 0.234375,-0.84375 0.796875,-1.421875 1.703125,-1.421875 h 0.3125 c 0.171875,0 0.328125,0 0.328125,-0.171875 0,-0.140625 -0.125,-0.140625 -0.296875,-0.140625 H 3.09375 c -1.296875,0 -2.625,1 -2.625,2.515625 0,1.109375 0.75,1.890625 1.796875,1.890625 0.65625,0 1.296875,-0.40625 1.296875,-0.515625 0,-0.015625 0,-0.125 -0.09375,-0.125 -0.015625,0 -0.046875,0 -0.125,0.046875 -0.3125,0.203125 -0.6875,0.375 -1.046875,0.375 -0.578125,0 -1.078125,-0.421875 -1.078125,-1.296875 0,-0.34375 0.078125,-0.734375 0.109375,-0.84375 z m 0,0"
             id="id-4b11c1e2-c467-4191-949d-e88ee595e0be" />
        </g>
      </g>
      <g
         fill="#000000"
         fill-opacity="1"
         id="id-0a720d43-260d-4c18-839b-a3054b05240c"
         transform="translate(-149.181,-130.468)">
        <g
           transform="translate(152.756,136.259)"
           id="g2297">
          <path
             d="M 2.390625,-2.25 H 3.125 c 0.53125,0 0.625,0.09375 0.625,0.3125 0,0.109375 0,0.125 -0.046875,0.328125 -0.015625,0.03125 -0.03125,0.0625 -0.03125,0.078125 0,0.0625 0.0625,0.109375 0.125,0.109375 0.09375,0 0.09375,-0.046875 0.140625,-0.171875 l 0.375,-1.46875 c 0,-0.03125 0.015625,-0.125 0.015625,-0.140625 0,-0.078125 -0.046875,-0.109375 -0.109375,-0.109375 -0.09375,0 -0.109375,0.046875 -0.140625,0.171875 C 3.9375,-2.59375 3.734375,-2.5 3.140625,-2.5 h -0.6875 l 0.4375,-1.75 c 0.046875,-0.203125 0.0625,-0.234375 0.34375,-0.234375 H 4.3125 c 0.921875,0 1.09375,0.21875 1.09375,0.8125 0,0.21875 -0.03125,0.375 -0.03125,0.421875 0,0.0625 0.03125,0.125 0.125,0.125 0.109375,0 0.109375,-0.0625 0.125,-0.1875 L 5.75,-4.515625 c 0.015625,-0.21875 -0.03125,-0.21875 -0.203125,-0.21875 h -3.71875 c -0.140625,0 -0.21875,0 -0.21875,0.15625 0,0.09375 0.078125,0.09375 0.21875,0.09375 0,0 0.140625,0 0.265625,0.015625 C 2.234375,-4.453125 2.25,-4.4375 2.25,-4.375 c 0,0.046875 -0.015625,0.125 -0.03125,0.15625 L 1.3125,-0.578125 C 1.234375,-0.296875 1.234375,-0.25 0.6875,-0.25 c -0.109375,0 -0.203125,0 -0.203125,0.140625 C 0.484375,-0.03125 0.53125,0 0.59375,0 0.796875,0 1.3125,-0.03125 1.515625,-0.03125 l 0.53125,0.015625 C 2.234375,-0.015625 2.421875,0 2.59375,0 2.640625,0 2.75,0 2.75,-0.15625 2.75,-0.25 2.671875,-0.25 2.515625,-0.25 c -0.015625,0 -0.1875,0 -0.375,-0.015625 C 2,-0.28125 1.9375,-0.28125 1.9375,-0.390625 c 0,-0.015625 0,-0.046875 0.015625,-0.125 z m 0,0"
             id="id-a24b177c-a3dd-420b-8683-29d2feda49f8" />
        </g>
      </g>
    </g>
    <g
       transform="matrix(0.82211465,0,0,0.82211465,9.7171803,128.24196)"
       ns2:version="1.3.0"
       ns2:texconverter="pdflatex"
       ns2:pdfconverter="inkscape"
       ns2:text="IR states"
       ns2:preamble="/home/abhirup/textext.tex"
       ns2:scale="2.5"
       ns2:alignment="middle center"
       ns2:jacobian_sqrt="0.661458"
       id="g2446">
      <defs
         id="id-d16cd1e8-adca-4e9c-94ad-36263e4327fc">
        <g
           id="id-aa11b75f-e50b-42a4-95b9-6f6f088aa734">
          <g
             id="id-358acf12-e821-4eb2-adb4-db0edc422927">
            <path
               d="M 5.40625,-10.46875 H 1.21875 V 3.484375 h 4.1875 z M 4.875,-9.953125 V 2.96875 H 1.78125 V -9.953125 Z M 3.234375,-4.5 c -0.390625,0 -0.9375,0.125 -0.9375,0.390625 0,0.125 0.09375,0.234375 0.25,0.234375 0.03125,0 0.078125,-0.015625 0.125,-0.03125 0.171875,-0.078125 0.3125,-0.109375 0.515625,-0.109375 0.5,0 0.609375,0.296875 0.609375,0.6875 0,0.53125 -0.1875,0.71875 -0.90625,0.765625 v 0.84375 c 0,0.140625 0.125,0.234375 0.25,0.234375 0.125,0 0.25,-0.09375 0.25,-0.234375 V -2.171875 C 4.0625,-2.265625 4.34375,-2.65625 4.34375,-3.34375 4.34375,-3.953125 4.09375,-4.5 3.234375,-4.5 Z m -0.09375,3.296875 c -0.203125,0 -0.34375,0.15625 -0.34375,0.359375 0,0.203125 0.140625,0.359375 0.34375,0.359375 0.203125,0 0.34375,-0.15625 0.34375,-0.359375 0,-0.203125 -0.140625,-0.359375 -0.34375,-0.359375 z m 0,0"
               id="id-636660e3-e98d-4de5-adb1-0ea0f9dd132b" />
          </g>
          <g
             id="id-97a0fd39-f518-43ad-99df-518b52426112">
            <path
               d="M 1.9375,-6.875 H 1 V 0 h 0.9375 z m 0,0"
               id="id-9f097e56-5af9-4fbb-962f-bdb02bd2ec2c" />
          </g>
          <g
             id="id-4a2298d4-74f1-498d-be4c-f0794a98123d">
            <path
               d="m 4.65625,0 h 1.125 L 3.921875,-3.078125 c 1,-0.296875 1.484375,-0.875 1.484375,-1.84375 0,-1.28125 -0.890625,-1.953125 -2.609375,-1.953125 H 1 V 0 H 1.9375 V -2.90625 H 3.015625 Z M 1.9375,-3.640625 V -6.125 h 0.859375 c 1.125,0 1.609375,0.34375 1.609375,1.203125 0,0.921875 -0.546875,1.28125 -1.5,1.28125 z m 0,0"
               id="id-7b78374f-54b9-410e-b5f8-57447724bcf9" />
          </g>
          <g
             id="id-b1f03e82-2eea-4812-b42a-a8a942dfd8cf">
            <path
               d="m 2.375,-5.375 c -1.09375,0 -1.890625,0.609375 -1.890625,1.453125 0,0.734375 0.4375,1.21875 1.578125,1.515625 1.015625,0.265625 1.28125,0.46875 1.28125,0.984375 0,0.5 -0.4375,0.796875 -1.125,0.796875 -0.578125,0 -1.0625,-0.1875 -1.484375,-0.5 L 0.25,-0.5625 c 0.453125,0.390625 1.09375,0.6875 1.984375,0.6875 1.0625,0 2.078125,-0.5 2.078125,-1.59375 0,-0.921875 -0.640625,-1.359375 -1.75,-1.640625 -0.84375,-0.21875 -1.125,-0.421875 -1.125,-0.84375 0,-0.421875 0.359375,-0.6875 0.96875,-0.6875 0.484375,0 0.890625,0.140625 1.359375,0.4375 L 4.15625,-4.78125 C 3.65625,-5.15625 3.109375,-5.375 2.375,-5.375 Z m 0,0"
               id="id-c737fb8b-fa6b-46a3-a9fc-db7791eda2d2" />
          </g>
          <g
             id="id-c7afbecc-8bee-4cb9-916e-95116f99fac8">
            <path
               d="m 3.25,-0.84375 c -0.265625,0.140625 -0.46875,0.203125 -0.703125,0.203125 -0.453125,0 -0.625,-0.25 -0.625,-0.78125 v -3.125 h 1.15625 L 3.171875,-5.25 h -1.25 V -6.546875 L 1,-6.4375 V -5.25 H 0.09375 v 0.703125 H 1 V -1.375 c 0,0.96875 0.53125,1.5 1.421875,1.5 C 2.875,0.125 3.25,0 3.59375,-0.234375 Z m 0,0"
               id="id-23e7a0eb-9de3-4443-8c27-2309be5140b8" />
          </g>
          <g
             id="id-e9a53b8e-5d2b-482e-9353-f855d0eb3d68">
            <path
               d="M 4.4375,-1.21875 V -3.625 c 0,-1.09375 -0.578125,-1.75 -1.84375,-1.75 C 2,-5.375 1.421875,-5.25 0.78125,-5.015625 L 1,-4.34375 C 1.546875,-4.53125 2.03125,-4.625 2.421875,-4.625 c 0.734375,0 1.09375,0.28125 1.09375,1.03125 v 0.390625 H 2.71875 c -1.46875,0 -2.3125,0.609375 -2.3125,1.734375 0,0.9375 0.625,1.59375 1.671875,1.59375 0.640625,0 1.1875,-0.25 1.5625,-0.796875 0.15625,0.515625 0.5,0.734375 1.03125,0.796875 L 4.875,-0.515625 C 4.609375,-0.625 4.4375,-0.765625 4.4375,-1.21875 Z M 2.28125,-0.5625 c -0.59375,0 -0.90625,-0.328125 -0.90625,-0.953125 0,-0.71875 0.484375,-1.078125 1.453125,-1.078125 h 0.6875 v 1.203125 C 3.21875,-0.84375 2.828125,-0.5625 2.28125,-0.5625 Z m 0,0"
               id="id-91672229-e61e-4800-a890-7f7fd5e9d633" />
          </g>
          <g
             id="id-998d2671-d346-40c5-b17d-a9e8353898d6">
            <path
               d="m 4.921875,-2.78125 c 0,-1.609375 -0.75,-2.59375 -2.171875,-2.59375 -1.359375,0 -2.1875,1.171875 -2.1875,2.796875 0,1.671875 0.859375,2.703125 2.328125,2.703125 0.734375,0 1.3125,-0.25 1.828125,-0.65625 L 4.328125,-1.09375 C 3.875,-0.765625 3.484375,-0.625 2.953125,-0.625 c -0.75,0 -1.3125,-0.46875 -1.40625,-1.6875 h 3.34375 c 0.015625,-0.125 0.03125,-0.296875 0.03125,-0.46875 z M 4,-2.984375 H 1.546875 c 0.0625,-1.171875 0.53125,-1.65625 1.21875,-1.65625 0.828125,0 1.234375,0.5625 1.234375,1.59375 z m 0,0"
               id="id-3bb647be-5949-4798-92b9-195b80d8e612" />
          </g>
        </g>
      </defs>
      <g
         fill="#000000"
         fill-opacity="1"
         id="id-fce9e360-654b-4038-8f89-dc8434166dc3"
         transform="translate(-149.712,-127.89)">
        <g
           transform="translate(148.712,134.765)"
           id="g2420">
          <path
             d="M 1.9375,-6.875 H 1 V 0 h 0.9375 z m 0,0"
             id="id-0174b3d7-da18-449d-befd-9390b6eec430" />
        </g>
        <g
           transform="translate(151.651,134.765)"
           id="g2423">
          <path
             d="m 4.65625,0 h 1.125 L 3.921875,-3.078125 c 1,-0.296875 1.484375,-0.875 1.484375,-1.84375 0,-1.28125 -0.890625,-1.953125 -2.609375,-1.953125 H 1 V 0 H 1.9375 V -2.90625 H 3.015625 Z M 1.9375,-3.640625 V -6.125 h 0.859375 c 1.125,0 1.609375,0.34375 1.609375,1.203125 0,0.921875 -0.546875,1.28125 -1.5,1.28125 z m 0,0"
             id="id-e9d98d34-59a4-476a-86b8-8fcbb8fa01a5" />
        </g>
      </g>
      <g
         fill="#000000"
         fill-opacity="1"
         id="id-8c3bd396-d232-4da5-a36d-e983f1e62b07"
         transform="translate(-149.712,-127.89)">
        <g
           transform="translate(160.318,134.765)"
           id="g2427">
          <path
             d="m 2.375,-5.375 c -1.09375,0 -1.890625,0.609375 -1.890625,1.453125 0,0.734375 0.4375,1.21875 1.578125,1.515625 1.015625,0.265625 1.28125,0.46875 1.28125,0.984375 0,0.5 -0.4375,0.796875 -1.125,0.796875 -0.578125,0 -1.0625,-0.1875 -1.484375,-0.5 L 0.25,-0.5625 c 0.453125,0.390625 1.09375,0.6875 1.984375,0.6875 1.0625,0 2.078125,-0.5 2.078125,-1.59375 0,-0.921875 -0.640625,-1.359375 -1.75,-1.640625 -0.84375,-0.21875 -1.125,-0.421875 -1.125,-0.84375 0,-0.421875 0.359375,-0.6875 0.96875,-0.6875 0.484375,0 0.890625,0.140625 1.359375,0.4375 L 4.15625,-4.78125 C 3.65625,-5.15625 3.109375,-5.375 2.375,-5.375 Z m 0,0"
             id="id-7ac4d66e-ce73-49f3-8276-044d04fcbfd0" />
        </g>
        <g
           transform="translate(164.971,134.765)"
           id="g2430">
          <path
             d="m 3.25,-0.84375 c -0.265625,0.140625 -0.46875,0.203125 -0.703125,0.203125 -0.453125,0 -0.625,-0.25 -0.625,-0.78125 v -3.125 h 1.15625 L 3.171875,-5.25 h -1.25 V -6.546875 L 1,-6.4375 V -5.25 H 0.09375 v 0.703125 H 1 V -1.375 c 0,0.96875 0.53125,1.5 1.421875,1.5 C 2.875,0.125 3.25,0 3.59375,-0.234375 Z m 0,0"
             id="id-a0193169-1c7c-4a05-af44-cc1f03ae5774" />
        </g>
        <g
           transform="translate(168.567,134.765)"
           id="g2433">
          <path
             d="M 4.4375,-1.21875 V -3.625 c 0,-1.09375 -0.578125,-1.75 -1.84375,-1.75 C 2,-5.375 1.421875,-5.25 0.78125,-5.015625 L 1,-4.34375 C 1.546875,-4.53125 2.03125,-4.625 2.421875,-4.625 c 0.734375,0 1.09375,0.28125 1.09375,1.03125 v 0.390625 H 2.71875 c -1.46875,0 -2.3125,0.609375 -2.3125,1.734375 0,0.9375 0.625,1.59375 1.671875,1.59375 0.640625,0 1.1875,-0.25 1.5625,-0.796875 0.15625,0.515625 0.5,0.734375 1.03125,0.796875 L 4.875,-0.515625 C 4.609375,-0.625 4.4375,-0.765625 4.4375,-1.21875 Z M 2.28125,-0.5625 c -0.59375,0 -0.90625,-0.328125 -0.90625,-0.953125 0,-0.71875 0.484375,-1.078125 1.453125,-1.078125 h 0.6875 v 1.203125 C 3.21875,-0.84375 2.828125,-0.5625 2.28125,-0.5625 Z m 0,0"
             id="id-c4d95e8b-9430-4e01-a958-bc8564764797" />
        </g>
        <g
           transform="translate(173.937,134.765)"
           id="g2436">
          <path
             d="m 3.25,-0.84375 c -0.265625,0.140625 -0.46875,0.203125 -0.703125,0.203125 -0.453125,0 -0.625,-0.25 -0.625,-0.78125 v -3.125 h 1.15625 L 3.171875,-5.25 h -1.25 V -6.546875 L 1,-6.4375 V -5.25 H 0.09375 v 0.703125 H 1 V -1.375 c 0,0.96875 0.53125,1.5 1.421875,1.5 C 2.875,0.125 3.25,0 3.59375,-0.234375 Z m 0,0"
             id="id-db0c03c2-dddd-4252-a3a4-320fba144991" />
        </g>
      </g>
      <g
         fill="#000000"
         fill-opacity="1"
         id="id-c9f80d26-be73-4e90-ac80-3ec87527cbec"
         transform="translate(-149.712,-127.89)">
        <g
           transform="translate(177.384,134.765)"
           id="g2440">
          <path
             d="m 4.921875,-2.78125 c 0,-1.609375 -0.75,-2.59375 -2.171875,-2.59375 -1.359375,0 -2.1875,1.171875 -2.1875,2.796875 0,1.671875 0.859375,2.703125 2.328125,2.703125 0.734375,0 1.3125,-0.25 1.828125,-0.65625 L 4.328125,-1.09375 C 3.875,-0.765625 3.484375,-0.625 2.953125,-0.625 c -0.75,0 -1.3125,-0.46875 -1.40625,-1.6875 h 3.34375 c 0.015625,-0.125 0.03125,-0.296875 0.03125,-0.46875 z M 4,-2.984375 H 1.546875 c 0.0625,-1.171875 0.53125,-1.65625 1.21875,-1.65625 0.828125,0 1.234375,0.5625 1.234375,1.59375 z m 0,0"
             id="id-bea6dfaf-937a-4670-be38-eb4efb9b0fc4" />
        </g>
        <g
           transform="translate(182.804,134.765)"
           id="g2443">
          <path
             d="m 2.375,-5.375 c -1.09375,0 -1.890625,0.609375 -1.890625,1.453125 0,0.734375 0.4375,1.21875 1.578125,1.515625 1.015625,0.265625 1.28125,0.46875 1.28125,0.984375 0,0.5 -0.4375,0.796875 -1.125,0.796875 -0.578125,0 -1.0625,-0.1875 -1.484375,-0.5 L 0.25,-0.5625 c 0.453125,0.390625 1.09375,0.6875 1.984375,0.6875 1.0625,0 2.078125,-0.5 2.078125,-1.59375 0,-0.921875 -0.640625,-1.359375 -1.75,-1.640625 -0.84375,-0.21875 -1.125,-0.421875 -1.125,-0.84375 0,-0.421875 0.359375,-0.6875 0.96875,-0.6875 0.484375,0 0.890625,0.140625 1.359375,0.4375 L 4.15625,-4.78125 C 3.65625,-5.15625 3.109375,-5.375 2.375,-5.375 Z m 0,0"
             id="id-9d2a087b-0335-4a42-a9f6-a0f321aedc1d" />
        </g>
      </g>
    </g>
    <g
       transform="matrix(0.82211442,0,0,0.82211442,130.81299,127.71297)"
       ns2:version="1.3.0"
       ns2:texconverter="pdflatex"
       ns2:pdfconverter="inkscape"
       ns2:text="UV states"
       ns2:preamble="/home/abhirup/textext.tex"
       ns2:scale="3.4748625763086998"
       ns2:alignment="middle center"
       ns2:jacobian_sqrt="0.91939"
       id="g2574">
      <defs
         id="id-7825a5bc-f1a4-41bf-8b50-965297f76bae">
        <g
           id="id-55bbbc22-ac98-4a9a-986f-570d82a8a150">
          <g
             id="id-5e7e3c5f-f025-4f19-b429-23cd289c6058">
            <path
               d="M 5.40625,-10.46875 H 1.21875 V 3.484375 h 4.1875 z M 4.875,-9.953125 V 2.96875 H 1.78125 V -9.953125 Z M 3.234375,-4.5 c -0.390625,0 -0.9375,0.125 -0.9375,0.390625 0,0.125 0.09375,0.234375 0.25,0.234375 0.03125,0 0.078125,-0.015625 0.125,-0.03125 0.171875,-0.078125 0.3125,-0.109375 0.515625,-0.109375 0.5,0 0.609375,0.296875 0.609375,0.6875 0,0.53125 -0.1875,0.71875 -0.90625,0.765625 v 0.84375 c 0,0.140625 0.125,0.234375 0.25,0.234375 0.125,0 0.25,-0.09375 0.25,-0.234375 V -2.171875 C 4.0625,-2.265625 4.34375,-2.65625 4.34375,-3.34375 4.34375,-3.953125 4.09375,-4.5 3.234375,-4.5 Z m -0.09375,3.296875 c -0.203125,0 -0.34375,0.15625 -0.34375,0.359375 0,0.203125 0.140625,0.359375 0.34375,0.359375 0.203125,0 0.34375,-0.15625 0.34375,-0.359375 0,-0.203125 -0.140625,-0.359375 -0.34375,-0.359375 z m 0,0"
               id="id-ff5dcad9-00bc-49f9-be8e-796a28c70a8a" />
          </g>
          <g
             id="id-9895c8ff-e56c-4b31-8b96-6aa2924f0c08">
            <path
               d="M 5.703125,-6.875 H 4.75 v 4.609375 c 0,1.0625 -0.46875,1.59375 -1.453125,1.59375 -0.984375,0 -1.453125,-0.53125 -1.453125,-1.59375 V -6.875 H 0.890625 v 4.671875 c 0,1.359375 0.828125,2.328125 2.40625,2.328125 1.53125,0 2.40625,-0.96875 2.40625,-2.328125 z m 0,0"
               id="id-6e8ac0dc-b6e2-4a8c-b5da-8fe90596ac7a" />
          </g>
          <g
             id="id-ee9ae954-9dbc-408f-87f3-99877e92ff30">
            <path
               d="M 5.484375,-6.875 H 4.53125 L 2.796875,-1.03125 1.078125,-6.875 H 0.0625 L 2.265625,0 h 1.03125 z m 0,0"
               id="id-55d0c8ff-a99d-429a-87de-e4c99be79d62" />
          </g>
          <g
             id="id-c67fdc08-a14f-42c2-95f5-25df85c5d960">
            <path
               d="m 2.375,-5.375 c -1.09375,0 -1.890625,0.609375 -1.890625,1.453125 0,0.734375 0.4375,1.21875 1.578125,1.515625 1.015625,0.265625 1.28125,0.46875 1.28125,0.984375 0,0.5 -0.4375,0.796875 -1.125,0.796875 -0.578125,0 -1.0625,-0.1875 -1.484375,-0.5 L 0.25,-0.5625 c 0.453125,0.390625 1.09375,0.6875 1.984375,0.6875 1.0625,0 2.078125,-0.5 2.078125,-1.59375 0,-0.921875 -0.640625,-1.359375 -1.75,-1.640625 -0.84375,-0.21875 -1.125,-0.421875 -1.125,-0.84375 0,-0.421875 0.359375,-0.6875 0.96875,-0.6875 0.484375,0 0.890625,0.140625 1.359375,0.4375 L 4.15625,-4.78125 C 3.65625,-5.15625 3.109375,-5.375 2.375,-5.375 Z m 0,0"
               id="id-9bec3a0c-563b-482f-adb6-944bff4668bb" />
          </g>
          <g
             id="id-357603cd-e790-4beb-aaf9-0e8eb855ce9d">
            <path
               d="m 3.25,-0.84375 c -0.265625,0.140625 -0.46875,0.203125 -0.703125,0.203125 -0.453125,0 -0.625,-0.25 -0.625,-0.78125 v -3.125 h 1.15625 L 3.171875,-5.25 h -1.25 V -6.546875 L 1,-6.4375 V -5.25 H 0.09375 v 0.703125 H 1 V -1.375 c 0,0.96875 0.53125,1.5 1.421875,1.5 C 2.875,0.125 3.25,0 3.59375,-0.234375 Z m 0,0"
               id="id-2521775b-c5f9-4a63-97fd-f527198ee9c5" />
          </g>
          <g
             id="id-9c9a824e-1ee6-4096-bd02-76eb31924eb2">
            <path
               d="M 4.4375,-1.21875 V -3.625 c 0,-1.09375 -0.578125,-1.75 -1.84375,-1.75 C 2,-5.375 1.421875,-5.25 0.78125,-5.015625 L 1,-4.34375 C 1.546875,-4.53125 2.03125,-4.625 2.421875,-4.625 c 0.734375,0 1.09375,0.28125 1.09375,1.03125 v 0.390625 H 2.71875 c -1.46875,0 -2.3125,0.609375 -2.3125,1.734375 0,0.9375 0.625,1.59375 1.671875,1.59375 0.640625,0 1.1875,-0.25 1.5625,-0.796875 0.15625,0.515625 0.5,0.734375 1.03125,0.796875 L 4.875,-0.515625 C 4.609375,-0.625 4.4375,-0.765625 4.4375,-1.21875 Z M 2.28125,-0.5625 c -0.59375,0 -0.90625,-0.328125 -0.90625,-0.953125 0,-0.71875 0.484375,-1.078125 1.453125,-1.078125 h 0.6875 v 1.203125 C 3.21875,-0.84375 2.828125,-0.5625 2.28125,-0.5625 Z m 0,0"
               id="id-eeb1f10f-e435-4751-8ac6-71e96c552dd0" />
          </g>
          <g
             id="id-448f6475-f1d8-4b1b-beff-a50e00e2c5f4">
            <path
               d="m 4.921875,-2.78125 c 0,-1.609375 -0.75,-2.59375 -2.171875,-2.59375 -1.359375,0 -2.1875,1.171875 -2.1875,2.796875 0,1.671875 0.859375,2.703125 2.328125,2.703125 0.734375,0 1.3125,-0.25 1.828125,-0.65625 L 4.328125,-1.09375 C 3.875,-0.765625 3.484375,-0.625 2.953125,-0.625 c -0.75,0 -1.3125,-0.46875 -1.40625,-1.6875 h 3.34375 c 0.015625,-0.125 0.03125,-0.296875 0.03125,-0.46875 z M 4,-2.984375 H 1.546875 c 0.0625,-1.171875 0.53125,-1.65625 1.21875,-1.65625 0.828125,0 1.234375,0.5625 1.234375,1.59375 z m 0,0"
               id="id-5cf66cfe-d237-4cd5-9be0-af1762094e45" />
          </g>
        </g>
      </defs>
      <g
         fill="#000000"
         fill-opacity="1"
         id="id-19c67a98-dd8d-4f0c-b34e-dd6da8ef381f"
         transform="translate(-149.603,-127.89)">
        <g
           transform="translate(148.712,134.765)"
           id="g2767">
          <path
             d="M 5.703125,-6.875 H 4.75 v 4.609375 c 0,1.0625 -0.46875,1.59375 -1.453125,1.59375 -0.984375,0 -1.453125,-0.53125 -1.453125,-1.59375 V -6.875 H 0.890625 v 4.671875 c 0,1.359375 0.828125,2.328125 2.40625,2.328125 1.53125,0 2.40625,-0.96875 2.40625,-2.328125 z m 0,0"
             id="id-d6f0964f-8277-4785-b80d-1bbf199fb1bf" />
        </g>
        <g
           transform="translate(155.307,134.765)"
           id="g2770">
          <path
             d="M 5.484375,-6.875 H 4.53125 L 2.796875,-1.03125 1.078125,-6.875 H 0.0625 L 2.265625,0 h 1.03125 z m 0,0"
             id="id-dadbb2de-adbb-4353-a2ce-b7189615c63a" />
        </g>
      </g>
      <g
         fill="#000000"
         fill-opacity="1"
         id="id-f26ed501-e321-4a96-af85-64cd7a13e09d"
         transform="translate(-149.603,-127.89)">
        <g
           transform="translate(163.487,134.765)"
           id="g2774">
          <path
             d="m 2.375,-5.375 c -1.09375,0 -1.890625,0.609375 -1.890625,1.453125 0,0.734375 0.4375,1.21875 1.578125,1.515625 1.015625,0.265625 1.28125,0.46875 1.28125,0.984375 0,0.5 -0.4375,0.796875 -1.125,0.796875 -0.578125,0 -1.0625,-0.1875 -1.484375,-0.5 L 0.25,-0.5625 c 0.453125,0.390625 1.09375,0.6875 1.984375,0.6875 1.0625,0 2.078125,-0.5 2.078125,-1.59375 0,-0.921875 -0.640625,-1.359375 -1.75,-1.640625 -0.84375,-0.21875 -1.125,-0.421875 -1.125,-0.84375 0,-0.421875 0.359375,-0.6875 0.96875,-0.6875 0.484375,0 0.890625,0.140625 1.359375,0.4375 L 4.15625,-4.78125 C 3.65625,-5.15625 3.109375,-5.375 2.375,-5.375 Z m 0,0"
             id="id-bde8d755-f6c4-4162-a267-4f24c6b780d9" />
        </g>
        <g
           transform="translate(168.139,134.765)"
           id="g2777">
          <path
             d="m 3.25,-0.84375 c -0.265625,0.140625 -0.46875,0.203125 -0.703125,0.203125 -0.453125,0 -0.625,-0.25 -0.625,-0.78125 v -3.125 h 1.15625 L 3.171875,-5.25 h -1.25 V -6.546875 L 1,-6.4375 V -5.25 H 0.09375 v 0.703125 H 1 V -1.375 c 0,0.96875 0.53125,1.5 1.421875,1.5 C 2.875,0.125 3.25,0 3.59375,-0.234375 Z m 0,0"
             id="id-3bc65601-6edb-4eca-948d-3eccd2f75806" />
        </g>
        <g
           transform="translate(171.736,134.765)"
           id="g2780">
          <path
             d="M 4.4375,-1.21875 V -3.625 c 0,-1.09375 -0.578125,-1.75 -1.84375,-1.75 C 2,-5.375 1.421875,-5.25 0.78125,-5.015625 L 1,-4.34375 C 1.546875,-4.53125 2.03125,-4.625 2.421875,-4.625 c 0.734375,0 1.09375,0.28125 1.09375,1.03125 v 0.390625 H 2.71875 c -1.46875,0 -2.3125,0.609375 -2.3125,1.734375 0,0.9375 0.625,1.59375 1.671875,1.59375 0.640625,0 1.1875,-0.25 1.5625,-0.796875 0.15625,0.515625 0.5,0.734375 1.03125,0.796875 L 4.875,-0.515625 C 4.609375,-0.625 4.4375,-0.765625 4.4375,-1.21875 Z M 2.28125,-0.5625 c -0.59375,0 -0.90625,-0.328125 -0.90625,-0.953125 0,-0.71875 0.484375,-1.078125 1.453125,-1.078125 h 0.6875 v 1.203125 C 3.21875,-0.84375 2.828125,-0.5625 2.28125,-0.5625 Z m 0,0"
             id="id-411feb04-f5df-4cf3-9306-56c9b0a1566c" />
        </g>
        <g
           transform="translate(177.105,134.765)"
           id="g2783">
          <path
             d="m 3.25,-0.84375 c -0.265625,0.140625 -0.46875,0.203125 -0.703125,0.203125 -0.453125,0 -0.625,-0.25 -0.625,-0.78125 v -3.125 h 1.15625 L 3.171875,-5.25 h -1.25 V -6.546875 L 1,-6.4375 V -5.25 H 0.09375 v 0.703125 H 1 V -1.375 c 0,0.96875 0.53125,1.5 1.421875,1.5 C 2.875,0.125 3.25,0 3.59375,-0.234375 Z m 0,0"
             id="id-f2314e78-9fc9-4cec-a96e-c73d7bfea178" />
        </g>
      </g>
      <g
         fill="#000000"
         fill-opacity="1"
         id="id-90974515-df95-46b3-a16c-6c834d2e1c11"
         transform="translate(-149.603,-127.89)">
        <g
           transform="translate(180.552,134.765)"
           id="g2787">
          <path
             d="m 4.921875,-2.78125 c 0,-1.609375 -0.75,-2.59375 -2.171875,-2.59375 -1.359375,0 -2.1875,1.171875 -2.1875,2.796875 0,1.671875 0.859375,2.703125 2.328125,2.703125 0.734375,0 1.3125,-0.25 1.828125,-0.65625 L 4.328125,-1.09375 C 3.875,-0.765625 3.484375,-0.625 2.953125,-0.625 c -0.75,0 -1.3125,-0.46875 -1.40625,-1.6875 h 3.34375 c 0.015625,-0.125 0.03125,-0.296875 0.03125,-0.46875 z M 4,-2.984375 H 1.546875 c 0.0625,-1.171875 0.53125,-1.65625 1.21875,-1.65625 0.828125,0 1.234375,0.5625 1.234375,1.59375 z m 0,0"
             id="id-16fe4b6a-25b0-4065-8ad5-f3a3b8eb7806" />
        </g>
        <g
           transform="translate(185.972,134.765)"
           id="g2790">
          <path
             d="m 2.375,-5.375 c -1.09375,0 -1.890625,0.609375 -1.890625,1.453125 0,0.734375 0.4375,1.21875 1.578125,1.515625 1.015625,0.265625 1.28125,0.46875 1.28125,0.984375 0,0.5 -0.4375,0.796875 -1.125,0.796875 -0.578125,0 -1.0625,-0.1875 -1.484375,-0.5 L 0.25,-0.5625 c 0.453125,0.390625 1.09375,0.6875 1.984375,0.6875 1.0625,0 2.078125,-0.5 2.078125,-1.59375 0,-0.921875 -0.640625,-1.359375 -1.75,-1.640625 -0.84375,-0.21875 -1.125,-0.421875 -1.125,-0.84375 0,-0.421875 0.359375,-0.6875 0.96875,-0.6875 0.484375,0 0.890625,0.140625 1.359375,0.4375 L 4.15625,-4.78125 C 3.65625,-5.15625 3.109375,-5.375 2.375,-5.375 Z m 0,0"
             id="id-2b428bf1-8c56-465a-b04f-429bed055f27" />
        </g>
      </g>
    </g>
    <path
       style="fill:none;stroke:#000000;stroke-width:1;stroke-linecap:butt;stroke-linejoin:miter;stroke-miterlimit:4;stroke-dasharray:none;stroke-dashoffset:0;stroke-opacity:1;marker-end:url(#Arrow2Mend)"
       d="M 144.58137,138.14767 H 35.322758"
       id="path6911"
       inkscape:path-effect="#path-effect6913"
       inkscape:original-d="m 144.58137,138.14767 c -36.4191,2.7e-4 -72.838638,2.7e-4 -109.258612,0" />
    <path
       style="fill:none;stroke:#000000;stroke-width:0.888171;stroke-linecap:butt;stroke-linejoin:miter;stroke-miterlimit:4;stroke-dasharray:1.77634, 0.888171;stroke-dashoffset:0;stroke-opacity:1"
       d="m 36.803306,84.190618 c 5.861971,5.444664 9.324372,13.38608 9.324372,21.386522 0,8.00044 -3.462401,15.94186 -9.324372,21.38652"
       id="path8125"
       inkscape:path-effect="#path-effect8129"
       inkscape:original-d="m 36.803306,84.190618 c 3.108389,7.129049 6.216512,14.25789 9.324372,21.386522 3.107856,7.12863 -6.215983,14.25789 -9.324372,21.38652" />
    <rect
       style="opacity:1;fill:url(#linearGradient20323);fill-opacity:1;stroke:none;stroke-width:2.36765;stroke-miterlimit:4;stroke-dasharray:none;stroke-dashoffset:0"
       id="rect10084"
       width="159.57382"
       height="10.166804"
       x="-168.70969"
       y="101.50169"
       transform="scale(-1,1)" />
    <g
       transform="matrix(0.91939,0,0,0.91939,49.864733,143.75544)"
       ns2:version="1.3.0"
       ns2:texconverter="pdflatex"
       ns2:pdfconverter="inkscape"
       ns2:text="URG transformations"
       ns2:preamble="/home/abhirup/textext.tex"
       ns2:scale="3.4748625763086998"
       ns2:alignment="middle center"
       ns2:inkscapeversion="1.1.2"
       ns2:jacobian_sqrt="0.91939"
       id="g9646">
      <defs
         id="id-c90bccca-57cc-49fc-83e5-8be4f2cc6b2b">
        <g
           id="id-eda19ca7-b33f-4dde-adbf-2ad2aba7212f">
          <g
             id="id-31d4bb14-1dab-4eb9-9ed3-b1e2cd6266ad">
            <path
               d="M 5.40625,-10.46875 H 1.21875 V 3.484375 h 4.1875 z M 4.875,-9.953125 V 2.96875 H 1.78125 V -9.953125 Z M 3.234375,-4.5 c -0.390625,0 -0.9375,0.125 -0.9375,0.390625 0,0.125 0.09375,0.234375 0.25,0.234375 0.03125,0 0.078125,-0.015625 0.125,-0.03125 0.171875,-0.078125 0.3125,-0.109375 0.515625,-0.109375 0.5,0 0.609375,0.296875 0.609375,0.6875 0,0.53125 -0.1875,0.71875 -0.90625,0.765625 v 0.84375 c 0,0.140625 0.125,0.234375 0.25,0.234375 0.125,0 0.25,-0.09375 0.25,-0.234375 V -2.171875 C 4.0625,-2.265625 4.34375,-2.65625 4.34375,-3.34375 4.34375,-3.953125 4.09375,-4.5 3.234375,-4.5 Z m -0.09375,3.296875 c -0.203125,0 -0.34375,0.15625 -0.34375,0.359375 0,0.203125 0.140625,0.359375 0.34375,0.359375 0.203125,0 0.34375,-0.15625 0.34375,-0.359375 0,-0.203125 -0.140625,-0.359375 -0.34375,-0.359375 z m 0,0"
               id="id-63a16a2b-fe5c-445f-a83b-23ba73bbb97d" />
          </g>
          <g
             id="id-61cf1032-e2ad-4dc2-8d6e-8fcf84989869">
            <path
               d="M 5.703125,-6.875 H 4.75 v 4.609375 c 0,1.0625 -0.46875,1.59375 -1.453125,1.59375 -0.984375,0 -1.453125,-0.53125 -1.453125,-1.59375 V -6.875 H 0.890625 v 4.671875 c 0,1.359375 0.828125,2.328125 2.40625,2.328125 1.53125,0 2.40625,-0.96875 2.40625,-2.328125 z m 0,0"
               id="id-8de5053f-1fc4-4455-980e-e49145d00894" />
          </g>
          <g
             id="id-0e5f8442-6b8a-49c6-b1cf-c3ef88e9966f">
            <path
               d="m 4.65625,0 h 1.125 L 3.921875,-3.078125 c 1,-0.296875 1.484375,-0.875 1.484375,-1.84375 0,-1.28125 -0.890625,-1.953125 -2.609375,-1.953125 H 1 V 0 H 1.9375 V -2.90625 H 3.015625 Z M 1.9375,-3.640625 V -6.125 h 0.859375 c 1.125,0 1.609375,0.34375 1.609375,1.203125 0,0.921875 -0.546875,1.28125 -1.5,1.28125 z m 0,0"
               id="id-fc0049c5-f712-43dd-b6aa-f778b3d49951" />
          </g>
          <g
             id="id-39f62a45-84bd-4fa3-ae73-25b93ff043c8">
            <path
               d="m 3.53125,-6.984375 c -1.59375,0 -2.984375,1.234375 -2.984375,3.546875 0,2.375 1.109375,3.5625 2.875,3.5625 0.890625,0 1.609375,-0.25 2.25,-0.609375 V -3.8125 H 3.40625 l 0.109375,0.765625 h 1.21875 v 2.078125 c -0.390625,0.21875 -0.84375,0.3125 -1.3125,0.3125 -1.203125,0 -1.859375,-0.8125 -1.859375,-2.78125 0,-2.03125 0.984375,-2.765625 1.96875,-2.765625 0.609375,0 1.03125,0.15625 1.5,0.546875 l 0.5625,-0.578125 C 5,-6.71875 4.4375,-6.984375 3.53125,-6.984375 Z m 0,0"
               id="id-5102e28b-f579-437d-a758-99a4d9778139" />
          </g>
          <g
             id="id-4b066e1d-d927-43f3-99c9-53163e6f2ede">
            <path
               d="m 3.25,-0.84375 c -0.265625,0.140625 -0.46875,0.203125 -0.703125,0.203125 -0.453125,0 -0.625,-0.25 -0.625,-0.78125 v -3.125 h 1.15625 L 3.171875,-5.25 h -1.25 V -6.546875 L 1,-6.4375 V -5.25 H 0.09375 v 0.703125 H 1 V -1.375 c 0,0.96875 0.53125,1.5 1.421875,1.5 C 2.875,0.125 3.25,0 3.59375,-0.234375 Z m 0,0"
               id="id-4a29f7e2-597d-4c94-8c8c-74c7bab8822d" />
          </g>
          <g
             id="id-25f7ccb4-f37e-45e9-a417-486230050aa3">
            <path
               d="m 3.203125,-5.375 c -0.640625,0 -1.125,0.40625 -1.40625,1.1875 L 1.703125,-5.25 H 0.921875 V 0 h 0.90625 v -3 c 0.21875,-1 0.609375,-1.46875 1.265625,-1.46875 0.1875,0 0.296875,0.015625 0.453125,0.046875 L 3.71875,-5.3125 C 3.5625,-5.359375 3.375,-5.375 3.203125,-5.375 Z m 0,0"
               id="id-63e1501d-4c35-43ca-9063-3d3ffc2deeac" />
          </g>
          <g
             id="id-f26fcd3d-ad44-498e-b58d-2947280c1010">
            <path
               d="M 4.4375,-1.21875 V -3.625 c 0,-1.09375 -0.578125,-1.75 -1.84375,-1.75 C 2,-5.375 1.421875,-5.25 0.78125,-5.015625 L 1,-4.34375 C 1.546875,-4.53125 2.03125,-4.625 2.421875,-4.625 c 0.734375,0 1.09375,0.28125 1.09375,1.03125 v 0.390625 H 2.71875 c -1.46875,0 -2.3125,0.609375 -2.3125,1.734375 0,0.9375 0.625,1.59375 1.671875,1.59375 0.640625,0 1.1875,-0.25 1.5625,-0.796875 0.15625,0.515625 0.5,0.734375 1.03125,0.796875 L 4.875,-0.515625 C 4.609375,-0.625 4.4375,-0.765625 4.4375,-1.21875 Z M 2.28125,-0.5625 c -0.59375,0 -0.90625,-0.328125 -0.90625,-0.953125 0,-0.71875 0.484375,-1.078125 1.453125,-1.078125 h 0.6875 v 1.203125 C 3.21875,-0.84375 2.828125,-0.5625 2.28125,-0.5625 Z m 0,0"
               id="id-047be3b6-fc2f-4e10-98b6-9ce86cd11f30" />
          </g>
          <g
             id="id-d8dab11e-d537-4e14-9877-9df40fdad32c">
            <path
               d="m 3.390625,-5.375 c -0.6875,0 -1.25,0.359375 -1.609375,0.90625 L 1.703125,-5.25 H 0.921875 V 0 h 0.90625 V -3.734375 C 2.1875,-4.28125 2.578125,-4.65625 3.171875,-4.65625 3.671875,-4.65625 4,-4.421875 4,-3.640625 V 0 h 0.921875 v -3.765625 c 0,-1 -0.5625,-1.609375 -1.53125,-1.609375 z m 0,0"
               id="id-1d25e11c-b865-46c4-9557-3362c0af4950" />
          </g>
          <g
             id="id-9063ae71-88f0-4caa-b223-bf0954e671db">
            <path
               d="m 2.375,-5.375 c -1.09375,0 -1.890625,0.609375 -1.890625,1.453125 0,0.734375 0.4375,1.21875 1.578125,1.515625 1.015625,0.265625 1.28125,0.46875 1.28125,0.984375 0,0.5 -0.4375,0.796875 -1.125,0.796875 -0.578125,0 -1.0625,-0.1875 -1.484375,-0.5 L 0.25,-0.5625 c 0.453125,0.390625 1.09375,0.6875 1.984375,0.6875 1.0625,0 2.078125,-0.5 2.078125,-1.59375 0,-0.921875 -0.640625,-1.359375 -1.75,-1.640625 -0.84375,-0.21875 -1.125,-0.421875 -1.125,-0.84375 0,-0.421875 0.359375,-0.6875 0.96875,-0.6875 0.484375,0 0.890625,0.140625 1.359375,0.4375 L 4.15625,-4.78125 C 3.65625,-5.15625 3.109375,-5.375 2.375,-5.375 Z m 0,0"
               id="id-f37b3e41-2d2e-43ee-9f3c-4c04cd9d2e61" />
          </g>
          <g
             id="id-66635615-000c-410d-b0c8-e6e424a1888f">
            <path
               d="m 2.734375,-6.734375 c 0.265625,0 0.578125,0.046875 0.921875,0.1875 l 0.28125,-0.65625 c -0.421875,-0.1875 -0.75,-0.28125 -1.25,-0.28125 -1.078125,0 -1.65625,0.640625 -1.65625,1.515625 V -5.25 h -0.9375 v 0.703125 h 0.9375 V 0 H 1.953125 V -4.546875 H 3.125 L 3.234375,-5.25 h -1.28125 v -0.734375 c 0,-0.5 0.203125,-0.75 0.78125,-0.75 z m 0,0"
               id="id-b888e085-d784-4878-8cff-ac84581dbd65" />
          </g>
          <g
             id="id-26a0e1db-e549-4103-8da0-9f7b3f783bbb">
            <path
               d="m 2.921875,-5.375 c -1.5,0 -2.359375,1.125 -2.359375,2.75 0,1.671875 0.859375,2.75 2.34375,2.75 C 4.390625,0.125 5.25,-1 5.25,-2.625 c 0,-1.671875 -0.828125,-2.75 -2.328125,-2.75 z m 0,0.734375 c 0.859375,0 1.34375,0.640625 1.34375,2.015625 0,1.375 -0.484375,2 -1.359375,2 -0.875,0 -1.34375,-0.625 -1.34375,-2 0,-1.375 0.484375,-2.015625 1.359375,-2.015625 z m 0,0"
               id="id-d10b597e-a71a-49ae-9fe2-31c3e82d8944" />
          </g>
          <g
             id="id-b6e47f1d-b943-44ad-ae36-26c5957f58e3">
            <path
               d="M 6.1875,-5.375 C 5.484375,-5.375 5,-5 4.625,-4.421875 4.421875,-5.03125 3.953125,-5.375 3.296875,-5.375 c -0.6875,0 -1.15625,0.359375 -1.515625,0.890625 L 1.703125,-5.25 H 0.921875 V 0 h 0.90625 V -3.734375 C 2.1875,-4.28125 2.5,-4.65625 3.078125,-4.65625 c 0.390625,0 0.734375,0.234375 0.734375,1.015625 V 0 h 0.90625 v -3.734375 c 0.359375,-0.546875 0.671875,-0.921875 1.25,-0.921875 0.390625,0 0.734375,0.234375 0.734375,1.015625 V 0 h 0.90625 V -3.765625 C 7.609375,-4.75 7.046875,-5.375 6.1875,-5.375 Z m 0,0"
               id="id-60237580-3182-42e5-8979-db1fd2fabd9e" />
          </g>
          <g
             id="id-af282957-2345-4f55-a03e-7cb80a83a992">
            <path
               d="m 1.359375,-7.78125 c -0.375,0 -0.625,0.28125 -0.625,0.640625 0,0.34375 0.25,0.609375 0.625,0.609375 0.390625,0 0.65625,-0.265625 0.65625,-0.609375 C 2.015625,-7.5 1.75,-7.78125 1.359375,-7.78125 Z M 1.828125,-5.25 H 0.921875 V 0 h 0.90625 z m 0,0"
               id="id-29ecab8f-7fe7-4dfa-b11d-c5c0eeb77b8e" />
          </g>
        </g>
      </defs>
      <g
         fill="#000000"
         fill-opacity="1"
         id="id-5cc6427c-e441-47a7-ab71-e254bd1bf87f"
         transform="translate(-149.603,-126.984)">
        <g
           transform="translate(148.712,134.765)"
           id="g9588">
          <path
             d="M 5.703125,-6.875 H 4.75 v 4.609375 c 0,1.0625 -0.46875,1.59375 -1.453125,1.59375 -0.984375,0 -1.453125,-0.53125 -1.453125,-1.59375 V -6.875 H 0.890625 v 4.671875 c 0,1.359375 0.828125,2.328125 2.40625,2.328125 1.53125,0 2.40625,-0.96875 2.40625,-2.328125 z m 0,0"
             id="id-dde647b5-c023-40db-844b-c95fec1d6b63" />
        </g>
        <g
           transform="translate(155.307,134.765)"
           id="g9591">
          <path
             d="m 4.65625,0 h 1.125 L 3.921875,-3.078125 c 1,-0.296875 1.484375,-0.875 1.484375,-1.84375 0,-1.28125 -0.890625,-1.953125 -2.609375,-1.953125 H 1 V 0 H 1.9375 V -2.90625 H 3.015625 Z M 1.9375,-3.640625 V -6.125 h 0.859375 c 1.125,0 1.609375,0.34375 1.609375,1.203125 0,0.921875 -0.546875,1.28125 -1.5,1.28125 z m 0,0"
             id="id-b45e071c-c6dd-4b58-9e0f-44145b0c3644" />
        </g>
      </g>
      <g
         fill="#000000"
         fill-opacity="1"
         id="id-f4337002-dca9-476d-a7d5-cb88eb0f08f1"
         transform="translate(-149.603,-126.984)">
        <g
           transform="translate(161.245,134.765)"
           id="g9595">
          <path
             d="m 3.53125,-6.984375 c -1.59375,0 -2.984375,1.234375 -2.984375,3.546875 0,2.375 1.109375,3.5625 2.875,3.5625 0.890625,0 1.609375,-0.25 2.25,-0.609375 V -3.8125 H 3.40625 l 0.109375,0.765625 h 1.21875 v 2.078125 c -0.390625,0.21875 -0.84375,0.3125 -1.3125,0.3125 -1.203125,0 -1.859375,-0.8125 -1.859375,-2.78125 0,-2.03125 0.984375,-2.765625 1.96875,-2.765625 0.609375,0 1.03125,0.15625 1.5,0.546875 l 0.5625,-0.578125 C 5,-6.71875 4.4375,-6.984375 3.53125,-6.984375 Z m 0,0"
             id="id-bef61496-804d-41c4-b3bb-e33a3dfde9fa" />
        </g>
      </g>
      <g
         fill="#000000"
         fill-opacity="1"
         id="id-cc3da3a0-5ade-4973-bbbc-38454dc97c9c"
         transform="translate(-149.603,-126.984)">
        <g
           transform="translate(170.171,134.765)"
           id="g9599">
          <path
             d="m 3.25,-0.84375 c -0.265625,0.140625 -0.46875,0.203125 -0.703125,0.203125 -0.453125,0 -0.625,-0.25 -0.625,-0.78125 v -3.125 h 1.15625 L 3.171875,-5.25 h -1.25 V -6.546875 L 1,-6.4375 V -5.25 H 0.09375 v 0.703125 H 1 V -1.375 c 0,0.96875 0.53125,1.5 1.421875,1.5 C 2.875,0.125 3.25,0 3.59375,-0.234375 Z m 0,0"
             id="id-7fa0fd7e-d7b2-4fe8-9a11-6b7a68716150" />
        </g>
        <g
           transform="translate(173.768,134.765)"
           id="g9602">
          <path
             d="m 3.203125,-5.375 c -0.640625,0 -1.125,0.40625 -1.40625,1.1875 L 1.703125,-5.25 H 0.921875 V 0 h 0.90625 v -3 c 0.21875,-1 0.609375,-1.46875 1.265625,-1.46875 0.1875,0 0.296875,0.015625 0.453125,0.046875 L 3.71875,-5.3125 C 3.5625,-5.359375 3.375,-5.375 3.203125,-5.375 Z m 0,0"
             id="id-c528e901-6b01-4957-9149-25c145e0e806" />
        </g>
      </g>
      <g
         fill="#000000"
         fill-opacity="1"
         id="id-f9c0610d-acd5-49b1-80b4-169bd8ddbcba"
         transform="translate(-149.603,-126.984)">
        <g
           transform="translate(177.384,134.765)"
           id="g9606">
          <path
             d="M 4.4375,-1.21875 V -3.625 c 0,-1.09375 -0.578125,-1.75 -1.84375,-1.75 C 2,-5.375 1.421875,-5.25 0.78125,-5.015625 L 1,-4.34375 C 1.546875,-4.53125 2.03125,-4.625 2.421875,-4.625 c 0.734375,0 1.09375,0.28125 1.09375,1.03125 v 0.390625 H 2.71875 c -1.46875,0 -2.3125,0.609375 -2.3125,1.734375 0,0.9375 0.625,1.59375 1.671875,1.59375 0.640625,0 1.1875,-0.25 1.5625,-0.796875 0.15625,0.515625 0.5,0.734375 1.03125,0.796875 L 4.875,-0.515625 C 4.609375,-0.625 4.4375,-0.765625 4.4375,-1.21875 Z M 2.28125,-0.5625 c -0.59375,0 -0.90625,-0.328125 -0.90625,-0.953125 0,-0.71875 0.484375,-1.078125 1.453125,-1.078125 h 0.6875 v 1.203125 C 3.21875,-0.84375 2.828125,-0.5625 2.28125,-0.5625 Z m 0,0"
             id="id-1a6f2808-1532-4468-a2f5-0e4422ffe029" />
        </g>
        <g
           transform="translate(182.754,134.765)"
           id="g9609">
          <path
             d="m 3.390625,-5.375 c -0.6875,0 -1.25,0.359375 -1.609375,0.90625 L 1.703125,-5.25 H 0.921875 V 0 h 0.90625 V -3.734375 C 2.1875,-4.28125 2.578125,-4.65625 3.171875,-4.65625 3.671875,-4.65625 4,-4.421875 4,-3.640625 V 0 h 0.921875 v -3.765625 c 0,-1 -0.5625,-1.609375 -1.53125,-1.609375 z m 0,0"
             id="id-231017c0-75c6-49c7-9afd-6e670aee34f4" />
        </g>
        <g
           transform="translate(188.523,134.765)"
           id="g9612">
          <path
             d="m 2.375,-5.375 c -1.09375,0 -1.890625,0.609375 -1.890625,1.453125 0,0.734375 0.4375,1.21875 1.578125,1.515625 1.015625,0.265625 1.28125,0.46875 1.28125,0.984375 0,0.5 -0.4375,0.796875 -1.125,0.796875 -0.578125,0 -1.0625,-0.1875 -1.484375,-0.5 L 0.25,-0.5625 c 0.453125,0.390625 1.09375,0.6875 1.984375,0.6875 1.0625,0 2.078125,-0.5 2.078125,-1.59375 0,-0.921875 -0.640625,-1.359375 -1.75,-1.640625 -0.84375,-0.21875 -1.125,-0.421875 -1.125,-0.84375 0,-0.421875 0.359375,-0.6875 0.96875,-0.6875 0.484375,0 0.890625,0.140625 1.359375,0.4375 L 4.15625,-4.78125 C 3.65625,-5.15625 3.109375,-5.375 2.375,-5.375 Z m 0,0"
             id="id-9981dc4a-1492-429d-8e4a-8257279248f2" />
        </g>
        <g
           transform="translate(193.175,134.765)"
           id="g9615">
          <path
             d="m 2.734375,-6.734375 c 0.265625,0 0.578125,0.046875 0.921875,0.1875 l 0.28125,-0.65625 c -0.421875,-0.1875 -0.75,-0.28125 -1.25,-0.28125 -1.078125,0 -1.65625,0.640625 -1.65625,1.515625 V -5.25 h -0.9375 v 0.703125 h 0.9375 V 0 H 1.953125 V -4.546875 H 3.125 L 3.234375,-5.25 h -1.28125 v -0.734375 c 0,-0.5 0.203125,-0.75 0.78125,-0.75 z m 0,0"
             id="id-efe9f282-e039-4d9b-9568-c06862b8953d" />
        </g>
      </g>
      <g
         fill="#000000"
         fill-opacity="1"
         id="id-a8b2c109-7760-4878-9799-c8f6a3af0057"
         transform="translate(-149.603,-126.984)">
        <g
           transform="translate(196.413,134.765)"
           id="g9619">
          <path
             d="m 2.921875,-5.375 c -1.5,0 -2.359375,1.125 -2.359375,2.75 0,1.671875 0.859375,2.75 2.34375,2.75 C 4.390625,0.125 5.25,-1 5.25,-2.625 c 0,-1.671875 -0.828125,-2.75 -2.328125,-2.75 z m 0,0.734375 c 0.859375,0 1.34375,0.640625 1.34375,2.015625 0,1.375 -0.484375,2 -1.359375,2 -0.875,0 -1.34375,-0.625 -1.34375,-2 0,-1.375 0.484375,-2.015625 1.359375,-2.015625 z m 0,0"
             id="id-d8f06536-c7a6-41c0-86c5-c995430c33bd" />
        </g>
        <g
           transform="translate(202.231,134.765)"
           id="g9622">
          <path
             d="m 3.203125,-5.375 c -0.640625,0 -1.125,0.40625 -1.40625,1.1875 L 1.703125,-5.25 H 0.921875 V 0 h 0.90625 v -3 c 0.21875,-1 0.609375,-1.46875 1.265625,-1.46875 0.1875,0 0.296875,0.015625 0.453125,0.046875 L 3.71875,-5.3125 C 3.5625,-5.359375 3.375,-5.375 3.203125,-5.375 Z m 0,0"
             id="id-9fd4d9ac-5a2d-4e0e-9c4c-6c91ae061e10" />
        </g>
        <g
           transform="translate(206.047,134.765)"
           id="g9625">
          <path
             d="M 6.1875,-5.375 C 5.484375,-5.375 5,-5 4.625,-4.421875 4.421875,-5.03125 3.953125,-5.375 3.296875,-5.375 c -0.6875,0 -1.15625,0.359375 -1.515625,0.890625 L 1.703125,-5.25 H 0.921875 V 0 h 0.90625 V -3.734375 C 2.1875,-4.28125 2.5,-4.65625 3.078125,-4.65625 c 0.390625,0 0.734375,0.234375 0.734375,1.015625 V 0 h 0.90625 v -3.734375 c 0.359375,-0.546875 0.671875,-0.921875 1.25,-0.921875 0.390625,0 0.734375,0.234375 0.734375,1.015625 V 0 h 0.90625 V -3.765625 C 7.609375,-4.75 7.046875,-5.375 6.1875,-5.375 Z m 0,0"
             id="id-434c20ca-e7a1-439b-954d-21c88c4d95b0" />
        </g>
        <g
           transform="translate(214.515,134.765)"
           id="g9628">
          <path
             d="M 4.4375,-1.21875 V -3.625 c 0,-1.09375 -0.578125,-1.75 -1.84375,-1.75 C 2,-5.375 1.421875,-5.25 0.78125,-5.015625 L 1,-4.34375 C 1.546875,-4.53125 2.03125,-4.625 2.421875,-4.625 c 0.734375,0 1.09375,0.28125 1.09375,1.03125 v 0.390625 H 2.71875 c -1.46875,0 -2.3125,0.609375 -2.3125,1.734375 0,0.9375 0.625,1.59375 1.671875,1.59375 0.640625,0 1.1875,-0.25 1.5625,-0.796875 0.15625,0.515625 0.5,0.734375 1.03125,0.796875 L 4.875,-0.515625 C 4.609375,-0.625 4.4375,-0.765625 4.4375,-1.21875 Z M 2.28125,-0.5625 c -0.59375,0 -0.90625,-0.328125 -0.90625,-0.953125 0,-0.71875 0.484375,-1.078125 1.453125,-1.078125 h 0.6875 v 1.203125 C 3.21875,-0.84375 2.828125,-0.5625 2.28125,-0.5625 Z m 0,0"
             id="id-6645f3bd-e455-4276-a3a0-38c8646fc3af" />
        </g>
        <g
           transform="translate(219.885,134.765)"
           id="g9631">
          <path
             d="m 3.25,-0.84375 c -0.265625,0.140625 -0.46875,0.203125 -0.703125,0.203125 -0.453125,0 -0.625,-0.25 -0.625,-0.78125 v -3.125 h 1.15625 L 3.171875,-5.25 h -1.25 V -6.546875 L 1,-6.4375 V -5.25 H 0.09375 v 0.703125 H 1 V -1.375 c 0,0.96875 0.53125,1.5 1.421875,1.5 C 2.875,0.125 3.25,0 3.59375,-0.234375 Z m 0,0"
             id="id-0b72b305-3f71-4f6f-80f1-c9e8a813de03" />
        </g>
        <g
           transform="translate(223.481,134.765)"
           id="g9634">
          <path
             d="m 1.359375,-7.78125 c -0.375,0 -0.625,0.28125 -0.625,0.640625 0,0.34375 0.25,0.609375 0.625,0.609375 0.390625,0 0.65625,-0.265625 0.65625,-0.609375 C 2.015625,-7.5 1.75,-7.78125 1.359375,-7.78125 Z M 1.828125,-5.25 H 0.921875 V 0 h 0.90625 z m 0,0"
             id="id-f4256b6f-31f7-4d8d-be52-13cb474e667b" />
        </g>
        <g
           transform="translate(226.231,134.765)"
           id="g9637">
          <path
             d="m 2.921875,-5.375 c -1.5,0 -2.359375,1.125 -2.359375,2.75 0,1.671875 0.859375,2.75 2.34375,2.75 C 4.390625,0.125 5.25,-1 5.25,-2.625 c 0,-1.671875 -0.828125,-2.75 -2.328125,-2.75 z m 0,0.734375 c 0.859375,0 1.34375,0.640625 1.34375,2.015625 0,1.375 -0.484375,2 -1.359375,2 -0.875,0 -1.34375,-0.625 -1.34375,-2 0,-1.375 0.484375,-2.015625 1.359375,-2.015625 z m 0,0"
             id="id-3339b29f-5ae2-42c3-98ff-30a8f9a011b3" />
        </g>
        <g
           transform="translate(232.049,134.765)"
           id="g9640">
          <path
             d="m 3.390625,-5.375 c -0.6875,0 -1.25,0.359375 -1.609375,0.90625 L 1.703125,-5.25 H 0.921875 V 0 h 0.90625 V -3.734375 C 2.1875,-4.28125 2.578125,-4.65625 3.171875,-4.65625 3.671875,-4.65625 4,-4.421875 4,-3.640625 V 0 h 0.921875 v -3.765625 c 0,-1 -0.5625,-1.609375 -1.53125,-1.609375 z m 0,0"
             id="id-45ec36a5-5b73-4736-8f43-4685e6a39adf" />
        </g>
        <g
           transform="translate(237.817,134.765)"
           id="g9643">
          <path
             d="m 2.375,-5.375 c -1.09375,0 -1.890625,0.609375 -1.890625,1.453125 0,0.734375 0.4375,1.21875 1.578125,1.515625 1.015625,0.265625 1.28125,0.46875 1.28125,0.984375 0,0.5 -0.4375,0.796875 -1.125,0.796875 -0.578125,0 -1.0625,-0.1875 -1.484375,-0.5 L 0.25,-0.5625 c 0.453125,0.390625 1.09375,0.6875 1.984375,0.6875 1.0625,0 2.078125,-0.5 2.078125,-1.59375 0,-0.921875 -0.640625,-1.359375 -1.75,-1.640625 -0.84375,-0.21875 -1.125,-0.421875 -1.125,-0.84375 0,-0.421875 0.359375,-0.6875 0.96875,-0.6875 0.484375,0 0.890625,0.140625 1.359375,0.4375 L 4.15625,-4.78125 C 3.65625,-5.15625 3.109375,-5.375 2.375,-5.375 Z m 0,0"
             id="id-d0f712a7-14e0-44ca-9c81-319653fad12e" />
        </g>
      </g>
    </g>
    <g
       transform="matrix(1.23472,0,0,1.23472,129.048,55.132533)"
       ns2:version="1.6.0"
       ns2:texconverter="pdflatex"
       ns2:pdfconverter="inkscape"
       ns2:text="\\centering\nhigh\\\\\nmomenta"
       ns2:preamble="/usr/share/inkscape/extensions/textext/default_packages.tex"
       ns2:scale="3.5"
       ns2:alignment="middle center"
       ns2:stroke-to-path="0"
       ns2:inkscapeversion="1.2"
       ns2:jacobian_sqrt="1.23472"
       id="g5049">
      <defs
         id="id-55eec84e-7c36-4fe2-988d-805396b97610">
        <g
           id="id-5e126cbf-b2bd-4062-927c-fb2dbea2c487">
          <g
             id="id-7a375abf-99bc-449b-9361-9f5c9e410a86" />
          <g
             id="id-6635f997-fec7-4ee0-877a-2d2fd73a29b0">
            <path
               d="m 1.09375,-0.75 c 0,0.4375 -0.109375,0.4375 -0.78125,0.4375 V 0 c 0.359375,-0.015625 0.859375,-0.03125 1.140625,-0.03125 0.25,0 0.765625,0.015625 1.109375,0.03125 v -0.3125 c -0.671875,0 -0.78125,0 -0.78125,-0.4375 V -2.59375 C 1.78125,-3.625 2.5,-4.1875 3.125,-4.1875 c 0.640625,0 0.75,0.53125 0.75,1.109375 V -0.75 c 0,0.4375 -0.109375,0.4375 -0.78125,0.4375 V 0 c 0.34375,-0.015625 0.859375,-0.03125 1.125,-0.03125 0.25,0 0.78125,0.015625 1.109375,0.03125 v -0.3125 c -0.515625,0 -0.765625,0 -0.765625,-0.296875 v -1.90625 c 0,-0.859375 0,-1.15625 -0.3125,-1.515625 -0.140625,-0.171875 -0.46875,-0.375 -1.046875,-0.375 -0.84375,0 -1.28125,0.59375 -1.453125,0.984375 v -3.5 L 0.3125,-6.8125 V -6.5 c 0.703125,0 0.78125,0.0625 0.78125,0.5625 z m 0,0"
               id="id-0ac4caa3-2272-45fa-9dbd-6aa4a4b15e67" />
          </g>
          <g
             id="id-d45e6268-eadc-4b74-a6c5-7f418f2bbedf">
            <path
               d="M 1.765625,-4.40625 0.375,-4.296875 v 0.3125 c 0.640625,0 0.734375,0.0625 0.734375,0.546875 V -0.75 c 0,0.4375 -0.109375,0.4375 -0.78125,0.4375 V 0 C 0.640625,-0.015625 1.1875,-0.03125 1.421875,-0.03125 1.78125,-0.03125 2.125,-0.015625 2.46875,0 v -0.3125 c -0.671875,0 -0.703125,-0.046875 -0.703125,-0.4375 z m 0.03125,-1.734375 c 0,-0.3125 -0.234375,-0.53125 -0.515625,-0.53125 -0.3125,0 -0.53125,0.265625 -0.53125,0.53125 0,0.265625 0.21875,0.53125 0.53125,0.53125 0.28125,0 0.515625,-0.21875 0.515625,-0.53125 z m 0,0"
               id="id-90dc0caa-3509-4e0b-9b79-64ea9bb501d4" />
          </g>
          <g
             id="id-1cfe1455-1475-42ea-9f2c-26349a61474c">
            <path
               d="m 2.21875,-1.71875 c -0.875,0 -0.875,-1 -0.875,-1.21875 0,-0.265625 0.015625,-0.59375 0.15625,-0.84375 0.078125,-0.109375 0.3125,-0.390625 0.71875,-0.390625 0.859375,0 0.859375,0.984375 0.859375,1.21875 0,0.265625 0,0.59375 -0.15625,0.84375 C 2.84375,-2 2.609375,-1.71875 2.21875,-1.71875 Z M 1.0625,-1.328125 c 0,-0.03125 0,-0.265625 0.15625,-0.46875 0.390625,0.28125 0.8125,0.3125 1,0.3125 0.921875,0 1.609375,-0.6875 1.609375,-1.453125 0,-0.375 -0.15625,-0.734375 -0.40625,-0.96875 C 3.78125,-4.25 4.140625,-4.296875 4.3125,-4.296875 c 0.03125,0 0.078125,0 0.109375,0.015625 C 4.3125,-4.25 4.25,-4.140625 4.25,-4.015625 c 0,0.171875 0.140625,0.28125 0.296875,0.28125 0.09375,0 0.28125,-0.0625 0.28125,-0.296875 0,-0.171875 -0.109375,-0.484375 -0.5,-0.484375 -0.203125,0 -0.640625,0.0625 -1.0625,0.46875 C 2.84375,-4.375 2.4375,-4.40625 2.21875,-4.40625 c -0.9375,0 -1.625,0.6875 -1.625,1.453125 0,0.4375 0.21875,0.8125 0.46875,1.03125 -0.125,0.140625 -0.3125,0.46875 -0.3125,0.828125 0,0.3125 0.140625,0.6875 0.453125,0.890625 -0.609375,0.15625 -0.921875,0.59375 -0.921875,0.984375 0,0.71875 0.984375,1.265625 2.203125,1.265625 1.171875,0 2.203125,-0.5 2.203125,-1.28125 0,-0.34375 -0.125,-0.859375 -0.640625,-1.140625 -0.53125,-0.265625 -1.109375,-0.265625 -1.71875,-0.265625 -0.25,0 -0.671875,0 -0.75,-0.015625 C 1.265625,-0.703125 1.0625,-1 1.0625,-1.328125 Z M 2.5,1.828125 c -1.015625,0 -1.703125,-0.515625 -1.703125,-1.046875 0,-0.453125 0.375,-0.828125 0.8125,-0.84375 h 0.59375 c 0.859375,0 1.96875,0 1.96875,0.84375 0,0.546875 -0.703125,1.046875 -1.671875,1.046875 z m 0,0"
               id="id-04a80604-c4c4-4d24-a7c3-5d2970d8d4a3" />
          </g>
          <g
             id="id-1b5edfaf-0ddb-42a3-9562-aeaac709d530">
            <path
               d="M 1.09375,-3.421875 V -0.75 c 0,0.4375 -0.109375,0.4375 -0.78125,0.4375 V 0 c 0.359375,-0.015625 0.859375,-0.03125 1.140625,-0.03125 0.25,0 0.765625,0.015625 1.109375,0.03125 v -0.3125 c -0.671875,0 -0.78125,0 -0.78125,-0.4375 V -2.59375 C 1.78125,-3.625 2.5,-4.1875 3.125,-4.1875 c 0.640625,0 0.75,0.53125 0.75,1.109375 V -0.75 c 0,0.4375 -0.109375,0.4375 -0.78125,0.4375 V 0 c 0.34375,-0.015625 0.859375,-0.03125 1.125,-0.03125 0.25,0 0.78125,0.015625 1.109375,0.03125 v -0.3125 c -0.65625,0 -0.765625,0 -0.765625,-0.4375 v -1.84375 c 0,-1.03125 0.703125,-1.59375 1.34375,-1.59375 0.625,0 0.734375,0.53125 0.734375,1.109375 V -0.75 c 0,0.4375 -0.109375,0.4375 -0.78125,0.4375 V 0 c 0.34375,-0.015625 0.859375,-0.03125 1.125,-0.03125 0.265625,0 0.78125,0.015625 1.125,0.03125 v -0.3125 c -0.515625,0 -0.765625,0 -0.78125,-0.296875 v -1.90625 c 0,-0.859375 0,-1.15625 -0.3125,-1.515625 -0.140625,-0.171875 -0.46875,-0.375 -1.046875,-0.375 -0.828125,0 -1.28125,0.59375 -1.4375,0.984375 C 4.390625,-4.296875 3.65625,-4.40625 3.203125,-4.40625 2.46875,-4.40625 2,-3.984375 1.71875,-3.359375 V -4.40625 L 0.3125,-4.296875 v 0.3125 c 0.703125,0 0.78125,0.0625 0.78125,0.5625 z m 0,0"
               id="id-f969d2d8-de0c-4c65-a994-cb354772ec2e" />
          </g>
          <g
             id="id-dd7ee328-e3ab-414f-a1cb-1b7560cbc176">
            <path
               d="M 4.6875,-2.140625 C 4.6875,-3.40625 3.703125,-4.46875 2.5,-4.46875 c -1.25,0 -2.21875,1.09375 -2.21875,2.328125 0,1.296875 1.03125,2.25 2.203125,2.25 1.203125,0 2.203125,-0.984375 2.203125,-2.25 z m -2.1875,2 c -0.4375,0 -0.875,-0.203125 -1.140625,-0.671875 -0.25,-0.4375 -0.25,-1.046875 -0.25,-1.40625 0,-0.390625 0,-0.921875 0.234375,-1.359375 C 1.609375,-4.03125 2.078125,-4.25 2.484375,-4.25 c 0.4375,0 0.859375,0.21875 1.125,0.65625 0.265625,0.421875 0.265625,1 0.265625,1.375 0,0.359375 0,0.90625 -0.21875,1.34375 C 3.421875,-0.421875 2.984375,-0.140625 2.5,-0.140625 Z m 0,0"
               id="id-3d18c6ec-424f-4886-8777-c898d69c1bf6" />
          </g>
          <g
             id="id-7e0c4f0a-aac3-4c4e-b42e-1cabb00aa515">
            <path
               d="M 1.109375,-2.515625 C 1.171875,-4 2.015625,-4.25 2.359375,-4.25 c 1.015625,0 1.125,1.34375 1.125,1.734375 z m 0,0.21875 h 2.78125 c 0.21875,0 0.25,0 0.25,-0.21875 0,-0.984375 -0.546875,-1.953125 -1.78125,-1.953125 -1.15625,0 -2.078125,1.03125 -2.078125,2.28125 0,1.328125 1.046875,2.296875 2.1875,2.296875 C 3.6875,0.109375 4.140625,-1 4.140625,-1.1875 4.140625,-1.28125 4.0625,-1.3125 4,-1.3125 c -0.078125,0 -0.109375,0.0625 -0.125,0.140625 -0.34375,1.03125 -1.25,1.03125 -1.34375,1.03125 -0.5,0 -0.890625,-0.296875 -1.125,-0.671875 -0.296875,-0.46875 -0.296875,-1.125 -0.296875,-1.484375 z m 0,0"
               id="id-25ec0970-2fd4-4fe7-ae67-69aea7e96973" />
          </g>
          <g
             id="id-84876d48-c5c9-4588-8707-e7f7f4f87c87">
            <path
               d="M 1.09375,-3.421875 V -0.75 c 0,0.4375 -0.109375,0.4375 -0.78125,0.4375 V 0 c 0.359375,-0.015625 0.859375,-0.03125 1.140625,-0.03125 0.25,0 0.765625,0.015625 1.109375,0.03125 v -0.3125 c -0.671875,0 -0.78125,0 -0.78125,-0.4375 V -2.59375 C 1.78125,-3.625 2.5,-4.1875 3.125,-4.1875 c 0.640625,0 0.75,0.53125 0.75,1.109375 V -0.75 c 0,0.4375 -0.109375,0.4375 -0.78125,0.4375 V 0 c 0.34375,-0.015625 0.859375,-0.03125 1.125,-0.03125 0.25,0 0.78125,0.015625 1.109375,0.03125 v -0.3125 c -0.515625,0 -0.765625,0 -0.765625,-0.296875 v -1.90625 c 0,-0.859375 0,-1.15625 -0.3125,-1.515625 -0.140625,-0.171875 -0.46875,-0.375 -1.046875,-0.375 C 2.46875,-4.40625 2,-3.984375 1.71875,-3.359375 V -4.40625 L 0.3125,-4.296875 v 0.3125 c 0.703125,0 0.78125,0.0625 0.78125,0.5625 z m 0,0"
               id="id-b6aeabf8-22df-4b12-a221-17e4e914c587" />
          </g>
          <g
             id="id-df25eefc-b39d-4625-8f50-bac7792a3c99">
            <path
               d="m 1.71875,-3.984375 h 1.4375 v -0.3125 H 1.71875 V -6.125 h -0.25 c 0,0.8125 -0.296875,1.875 -1.28125,1.921875 v 0.21875 h 0.84375 v 2.75 c 0,1.21875 0.9375,1.34375 1.296875,1.34375 0.703125,0 0.984375,-0.703125 0.984375,-1.34375 v -0.5625 h -0.25 V -1.25 c 0,0.734375 -0.296875,1.109375 -0.671875,1.109375 -0.671875,0 -0.671875,-0.90625 -0.671875,-1.078125 z m 0,0"
               id="id-542902eb-59d8-4c5f-8692-ec83f7a059a5" />
          </g>
          <g
             id="id-a381dfdd-8154-49ab-b6cb-d89c9ffca078">
            <path
               d="m 3.3125,-0.75 c 0.046875,0.390625 0.3125,0.8125 0.78125,0.8125 0.21875,0 0.828125,-0.140625 0.828125,-0.953125 v -0.5625 h -0.25 v 0.5625 c 0,0.578125 -0.25,0.640625 -0.359375,0.640625 -0.328125,0 -0.375,-0.453125 -0.375,-0.5 v -1.984375 c 0,-0.421875 0,-0.8125 -0.359375,-1.1875 C 3.1875,-4.3125 2.6875,-4.46875 2.21875,-4.46875 c -0.828125,0 -1.515625,0.46875 -1.515625,1.125 0,0.296875 0.203125,0.46875 0.46875,0.46875 0.28125,0 0.453125,-0.203125 0.453125,-0.453125 0,-0.125 -0.046875,-0.453125 -0.515625,-0.453125 C 1.390625,-4.140625 1.875,-4.25 2.1875,-4.25 c 0.5,0 1.0625,0.390625 1.0625,1.28125 v 0.359375 c -0.515625,0.03125 -1.203125,0.0625 -1.828125,0.359375 -0.75,0.34375 -1,0.859375 -1,1.296875 0,0.8125 0.96875,1.0625 1.59375,1.0625 0.65625,0 1.109375,-0.40625 1.296875,-0.859375 z M 3.25,-2.390625 v 1 c 0,0.9375 -0.71875,1.28125 -1.171875,1.28125 -0.484375,0 -0.890625,-0.34375 -0.890625,-0.84375 0,-0.546875 0.421875,-1.375 2.0625,-1.4375 z m 0,0"
               id="id-538721d5-e98a-4e5d-a912-e4bf75520f76" />
          </g>
        </g>
      </defs>
      <g
         fill="#000000"
         fill-opacity="1"
         id="id-82ad1aed-7e6d-4104-8a12-797b56f1bb4e"
         transform="translate(-285.873,-127.843)">
        <g
           transform="translate(296.215,134.765)"
           id="g6915">
          <path
             d="m 1.09375,-0.75 c 0,0.4375 -0.109375,0.4375 -0.78125,0.4375 V 0 c 0.359375,-0.015625 0.859375,-0.03125 1.140625,-0.03125 0.25,0 0.765625,0.015625 1.109375,0.03125 v -0.3125 c -0.671875,0 -0.78125,0 -0.78125,-0.4375 V -2.59375 C 1.78125,-3.625 2.5,-4.1875 3.125,-4.1875 c 0.640625,0 0.75,0.53125 0.75,1.109375 V -0.75 c 0,0.4375 -0.109375,0.4375 -0.78125,0.4375 V 0 c 0.34375,-0.015625 0.859375,-0.03125 1.125,-0.03125 0.25,0 0.78125,0.015625 1.109375,0.03125 v -0.3125 c -0.515625,0 -0.765625,0 -0.765625,-0.296875 v -1.90625 c 0,-0.859375 0,-1.15625 -0.3125,-1.515625 -0.140625,-0.171875 -0.46875,-0.375 -1.046875,-0.375 -0.84375,0 -1.28125,0.59375 -1.453125,0.984375 v -3.5 L 0.3125,-6.8125 V -6.5 c 0.703125,0 0.78125,0.0625 0.78125,0.5625 z m 0,0"
             id="id-11c1f769-baed-4df8-8dd0-90314bab621a" />
        </g>
        <g
           transform="translate(301.75,134.765)"
           id="g6918">
          <path
             d="M 1.765625,-4.40625 0.375,-4.296875 v 0.3125 c 0.640625,0 0.734375,0.0625 0.734375,0.546875 V -0.75 c 0,0.4375 -0.109375,0.4375 -0.78125,0.4375 V 0 C 0.640625,-0.015625 1.1875,-0.03125 1.421875,-0.03125 1.78125,-0.03125 2.125,-0.015625 2.46875,0 v -0.3125 c -0.671875,0 -0.703125,-0.046875 -0.703125,-0.4375 z m 0.03125,-1.734375 c 0,-0.3125 -0.234375,-0.53125 -0.515625,-0.53125 -0.3125,0 -0.53125,0.265625 -0.53125,0.53125 0,0.265625 0.21875,0.53125 0.53125,0.53125 0.28125,0 0.515625,-0.21875 0.515625,-0.53125 z m 0,0"
             id="id-1a9a9ba4-fe3d-4dc6-b790-806b77642603" />
        </g>
        <g
           transform="translate(304.518,134.765)"
           id="g6921">
          <path
             d="m 2.21875,-1.71875 c -0.875,0 -0.875,-1 -0.875,-1.21875 0,-0.265625 0.015625,-0.59375 0.15625,-0.84375 0.078125,-0.109375 0.3125,-0.390625 0.71875,-0.390625 0.859375,0 0.859375,0.984375 0.859375,1.21875 0,0.265625 0,0.59375 -0.15625,0.84375 C 2.84375,-2 2.609375,-1.71875 2.21875,-1.71875 Z M 1.0625,-1.328125 c 0,-0.03125 0,-0.265625 0.15625,-0.46875 0.390625,0.28125 0.8125,0.3125 1,0.3125 0.921875,0 1.609375,-0.6875 1.609375,-1.453125 0,-0.375 -0.15625,-0.734375 -0.40625,-0.96875 C 3.78125,-4.25 4.140625,-4.296875 4.3125,-4.296875 c 0.03125,0 0.078125,0 0.109375,0.015625 C 4.3125,-4.25 4.25,-4.140625 4.25,-4.015625 c 0,0.171875 0.140625,0.28125 0.296875,0.28125 0.09375,0 0.28125,-0.0625 0.28125,-0.296875 0,-0.171875 -0.109375,-0.484375 -0.5,-0.484375 -0.203125,0 -0.640625,0.0625 -1.0625,0.46875 C 2.84375,-4.375 2.4375,-4.40625 2.21875,-4.40625 c -0.9375,0 -1.625,0.6875 -1.625,1.453125 0,0.4375 0.21875,0.8125 0.46875,1.03125 -0.125,0.140625 -0.3125,0.46875 -0.3125,0.828125 0,0.3125 0.140625,0.6875 0.453125,0.890625 -0.609375,0.15625 -0.921875,0.59375 -0.921875,0.984375 0,0.71875 0.984375,1.265625 2.203125,1.265625 1.171875,0 2.203125,-0.5 2.203125,-1.28125 0,-0.34375 -0.125,-0.859375 -0.640625,-1.140625 -0.53125,-0.265625 -1.109375,-0.265625 -1.71875,-0.265625 -0.25,0 -0.671875,0 -0.75,-0.015625 C 1.265625,-0.703125 1.0625,-1 1.0625,-1.328125 Z M 2.5,1.828125 c -1.015625,0 -1.703125,-0.515625 -1.703125,-1.046875 0,-0.453125 0.375,-0.828125 0.8125,-0.84375 h 0.59375 c 0.859375,0 1.96875,0 1.96875,0.84375 0,0.546875 -0.703125,1.046875 -1.671875,1.046875 z m 0,0"
             id="id-a02f5bb4-82ed-48f2-a420-2c6d99ec5e3f" />
        </g>
        <g
           transform="translate(309.499,134.765)"
           id="g6924">
          <path
             d="m 1.09375,-0.75 c 0,0.4375 -0.109375,0.4375 -0.78125,0.4375 V 0 c 0.359375,-0.015625 0.859375,-0.03125 1.140625,-0.03125 0.25,0 0.765625,0.015625 1.109375,0.03125 v -0.3125 c -0.671875,0 -0.78125,0 -0.78125,-0.4375 V -2.59375 C 1.78125,-3.625 2.5,-4.1875 3.125,-4.1875 c 0.640625,0 0.75,0.53125 0.75,1.109375 V -0.75 c 0,0.4375 -0.109375,0.4375 -0.78125,0.4375 V 0 c 0.34375,-0.015625 0.859375,-0.03125 1.125,-0.03125 0.25,0 0.78125,0.015625 1.109375,0.03125 v -0.3125 c -0.515625,0 -0.765625,0 -0.765625,-0.296875 v -1.90625 c 0,-0.859375 0,-1.15625 -0.3125,-1.515625 -0.140625,-0.171875 -0.46875,-0.375 -1.046875,-0.375 -0.84375,0 -1.28125,0.59375 -1.453125,0.984375 v -3.5 L 0.3125,-6.8125 V -6.5 c 0.703125,0 0.78125,0.0625 0.78125,0.5625 z m 0,0"
             id="id-703bbc6c-9176-4287-9483-62048fa3212c" />
        </g>
      </g>
      <g
         fill="#000000"
         fill-opacity="1"
         id="id-ce6a48ff-13a5-4434-805c-9eb38a1cdbcb"
         transform="translate(-285.873,-127.843)">
        <g
           transform="translate(285.56,146.72)"
           id="g6928">
          <path
             d="M 1.09375,-3.421875 V -0.75 c 0,0.4375 -0.109375,0.4375 -0.78125,0.4375 V 0 c 0.359375,-0.015625 0.859375,-0.03125 1.140625,-0.03125 0.25,0 0.765625,0.015625 1.109375,0.03125 v -0.3125 c -0.671875,0 -0.78125,0 -0.78125,-0.4375 V -2.59375 C 1.78125,-3.625 2.5,-4.1875 3.125,-4.1875 c 0.640625,0 0.75,0.53125 0.75,1.109375 V -0.75 c 0,0.4375 -0.109375,0.4375 -0.78125,0.4375 V 0 c 0.34375,-0.015625 0.859375,-0.03125 1.125,-0.03125 0.25,0 0.78125,0.015625 1.109375,0.03125 v -0.3125 c -0.65625,0 -0.765625,0 -0.765625,-0.4375 v -1.84375 c 0,-1.03125 0.703125,-1.59375 1.34375,-1.59375 0.625,0 0.734375,0.53125 0.734375,1.109375 V -0.75 c 0,0.4375 -0.109375,0.4375 -0.78125,0.4375 V 0 c 0.34375,-0.015625 0.859375,-0.03125 1.125,-0.03125 0.265625,0 0.78125,0.015625 1.125,0.03125 v -0.3125 c -0.515625,0 -0.765625,0 -0.78125,-0.296875 v -1.90625 c 0,-0.859375 0,-1.15625 -0.3125,-1.515625 -0.140625,-0.171875 -0.46875,-0.375 -1.046875,-0.375 -0.828125,0 -1.28125,0.59375 -1.4375,0.984375 C 4.390625,-4.296875 3.65625,-4.40625 3.203125,-4.40625 2.46875,-4.40625 2,-3.984375 1.71875,-3.359375 V -4.40625 L 0.3125,-4.296875 v 0.3125 c 0.703125,0 0.78125,0.0625 0.78125,0.5625 z m 0,0"
             id="id-a99ecc8a-9e2c-4de7-953e-18c31127f610" />
        </g>
        <g
           transform="translate(293.862,146.72)"
           id="g6931">
          <path
             d="M 4.6875,-2.140625 C 4.6875,-3.40625 3.703125,-4.46875 2.5,-4.46875 c -1.25,0 -2.21875,1.09375 -2.21875,2.328125 0,1.296875 1.03125,2.25 2.203125,2.25 1.203125,0 2.203125,-0.984375 2.203125,-2.25 z m -2.1875,2 c -0.4375,0 -0.875,-0.203125 -1.140625,-0.671875 -0.25,-0.4375 -0.25,-1.046875 -0.25,-1.40625 0,-0.390625 0,-0.921875 0.234375,-1.359375 C 1.609375,-4.03125 2.078125,-4.25 2.484375,-4.25 c 0.4375,0 0.859375,0.21875 1.125,0.65625 0.265625,0.421875 0.265625,1 0.265625,1.375 0,0.359375 0,0.90625 -0.21875,1.34375 C 3.421875,-0.421875 2.984375,-0.140625 2.5,-0.140625 Z m 0,0"
             id="id-c25b65ea-2f18-4786-a5d1-8fc3b1b965b4" />
        </g>
        <g
           transform="translate(298.843,146.72)"
           id="g6934">
          <path
             d="M 1.09375,-3.421875 V -0.75 c 0,0.4375 -0.109375,0.4375 -0.78125,0.4375 V 0 c 0.359375,-0.015625 0.859375,-0.03125 1.140625,-0.03125 0.25,0 0.765625,0.015625 1.109375,0.03125 v -0.3125 c -0.671875,0 -0.78125,0 -0.78125,-0.4375 V -2.59375 C 1.78125,-3.625 2.5,-4.1875 3.125,-4.1875 c 0.640625,0 0.75,0.53125 0.75,1.109375 V -0.75 c 0,0.4375 -0.109375,0.4375 -0.78125,0.4375 V 0 c 0.34375,-0.015625 0.859375,-0.03125 1.125,-0.03125 0.25,0 0.78125,0.015625 1.109375,0.03125 v -0.3125 c -0.65625,0 -0.765625,0 -0.765625,-0.4375 v -1.84375 c 0,-1.03125 0.703125,-1.59375 1.34375,-1.59375 0.625,0 0.734375,0.53125 0.734375,1.109375 V -0.75 c 0,0.4375 -0.109375,0.4375 -0.78125,0.4375 V 0 c 0.34375,-0.015625 0.859375,-0.03125 1.125,-0.03125 0.265625,0 0.78125,0.015625 1.125,0.03125 v -0.3125 c -0.515625,0 -0.765625,0 -0.78125,-0.296875 v -1.90625 c 0,-0.859375 0,-1.15625 -0.3125,-1.515625 -0.140625,-0.171875 -0.46875,-0.375 -1.046875,-0.375 -0.828125,0 -1.28125,0.59375 -1.4375,0.984375 C 4.390625,-4.296875 3.65625,-4.40625 3.203125,-4.40625 2.46875,-4.40625 2,-3.984375 1.71875,-3.359375 V -4.40625 L 0.3125,-4.296875 v 0.3125 c 0.703125,0 0.78125,0.0625 0.78125,0.5625 z m 0,0"
             id="id-622aacac-702b-4200-9128-6a6da6c467f4" />
        </g>
        <g
           transform="translate(307.145,146.72)"
           id="g6937">
          <path
             d="M 1.109375,-2.515625 C 1.171875,-4 2.015625,-4.25 2.359375,-4.25 c 1.015625,0 1.125,1.34375 1.125,1.734375 z m 0,0.21875 h 2.78125 c 0.21875,0 0.25,0 0.25,-0.21875 0,-0.984375 -0.546875,-1.953125 -1.78125,-1.953125 -1.15625,0 -2.078125,1.03125 -2.078125,2.28125 0,1.328125 1.046875,2.296875 2.1875,2.296875 C 3.6875,0.109375 4.140625,-1 4.140625,-1.1875 4.140625,-1.28125 4.0625,-1.3125 4,-1.3125 c -0.078125,0 -0.109375,0.0625 -0.125,0.140625 -0.34375,1.03125 -1.25,1.03125 -1.34375,1.03125 -0.5,0 -0.890625,-0.296875 -1.125,-0.671875 -0.296875,-0.46875 -0.296875,-1.125 -0.296875,-1.484375 z m 0,0"
             id="id-3dc81c67-636e-43f9-a39e-c6ba6677602d" />
        </g>
        <g
           transform="translate(311.572,146.72)"
           id="g6940">
          <path
             d="M 1.09375,-3.421875 V -0.75 c 0,0.4375 -0.109375,0.4375 -0.78125,0.4375 V 0 c 0.359375,-0.015625 0.859375,-0.03125 1.140625,-0.03125 0.25,0 0.765625,0.015625 1.109375,0.03125 v -0.3125 c -0.671875,0 -0.78125,0 -0.78125,-0.4375 V -2.59375 C 1.78125,-3.625 2.5,-4.1875 3.125,-4.1875 c 0.640625,0 0.75,0.53125 0.75,1.109375 V -0.75 c 0,0.4375 -0.109375,0.4375 -0.78125,0.4375 V 0 c 0.34375,-0.015625 0.859375,-0.03125 1.125,-0.03125 0.25,0 0.78125,0.015625 1.109375,0.03125 v -0.3125 c -0.515625,0 -0.765625,0 -0.765625,-0.296875 v -1.90625 c 0,-0.859375 0,-1.15625 -0.3125,-1.515625 -0.140625,-0.171875 -0.46875,-0.375 -1.046875,-0.375 C 2.46875,-4.40625 2,-3.984375 1.71875,-3.359375 V -4.40625 L 0.3125,-4.296875 v 0.3125 c 0.703125,0 0.78125,0.0625 0.78125,0.5625 z m 0,0"
             id="id-d699b0e0-3c23-4af5-b32f-3bd2b79b9220" />
        </g>
      </g>
      <g
         fill="#000000"
         fill-opacity="1"
         id="id-5f0c059d-652a-499f-b481-203f2d1d5b40"
         transform="translate(-285.873,-127.843)">
        <g
           transform="translate(316.829,146.72)"
           id="g6944">
          <path
             d="m 1.71875,-3.984375 h 1.4375 v -0.3125 H 1.71875 V -6.125 h -0.25 c 0,0.8125 -0.296875,1.875 -1.28125,1.921875 v 0.21875 h 0.84375 v 2.75 c 0,1.21875 0.9375,1.34375 1.296875,1.34375 0.703125,0 0.984375,-0.703125 0.984375,-1.34375 v -0.5625 h -0.25 V -1.25 c 0,0.734375 -0.296875,1.109375 -0.671875,1.109375 -0.671875,0 -0.671875,-0.90625 -0.671875,-1.078125 z m 0,0"
             id="id-24dc45cb-0b7d-4d01-ae27-65f82bcc26c1" />
        </g>
        <g
           transform="translate(320.703,146.72)"
           id="g6947">
          <path
             d="m 3.3125,-0.75 c 0.046875,0.390625 0.3125,0.8125 0.78125,0.8125 0.21875,0 0.828125,-0.140625 0.828125,-0.953125 v -0.5625 h -0.25 v 0.5625 c 0,0.578125 -0.25,0.640625 -0.359375,0.640625 -0.328125,0 -0.375,-0.453125 -0.375,-0.5 v -1.984375 c 0,-0.421875 0,-0.8125 -0.359375,-1.1875 C 3.1875,-4.3125 2.6875,-4.46875 2.21875,-4.46875 c -0.828125,0 -1.515625,0.46875 -1.515625,1.125 0,0.296875 0.203125,0.46875 0.46875,0.46875 0.28125,0 0.453125,-0.203125 0.453125,-0.453125 0,-0.125 -0.046875,-0.453125 -0.515625,-0.453125 C 1.390625,-4.140625 1.875,-4.25 2.1875,-4.25 c 0.5,0 1.0625,0.390625 1.0625,1.28125 v 0.359375 c -0.515625,0.03125 -1.203125,0.0625 -1.828125,0.359375 -0.75,0.34375 -1,0.859375 -1,1.296875 0,0.8125 0.96875,1.0625 1.59375,1.0625 0.65625,0 1.109375,-0.40625 1.296875,-0.859375 z M 3.25,-2.390625 v 1 c 0,0.9375 -0.71875,1.28125 -1.171875,1.28125 -0.484375,0 -0.890625,-0.34375 -0.890625,-0.84375 0,-0.546875 0.421875,-1.375 2.0625,-1.4375 z m 0,0"
             id="id-52732ab3-b0d5-40b6-bad8-dafcb1fc69ab" />
        </g>
      </g>
    </g>
    <g
       transform="matrix(1.23472,0,0,1.23472,-3.24409,55.132733)"
       ns2:version="1.6.0"
       ns2:texconverter="pdflatex"
       ns2:pdfconverter="inkscape"
       ns2:text="\\centering\nlow\\\\\nmomenta"
       ns2:preamble="/usr/share/inkscape/extensions/textext/default_packages.tex"
       ns2:scale="3.5"
       ns2:alignment="middle center"
       ns2:stroke-to-path="0"
       ns2:inkscapeversion="1.2"
       ns2:jacobian_sqrt="1.23472"
       id="g5376">
      <defs
         id="id-21882e2d-fa87-4ca2-9051-43b0eb7c082c">
        <g
           id="id-7ce73016-e081-46ed-aa6f-88d24d9aff96">
          <g
             id="id-390ffc93-51a1-4b26-b875-36712344b1ff" />
          <g
             id="id-31880023-f1c8-4b54-84fa-2f6da004e49b">
            <path
               d="M 1.765625,-6.921875 0.328125,-6.8125 V -6.5 c 0.703125,0 0.78125,0.0625 0.78125,0.5625 V -0.75 c 0,0.4375 -0.109375,0.4375 -0.78125,0.4375 V 0 C 0.65625,-0.015625 1.1875,-0.03125 1.4375,-0.03125 c 0.25,0 0.734375,0.015625 1.109375,0.03125 v -0.3125 c -0.671875,0 -0.78125,0 -0.78125,-0.4375 z m 0,0"
               id="id-12fd4439-74fe-420d-9f33-d0d112019f7b" />
          </g>
          <g
             id="id-e66116ae-92dd-44af-851f-52b4c93bc2f3">
            <path
               d="M 4.6875,-2.140625 C 4.6875,-3.40625 3.703125,-4.46875 2.5,-4.46875 c -1.25,0 -2.21875,1.09375 -2.21875,2.328125 0,1.296875 1.03125,2.25 2.203125,2.25 1.203125,0 2.203125,-0.984375 2.203125,-2.25 z m -2.1875,2 c -0.4375,0 -0.875,-0.203125 -1.140625,-0.671875 -0.25,-0.4375 -0.25,-1.046875 -0.25,-1.40625 0,-0.390625 0,-0.921875 0.234375,-1.359375 C 1.609375,-4.03125 2.078125,-4.25 2.484375,-4.25 c 0.4375,0 0.859375,0.21875 1.125,0.65625 0.265625,0.421875 0.265625,1 0.265625,1.375 0,0.359375 0,0.90625 -0.21875,1.34375 C 3.421875,-0.421875 2.984375,-0.140625 2.5,-0.140625 Z m 0,0"
               id="id-a0b95e4a-2694-4b06-995b-fdc0cdf83431" />
          </g>
          <g
             id="id-3194a0a3-34ed-498b-be70-c0c53c76527f">
            <path
               d="m 6.171875,-3.34375 c 0.171875,-0.5 0.484375,-0.640625 0.84375,-0.640625 v -0.3125 C 6.78125,-4.28125 6.5,-4.265625 6.28125,-4.265625 c -0.296875,0 -0.734375,-0.015625 -0.921875,-0.03125 v 0.3125 c 0.359375,0 0.578125,0.1875 0.578125,0.46875 0,0.0625 0,0.09375 -0.0625,0.21875 L 4.96875,-0.75 3.984375,-3.53125 C 3.953125,-3.65625 3.9375,-3.671875 3.9375,-3.71875 c 0,-0.265625 0.390625,-0.265625 0.59375,-0.265625 v -0.3125 c -0.296875,0.015625 -0.796875,0.03125 -1.046875,0.03125 -0.296875,0 -0.578125,-0.015625 -0.875,-0.03125 v 0.3125 c 0.359375,0 0.515625,0.015625 0.625,0.140625 0.046875,0.0625 0.15625,0.359375 0.21875,0.546875 L 2.609375,-0.875 1.65625,-3.53125 C 1.609375,-3.65625 1.609375,-3.671875 1.609375,-3.71875 1.609375,-3.984375 2,-3.984375 2.1875,-3.984375 v -0.3125 c -0.296875,0.015625 -0.859375,0.03125 -1.078125,0.03125 -0.046875,0 -0.578125,-0.015625 -0.9375,-0.03125 v 0.3125 c 0.5,0 0.625,0.03125 0.75,0.34375 l 1.25,3.53125 C 2.21875,0.03125 2.25,0.109375 2.375,0.109375 c 0.140625,0 0.15625,-0.0625 0.203125,-0.203125 l 1.015625,-2.8125 1.015625,2.828125 c 0.03125,0.109375 0.0625,0.1875 0.203125,0.1875 0.125,0 0.15625,-0.09375 0.1875,-0.1875 z m 0,0"
               id="id-3752ea65-8123-466f-b1fe-6eff005c799f" />
          </g>
          <g
             id="id-9b6b8075-e8a8-4f88-a1af-7d2a067d95cf">
            <path
               d="M 1.09375,-3.421875 V -0.75 c 0,0.4375 -0.109375,0.4375 -0.78125,0.4375 V 0 c 0.359375,-0.015625 0.859375,-0.03125 1.140625,-0.03125 0.25,0 0.765625,0.015625 1.109375,0.03125 v -0.3125 c -0.671875,0 -0.78125,0 -0.78125,-0.4375 V -2.59375 C 1.78125,-3.625 2.5,-4.1875 3.125,-4.1875 c 0.640625,0 0.75,0.53125 0.75,1.109375 V -0.75 c 0,0.4375 -0.109375,0.4375 -0.78125,0.4375 V 0 c 0.34375,-0.015625 0.859375,-0.03125 1.125,-0.03125 0.25,0 0.78125,0.015625 1.109375,0.03125 v -0.3125 c -0.65625,0 -0.765625,0 -0.765625,-0.4375 v -1.84375 c 0,-1.03125 0.703125,-1.59375 1.34375,-1.59375 0.625,0 0.734375,0.53125 0.734375,1.109375 V -0.75 c 0,0.4375 -0.109375,0.4375 -0.78125,0.4375 V 0 c 0.34375,-0.015625 0.859375,-0.03125 1.125,-0.03125 0.265625,0 0.78125,0.015625 1.125,0.03125 v -0.3125 c -0.515625,0 -0.765625,0 -0.78125,-0.296875 v -1.90625 c 0,-0.859375 0,-1.15625 -0.3125,-1.515625 -0.140625,-0.171875 -0.46875,-0.375 -1.046875,-0.375 -0.828125,0 -1.28125,0.59375 -1.4375,0.984375 C 4.390625,-4.296875 3.65625,-4.40625 3.203125,-4.40625 2.46875,-4.40625 2,-3.984375 1.71875,-3.359375 V -4.40625 L 0.3125,-4.296875 v 0.3125 c 0.703125,0 0.78125,0.0625 0.78125,0.5625 z m 0,0"
               id="id-d2d63c8a-5f8f-42ca-8e37-b82e334e2804" />
          </g>
          <g
             id="id-d4dd46bf-d4fa-4b44-84fe-9cf7c9f67d61">
            <path
               d="M 1.109375,-2.515625 C 1.171875,-4 2.015625,-4.25 2.359375,-4.25 c 1.015625,0 1.125,1.34375 1.125,1.734375 z m 0,0.21875 h 2.78125 c 0.21875,0 0.25,0 0.25,-0.21875 0,-0.984375 -0.546875,-1.953125 -1.78125,-1.953125 -1.15625,0 -2.078125,1.03125 -2.078125,2.28125 0,1.328125 1.046875,2.296875 2.1875,2.296875 C 3.6875,0.109375 4.140625,-1 4.140625,-1.1875 4.140625,-1.28125 4.0625,-1.3125 4,-1.3125 c -0.078125,0 -0.109375,0.0625 -0.125,0.140625 -0.34375,1.03125 -1.25,1.03125 -1.34375,1.03125 -0.5,0 -0.890625,-0.296875 -1.125,-0.671875 -0.296875,-0.46875 -0.296875,-1.125 -0.296875,-1.484375 z m 0,0"
               id="id-87508aa0-10b5-4e52-ad69-7edfc06085e2" />
          </g>
          <g
             id="id-be293311-44fe-48dd-b989-85da562b9738">
            <path
               d="M 1.09375,-3.421875 V -0.75 c 0,0.4375 -0.109375,0.4375 -0.78125,0.4375 V 0 c 0.359375,-0.015625 0.859375,-0.03125 1.140625,-0.03125 0.25,0 0.765625,0.015625 1.109375,0.03125 v -0.3125 c -0.671875,0 -0.78125,0 -0.78125,-0.4375 V -2.59375 C 1.78125,-3.625 2.5,-4.1875 3.125,-4.1875 c 0.640625,0 0.75,0.53125 0.75,1.109375 V -0.75 c 0,0.4375 -0.109375,0.4375 -0.78125,0.4375 V 0 c 0.34375,-0.015625 0.859375,-0.03125 1.125,-0.03125 0.25,0 0.78125,0.015625 1.109375,0.03125 v -0.3125 c -0.515625,0 -0.765625,0 -0.765625,-0.296875 v -1.90625 c 0,-0.859375 0,-1.15625 -0.3125,-1.515625 -0.140625,-0.171875 -0.46875,-0.375 -1.046875,-0.375 C 2.46875,-4.40625 2,-3.984375 1.71875,-3.359375 V -4.40625 L 0.3125,-4.296875 v 0.3125 c 0.703125,0 0.78125,0.0625 0.78125,0.5625 z m 0,0"
               id="id-c2c75e7c-c95d-417a-b54f-a067096d02b7" />
          </g>
          <g
             id="id-ca54c978-2762-4de3-9152-173626540d55">
            <path
               d="m 1.71875,-3.984375 h 1.4375 v -0.3125 H 1.71875 V -6.125 h -0.25 c 0,0.8125 -0.296875,1.875 -1.28125,1.921875 v 0.21875 h 0.84375 v 2.75 c 0,1.21875 0.9375,1.34375 1.296875,1.34375 0.703125,0 0.984375,-0.703125 0.984375,-1.34375 v -0.5625 h -0.25 V -1.25 c 0,0.734375 -0.296875,1.109375 -0.671875,1.109375 -0.671875,0 -0.671875,-0.90625 -0.671875,-1.078125 z m 0,0"
               id="id-99ea8163-91e0-4993-9c9b-fee8eb0db4bb" />
          </g>
          <g
             id="id-0e0807cc-87c2-4d51-acc7-d5ef662d492e">
            <path
               d="m 3.3125,-0.75 c 0.046875,0.390625 0.3125,0.8125 0.78125,0.8125 0.21875,0 0.828125,-0.140625 0.828125,-0.953125 v -0.5625 h -0.25 v 0.5625 c 0,0.578125 -0.25,0.640625 -0.359375,0.640625 -0.328125,0 -0.375,-0.453125 -0.375,-0.5 v -1.984375 c 0,-0.421875 0,-0.8125 -0.359375,-1.1875 C 3.1875,-4.3125 2.6875,-4.46875 2.21875,-4.46875 c -0.828125,0 -1.515625,0.46875 -1.515625,1.125 0,0.296875 0.203125,0.46875 0.46875,0.46875 0.28125,0 0.453125,-0.203125 0.453125,-0.453125 0,-0.125 -0.046875,-0.453125 -0.515625,-0.453125 C 1.390625,-4.140625 1.875,-4.25 2.1875,-4.25 c 0.5,0 1.0625,0.390625 1.0625,1.28125 v 0.359375 c -0.515625,0.03125 -1.203125,0.0625 -1.828125,0.359375 -0.75,0.34375 -1,0.859375 -1,1.296875 0,0.8125 0.96875,1.0625 1.59375,1.0625 0.65625,0 1.109375,-0.40625 1.296875,-0.859375 z M 3.25,-2.390625 v 1 c 0,0.9375 -0.71875,1.28125 -1.171875,1.28125 -0.484375,0 -0.890625,-0.34375 -0.890625,-0.84375 0,-0.546875 0.421875,-1.375 2.0625,-1.4375 z m 0,0"
               id="id-a0246f39-c526-45c6-aadc-11843b0dbf49" />
          </g>
        </g>
      </defs>
      <g
         fill="#000000"
         fill-opacity="1"
         id="id-aeca90cd-232b-4380-bf3b-3494212cd8c9"
         transform="translate(-285.873,-127.843)">
        <g
           transform="translate(298.29,134.765)"
           id="g7584">
          <path
             d="M 1.765625,-6.921875 0.328125,-6.8125 V -6.5 c 0.703125,0 0.78125,0.0625 0.78125,0.5625 V -0.75 c 0,0.4375 -0.109375,0.4375 -0.78125,0.4375 V 0 C 0.65625,-0.015625 1.1875,-0.03125 1.4375,-0.03125 c 0.25,0 0.734375,0.015625 1.109375,0.03125 v -0.3125 c -0.671875,0 -0.78125,0 -0.78125,-0.4375 z m 0,0"
             id="id-20c3cb06-9d81-48dd-8836-c1e77fdcd258" />
        </g>
        <g
           transform="translate(301.058,134.765)"
           id="g7587">
          <path
             d="M 4.6875,-2.140625 C 4.6875,-3.40625 3.703125,-4.46875 2.5,-4.46875 c -1.25,0 -2.21875,1.09375 -2.21875,2.328125 0,1.296875 1.03125,2.25 2.203125,2.25 1.203125,0 2.203125,-0.984375 2.203125,-2.25 z m -2.1875,2 c -0.4375,0 -0.875,-0.203125 -1.140625,-0.671875 -0.25,-0.4375 -0.25,-1.046875 -0.25,-1.40625 0,-0.390625 0,-0.921875 0.234375,-1.359375 C 1.609375,-4.03125 2.078125,-4.25 2.484375,-4.25 c 0.4375,0 0.859375,0.21875 1.125,0.65625 0.265625,0.421875 0.265625,1 0.265625,1.375 0,0.359375 0,0.90625 -0.21875,1.34375 C 3.421875,-0.421875 2.984375,-0.140625 2.5,-0.140625 Z m 0,0"
             id="id-0e8f0ae4-b09e-4a87-9a94-95cf21b37811" />
        </g>
      </g>
      <g
         fill="#000000"
         fill-opacity="1"
         id="id-d29b3a61-7c2a-403c-85de-f4b3d28f43a1"
         transform="translate(-285.873,-127.843)">
        <g
           transform="translate(305.76,134.765)"
           id="g7591">
          <path
             d="m 6.171875,-3.34375 c 0.171875,-0.5 0.484375,-0.640625 0.84375,-0.640625 v -0.3125 C 6.78125,-4.28125 6.5,-4.265625 6.28125,-4.265625 c -0.296875,0 -0.734375,-0.015625 -0.921875,-0.03125 v 0.3125 c 0.359375,0 0.578125,0.1875 0.578125,0.46875 0,0.0625 0,0.09375 -0.0625,0.21875 L 4.96875,-0.75 3.984375,-3.53125 C 3.953125,-3.65625 3.9375,-3.671875 3.9375,-3.71875 c 0,-0.265625 0.390625,-0.265625 0.59375,-0.265625 v -0.3125 c -0.296875,0.015625 -0.796875,0.03125 -1.046875,0.03125 -0.296875,0 -0.578125,-0.015625 -0.875,-0.03125 v 0.3125 c 0.359375,0 0.515625,0.015625 0.625,0.140625 0.046875,0.0625 0.15625,0.359375 0.21875,0.546875 L 2.609375,-0.875 1.65625,-3.53125 C 1.609375,-3.65625 1.609375,-3.671875 1.609375,-3.71875 1.609375,-3.984375 2,-3.984375 2.1875,-3.984375 v -0.3125 c -0.296875,0.015625 -0.859375,0.03125 -1.078125,0.03125 -0.046875,0 -0.578125,-0.015625 -0.9375,-0.03125 v 0.3125 c 0.5,0 0.625,0.03125 0.75,0.34375 l 1.25,3.53125 C 2.21875,0.03125 2.25,0.109375 2.375,0.109375 c 0.140625,0 0.15625,-0.0625 0.203125,-0.203125 l 1.015625,-2.8125 1.015625,2.828125 c 0.03125,0.109375 0.0625,0.1875 0.203125,0.1875 0.125,0 0.15625,-0.09375 0.1875,-0.1875 z m 0,0"
             id="id-1e024e79-7da1-4785-97dc-8f4da32587d5" />
        </g>
      </g>
      <g
         fill="#000000"
         fill-opacity="1"
         id="id-ed847bfc-4ba1-4260-a734-d9b223548d18"
         transform="translate(-285.873,-127.843)">
        <g
           transform="translate(285.56,146.72)"
           id="g7595">
          <path
             d="M 1.09375,-3.421875 V -0.75 c 0,0.4375 -0.109375,0.4375 -0.78125,0.4375 V 0 c 0.359375,-0.015625 0.859375,-0.03125 1.140625,-0.03125 0.25,0 0.765625,0.015625 1.109375,0.03125 v -0.3125 c -0.671875,0 -0.78125,0 -0.78125,-0.4375 V -2.59375 C 1.78125,-3.625 2.5,-4.1875 3.125,-4.1875 c 0.640625,0 0.75,0.53125 0.75,1.109375 V -0.75 c 0,0.4375 -0.109375,0.4375 -0.78125,0.4375 V 0 c 0.34375,-0.015625 0.859375,-0.03125 1.125,-0.03125 0.25,0 0.78125,0.015625 1.109375,0.03125 v -0.3125 c -0.65625,0 -0.765625,0 -0.765625,-0.4375 v -1.84375 c 0,-1.03125 0.703125,-1.59375 1.34375,-1.59375 0.625,0 0.734375,0.53125 0.734375,1.109375 V -0.75 c 0,0.4375 -0.109375,0.4375 -0.78125,0.4375 V 0 c 0.34375,-0.015625 0.859375,-0.03125 1.125,-0.03125 0.265625,0 0.78125,0.015625 1.125,0.03125 v -0.3125 c -0.515625,0 -0.765625,0 -0.78125,-0.296875 v -1.90625 c 0,-0.859375 0,-1.15625 -0.3125,-1.515625 -0.140625,-0.171875 -0.46875,-0.375 -1.046875,-0.375 -0.828125,0 -1.28125,0.59375 -1.4375,0.984375 C 4.390625,-4.296875 3.65625,-4.40625 3.203125,-4.40625 2.46875,-4.40625 2,-3.984375 1.71875,-3.359375 V -4.40625 L 0.3125,-4.296875 v 0.3125 c 0.703125,0 0.78125,0.0625 0.78125,0.5625 z m 0,0"
             id="id-fbb52c3b-48d0-4216-9ecb-11f450e1fe70" />
        </g>
        <g
           transform="translate(293.862,146.72)"
           id="g7598">
          <path
             d="M 4.6875,-2.140625 C 4.6875,-3.40625 3.703125,-4.46875 2.5,-4.46875 c -1.25,0 -2.21875,1.09375 -2.21875,2.328125 0,1.296875 1.03125,2.25 2.203125,2.25 1.203125,0 2.203125,-0.984375 2.203125,-2.25 z m -2.1875,2 c -0.4375,0 -0.875,-0.203125 -1.140625,-0.671875 -0.25,-0.4375 -0.25,-1.046875 -0.25,-1.40625 0,-0.390625 0,-0.921875 0.234375,-1.359375 C 1.609375,-4.03125 2.078125,-4.25 2.484375,-4.25 c 0.4375,0 0.859375,0.21875 1.125,0.65625 0.265625,0.421875 0.265625,1 0.265625,1.375 0,0.359375 0,0.90625 -0.21875,1.34375 C 3.421875,-0.421875 2.984375,-0.140625 2.5,-0.140625 Z m 0,0"
             id="id-573a3fc1-4522-4fd5-833d-234012f70c82" />
        </g>
        <g
           transform="translate(298.843,146.72)"
           id="g7601">
          <path
             d="M 1.09375,-3.421875 V -0.75 c 0,0.4375 -0.109375,0.4375 -0.78125,0.4375 V 0 c 0.359375,-0.015625 0.859375,-0.03125 1.140625,-0.03125 0.25,0 0.765625,0.015625 1.109375,0.03125 v -0.3125 c -0.671875,0 -0.78125,0 -0.78125,-0.4375 V -2.59375 C 1.78125,-3.625 2.5,-4.1875 3.125,-4.1875 c 0.640625,0 0.75,0.53125 0.75,1.109375 V -0.75 c 0,0.4375 -0.109375,0.4375 -0.78125,0.4375 V 0 c 0.34375,-0.015625 0.859375,-0.03125 1.125,-0.03125 0.25,0 0.78125,0.015625 1.109375,0.03125 v -0.3125 c -0.65625,0 -0.765625,0 -0.765625,-0.4375 v -1.84375 c 0,-1.03125 0.703125,-1.59375 1.34375,-1.59375 0.625,0 0.734375,0.53125 0.734375,1.109375 V -0.75 c 0,0.4375 -0.109375,0.4375 -0.78125,0.4375 V 0 c 0.34375,-0.015625 0.859375,-0.03125 1.125,-0.03125 0.265625,0 0.78125,0.015625 1.125,0.03125 v -0.3125 c -0.515625,0 -0.765625,0 -0.78125,-0.296875 v -1.90625 c 0,-0.859375 0,-1.15625 -0.3125,-1.515625 -0.140625,-0.171875 -0.46875,-0.375 -1.046875,-0.375 -0.828125,0 -1.28125,0.59375 -1.4375,0.984375 C 4.390625,-4.296875 3.65625,-4.40625 3.203125,-4.40625 2.46875,-4.40625 2,-3.984375 1.71875,-3.359375 V -4.40625 L 0.3125,-4.296875 v 0.3125 c 0.703125,0 0.78125,0.0625 0.78125,0.5625 z m 0,0"
             id="id-e8c4ec94-f717-41e6-baca-c4e995c0dbd3" />
        </g>
        <g
           transform="translate(307.145,146.72)"
           id="g7604">
          <path
             d="M 1.109375,-2.515625 C 1.171875,-4 2.015625,-4.25 2.359375,-4.25 c 1.015625,0 1.125,1.34375 1.125,1.734375 z m 0,0.21875 h 2.78125 c 0.21875,0 0.25,0 0.25,-0.21875 0,-0.984375 -0.546875,-1.953125 -1.78125,-1.953125 -1.15625,0 -2.078125,1.03125 -2.078125,2.28125 0,1.328125 1.046875,2.296875 2.1875,2.296875 C 3.6875,0.109375 4.140625,-1 4.140625,-1.1875 4.140625,-1.28125 4.0625,-1.3125 4,-1.3125 c -0.078125,0 -0.109375,0.0625 -0.125,0.140625 -0.34375,1.03125 -1.25,1.03125 -1.34375,1.03125 -0.5,0 -0.890625,-0.296875 -1.125,-0.671875 -0.296875,-0.46875 -0.296875,-1.125 -0.296875,-1.484375 z m 0,0"
             id="id-a3b91b77-ac15-46f9-b4b4-8a2747879aa2" />
        </g>
        <g
           transform="translate(311.572,146.72)"
           id="g7607">
          <path
             d="M 1.09375,-3.421875 V -0.75 c 0,0.4375 -0.109375,0.4375 -0.78125,0.4375 V 0 c 0.359375,-0.015625 0.859375,-0.03125 1.140625,-0.03125 0.25,0 0.765625,0.015625 1.109375,0.03125 v -0.3125 c -0.671875,0 -0.78125,0 -0.78125,-0.4375 V -2.59375 C 1.78125,-3.625 2.5,-4.1875 3.125,-4.1875 c 0.640625,0 0.75,0.53125 0.75,1.109375 V -0.75 c 0,0.4375 -0.109375,0.4375 -0.78125,0.4375 V 0 c 0.34375,-0.015625 0.859375,-0.03125 1.125,-0.03125 0.25,0 0.78125,0.015625 1.109375,0.03125 v -0.3125 c -0.515625,0 -0.765625,0 -0.765625,-0.296875 v -1.90625 c 0,-0.859375 0,-1.15625 -0.3125,-1.515625 -0.140625,-0.171875 -0.46875,-0.375 -1.046875,-0.375 C 2.46875,-4.40625 2,-3.984375 1.71875,-3.359375 V -4.40625 L 0.3125,-4.296875 v 0.3125 c 0.703125,0 0.78125,0.0625 0.78125,0.5625 z m 0,0"
             id="id-e57f3b1b-9bc6-4652-a6be-bbdeb2ed3fc0" />
        </g>
      </g>
      <g
         fill="#000000"
         fill-opacity="1"
         id="id-cd392bc7-3504-4776-b00c-ee1ffbc9d56a"
         transform="translate(-285.873,-127.843)">
        <g
           transform="translate(316.829,146.72)"
           id="g7611">
          <path
             d="m 1.71875,-3.984375 h 1.4375 v -0.3125 H 1.71875 V -6.125 h -0.25 c 0,0.8125 -0.296875,1.875 -1.28125,1.921875 v 0.21875 h 0.84375 v 2.75 c 0,1.21875 0.9375,1.34375 1.296875,1.34375 0.703125,0 0.984375,-0.703125 0.984375,-1.34375 v -0.5625 h -0.25 V -1.25 c 0,0.734375 -0.296875,1.109375 -0.671875,1.109375 -0.671875,0 -0.671875,-0.90625 -0.671875,-1.078125 z m 0,0"
             id="id-fc7ff0e5-453e-43a8-8246-6b67a48048aa" />
        </g>
        <g
           transform="translate(320.703,146.72)"
           id="g7614">
          <path
             d="m 3.3125,-0.75 c 0.046875,0.390625 0.3125,0.8125 0.78125,0.8125 0.21875,0 0.828125,-0.140625 0.828125,-0.953125 v -0.5625 h -0.25 v 0.5625 c 0,0.578125 -0.25,0.640625 -0.359375,0.640625 -0.328125,0 -0.375,-0.453125 -0.375,-0.5 v -1.984375 c 0,-0.421875 0,-0.8125 -0.359375,-1.1875 C 3.1875,-4.3125 2.6875,-4.46875 2.21875,-4.46875 c -0.828125,0 -1.515625,0.46875 -1.515625,1.125 0,0.296875 0.203125,0.46875 0.46875,0.46875 0.28125,0 0.453125,-0.203125 0.453125,-0.453125 0,-0.125 -0.046875,-0.453125 -0.515625,-0.453125 C 1.390625,-4.140625 1.875,-4.25 2.1875,-4.25 c 0.5,0 1.0625,0.390625 1.0625,1.28125 v 0.359375 c -0.515625,0.03125 -1.203125,0.0625 -1.828125,0.359375 -0.75,0.34375 -1,0.859375 -1,1.296875 0,0.8125 0.96875,1.0625 1.59375,1.0625 0.65625,0 1.109375,-0.40625 1.296875,-0.859375 z M 3.25,-2.390625 v 1 c 0,0.9375 -0.71875,1.28125 -1.171875,1.28125 -0.484375,0 -0.890625,-0.34375 -0.890625,-0.84375 0,-0.546875 0.421875,-1.375 2.0625,-1.4375 z m 0,0"
             id="id-2bcecb96-6b3e-4205-9ce8-9f313963127f" />
        </g>
      </g>
    </g>
  </g>
</svg>
