<svg id="visual" viewBox="0 0 900 300" width="900" height="300" xmlns="http://www.w3.org/2000/svg" xmlns:xlink="http://www.w3.org/1999/xlink" version="1.1"><rect x="0" y="0" width="900" height="300" fill="#252A34"></rect><path d="M0 96L8.8 96.8C17.7 97.7 35.3 99.3 53 98.7C70.7 98 88.3 95 106 94.3C123.7 93.7 141.3 95.3 159 88.2C176.7 81 194.3 65 212 58.5C229.7 52 247.3 55 265 55.8C282.7 56.7 300.3 55.3 318 56.2C335.7 57 353.3 60 371 61.8C388.7 63.7 406.3 64.3 423.8 61.2C441.3 58 458.7 51 476.2 56C493.7 61 511.3 78 529 86.8C546.7 95.7 564.3 96.3 582 88.5C599.7 80.7 617.3 64.3 635 55.5C652.7 46.7 670.3 45.3 688 48.8C705.7 52.3 723.3 60.7 741 65.5C758.7 70.3 776.3 71.7 794 75.3C811.7 79 829.3 85 847 88.3C864.7 91.7 882.3 92.3 891.2 92.7L900 93L900 301L891.2 301C882.3 301 864.7 301 847 301C829.3 301 811.7 301 794 301C776.3 301 758.7 301 741 301C723.3 301 705.7 301 688 301C670.3 301 652.7 301 635 301C617.3 301 599.7 301 582 301C564.3 301 546.7 301 529 301C511.3 301 493.7 301 476.2 301C458.7 301 441.3 301 423.8 301C406.3 301 388.7 301 371 301C353.3 301 335.7 301 318 301C300.3 301 282.7 301 265 301C247.3 301 229.7 301 212 301C194.3 301 176.7 301 159 301C141.3 301 123.7 301 106 301C88.3 301 70.7 301 53 301C35.3 301 17.7 301 8.8 301L0 301Z" fill="#252a34"></path><path d="M0 111L8.8 103.7C17.7 96.3 35.3 81.7 53 81.2C70.7 80.7 88.3 94.3 106 96.7C123.7 99 141.3 90 159 90.2C176.7 90.3 194.3 99.7 212 103.7C229.7 107.7 247.3 106.3 265 99C282.7 91.7 300.3 78.3 318 76.7C335.7 75 353.3 85 371 93.8C388.7 102.7 406.3 110.3 423.8 108.2C441.3 106 458.7 94 476.2 89.7C493.7 85.3 511.3 88.7 529 93.5C546.7 98.3 564.3 104.7 582 100.5C599.7 96.3 617.3 81.7 635 78C652.7 74.3 670.3 81.7 688 86.8C705.7 92 723.3 95 741 91.3C758.7 87.7 776.3 77.3 794 78C811.7 78.7 829.3 90.3 847 90.3C864.7 90.3 882.3 78.7 891.2 72.8L900 67L900 301L891.2 301C882.3 301 864.7 301 847 301C829.3 301 811.7 301 794 301C776.3 301 758.7 301 741 301C723.3 301 705.7 301 688 301C670.3 301 652.7 301 635 301C617.3 301 599.7 301 582 301C564.3 301 546.7 301 529 301C511.3 301 493.7 301 476.2 301C458.7 301 441.3 301 423.8 301C406.3 301 388.7 301 371 301C353.3 301 335.7 301 318 301C300.3 301 282.7 301 265 301C247.3 301 229.7 301 212 301C194.3 301 176.7 301 159 301C141.3 301 123.7 301 106 301C88.3 301 70.7 301 53 301C35.3 301 17.7 301 8.8 301L0 301Z" fill="#273340"></path><path d="M0 85L8.8 91.5C17.7 98 35.3 111 53 111.2C70.7 111.3 88.3 98.7 106 96.5C123.7 94.3 141.3 102.7 159 102.3C176.7 102 194.3 93 212 96.7C229.7 100.3 247.3 116.7 265 117.5C282.7 118.3 300.3 103.7 318 99.3C335.7 95 353.3 101 371 105.2C388.7 109.3 406.3 111.7 423.8 111.7C441.3 111.7 458.7 109.3 476.2 108.3C493.7 107.3 511.3 107.7 529 107.3C546.7 107 564.3 106 582 108.7C599.7 111.3 617.3 117.7 635 114.3C652.7 111 670.3 98 688 96.7C705.7 95.3 723.3 105.7 741 105.8C758.7 106 776.3 96 794 93.7C811.7 91.3 829.3 96.7 847 98.2C864.7 99.7 882.3 97.3 891.2 96.2L900 95L900 301L891.2 301C882.3 301 864.7 301 847 301C829.3 301 811.7 301 794 301C776.3 301 758.7 301 741 301C723.3 301 705.7 301 688 301C670.3 301 652.7 301 635 301C617.3 301 599.7 301 582 301C564.3 301 546.7 301 529 301C511.3 301 493.7 301 476.2 301C458.7 301 441.3 301 423.8 301C406.3 301 388.7 301 371 301C353.3 301 335.7 301 318 301C300.3 301 282.7 301 265 301C247.3 301 229.7 301 212 301C194.3 301 176.7 301 159 301C141.3 301 123.7 301 106 301C88.3 301 70.7 301 53 301C35.3 301 17.7 301 8.8 301L0 301Z" fill="#263c4c"></path><path d="M0 133L8.8 129C17.7 125 35.3 117 53 119.8C70.7 122.7 88.3 136.3 106 138.2C123.7 140 141.3 130 159 127.8C176.7 125.7 194.3 131.3 212 131C229.7 130.7 247.3 124.3 265 123C282.7 121.7 300.3 125.3 318 125.2C335.7 125 353.3 121 371 119.7C388.7 118.3 406.3 119.7 423.8 122C441.3 124.3 458.7 127.7 476.2 132.2C493.7 136.7 511.3 142.3 529 143.5C546.7 144.7 564.3 141.3 582 136.3C599.7 131.3 617.3 124.7 635 120.5C652.7 116.3 670.3 114.7 688 115.2C705.7 115.7 723.3 118.3 741 122.7C758.7 127 776.3 133 794 135.5C811.7 138 829.3 137 847 138.5C864.7 140 882.3 144 891.2 146L900 148L900 301L891.2 301C882.3 301 864.7 301 847 301C829.3 301 811.7 301 794 301C776.3 301 758.7 301 741 301C723.3 301 705.7 301 688 301C670.3 301 652.7 301 635 301C617.3 301 599.7 301 582 301C564.3 301 546.7 301 529 301C511.3 301 493.7 301 476.2 301C458.7 301 441.3 301 423.8 301C406.3 301 388.7 301 371 301C353.3 301 335.7 301 318 301C300.3 301 282.7 301 265 301C247.3 301 229.7 301 212 301C194.3 301 176.7 301 159 301C141.3 301 123.7 301 106 301C88.3 301 70.7 301 53 301C35.3 301 17.7 301 8.8 301L0 301Z" fill="#224557"></path><path d="M0 157L8.8 152C17.7 147 35.3 137 53 137.3C70.7 137.7 88.3 148.3 106 149.5C123.7 150.7 141.3 142.3 159 138.5C176.7 134.7 194.3 135.3 212 136C229.7 136.7 247.3 137.3 265 137.5C282.7 137.7 300.3 137.3 318 140.2C335.7 143 353.3 149 371 147.5C388.7 146 406.3 137 423.8 133C441.3 129 458.7 130 476.2 133C493.7 136 511.3 141 529 143.2C546.7 145.3 564.3 144.7 582 145.8C599.7 147 617.3 150 635 153.3C652.7 156.7 670.3 160.3 688 160.3C705.7 160.3 723.3 156.7 741 156.5C758.7 156.3 776.3 159.7 794 159.7C811.7 159.7 829.3 156.3 847 151.2C864.7 146 882.3 139 891.2 135.5L900 132L900 301L891.2 301C882.3 301 864.7 301 847 301C829.3 301 811.7 301 794 301C776.3 301 758.7 301 741 301C723.3 301 705.7 301 688 301C670.3 301 652.7 301 635 301C617.3 301 599.7 301 582 301C564.3 301 546.7 301 529 301C511.3 301 493.7 301 476.2 301C458.7 301 441.3 301 423.8 301C406.3 301 388.7 301 371 301C353.3 301 335.7 301 318 301C300.3 301 282.7 301 265 301C247.3 301 229.7 301 212 301C194.3 301 176.7 301 159 301C141.3 301 123.7 301 106 301C88.3 301 70.7 301 53 301C35.3 301 17.7 301 8.8 301L0 301Z" fill="#1a4f62"></path><path d="M0 155L8.8 159.2C17.7 163.3 35.3 171.7 53 176.5C70.7 181.3 88.3 182.7 106 179.7C123.7 176.7 141.3 169.3 159 165.3C176.7 161.3 194.3 160.7 212 163.2C229.7 165.7 247.3 171.3 265 170C282.7 168.7 300.3 160.3 318 157.3C335.7 154.3 353.3 156.7 371 157.2C388.7 157.7 406.3 156.3 423.8 155.7C441.3 155 458.7 155 476.2 158C493.7 161 511.3 167 529 171.5C546.7 176 564.3 179 582 179.7C599.7 180.3 617.3 178.7 635 174.3C652.7 170 670.3 163 688 163.7C705.7 164.3 723.3 172.7 741 177.2C758.7 181.7 776.3 182.3 794 177.8C811.7 173.3 829.3 163.7 847 160C864.7 156.3 882.3 158.7 891.2 159.8L900 161L900 301L891.2 301C882.3 301 864.7 301 847 301C829.3 301 811.7 301 794 301C776.3 301 758.7 301 741 301C723.3 301 705.7 301 688 301C670.3 301 652.7 301 635 301C617.3 301 599.7 301 582 301C564.3 301 546.7 301 529 301C511.3 301 493.7 301 476.2 301C458.7 301 441.3 301 423.8 301C406.3 301 388.7 301 371 301C353.3 301 335.7 301 318 301C300.3 301 282.7 301 265 301C247.3 301 229.7 301 212 301C194.3 301 176.7 301 159 301C141.3 301 123.7 301 106 301C88.3 301 70.7 301 53 301C35.3 301 17.7 301 8.8 301L0 301Z" fill="#0b5a6a"></path><path d="M0 185L8.8 184.8C17.7 184.7 35.3 184.3 53 182C70.7 179.7 88.3 175.3 106 173.3C123.7 171.3 141.3 171.7 159 176.5C176.7 181.3 194.3 190.7 212 193.3C229.7 196 247.3 192 265 192.2C282.7 192.3 300.3 196.7 318 195.3C335.7 194 353.3 187 371 186.3C388.7 185.7 406.3 191.3 423.8 194.3C441.3 197.3 458.7 197.7 476.2 194.2C493.7 190.7 511.3 183.3 529 182C546.7 180.7 564.3 185.3 582 185.5C599.7 185.7 617.3 181.3 635 180.8C652.7 180.3 670.3 183.7 688 185.5C705.7 187.3 723.3 187.7 741 184.8C758.7 182 776.3 176 794 177.8C811.7 179.7 829.3 189.3 847 190.2C864.7 191 882.3 183 891.2 179L900 175L900 301L891.2 301C882.3 301 864.7 301 847 301C829.3 301 811.7 301 794 301C776.3 301 758.7 301 741 301C723.3 301 705.7 301 688 301C670.3 301 652.7 301 635 301C617.3 301 599.7 301 582 301C564.3 301 546.7 301 529 301C511.3 301 493.7 301 476.2 301C458.7 301 441.3 301 423.8 301C406.3 301 388.7 301 371 301C353.3 301 335.7 301 318 301C300.3 301 282.7 301 265 301C247.3 301 229.7 301 212 301C194.3 301 176.7 301 159 301C141.3 301 123.7 301 106 301C88.3 301 70.7 301 53 301C35.3 301 17.7 301 8.8 301L0 301Z" fill="#006471"></path><path d="M0 189L8.8 188.8C17.7 188.7 35.3 188.3 53 190.2C70.7 192 88.3 196 106 197C123.7 198 141.3 196 159 196.3C176.7 196.7 194.3 199.3 212 199.5C229.7 199.7 247.3 197.3 265 194.7C282.7 192 300.3 189 318 187.7C335.7 186.3 353.3 186.7 371 189.8C388.7 193 406.3 199 423.8 202.3C441.3 205.7 458.7 206.3 476.2 205.3C493.7 204.3 511.3 201.7 529 198.8C546.7 196 564.3 193 582 192.3C599.7 191.7 617.3 193.3 635 196.8C652.7 200.3 670.3 205.7 688 209.5C705.7 213.3 723.3 215.7 741 215C758.7 214.3 776.3 210.7 794 208.2C811.7 205.7 829.3 204.3 847 205C864.7 205.7 882.3 208.3 891.2 209.7L900 211L900 301L891.2 301C882.3 301 864.7 301 847 301C829.3 301 811.7 301 794 301C776.3 301 758.7 301 741 301C723.3 301 705.7 301 688 301C670.3 301 652.7 301 635 301C617.3 301 599.7 301 582 301C564.3 301 546.7 301 529 301C511.3 301 493.7 301 476.2 301C458.7 301 441.3 301 423.8 301C406.3 301 388.7 301 371 301C353.3 301 335.7 301 318 301C300.3 301 282.7 301 265 301C247.3 301 229.7 301 212 301C194.3 301 176.7 301 159 301C141.3 301 123.7 301 106 301C88.3 301 70.7 301 53 301C35.3 301 17.7 301 8.8 301L0 301Z" fill="#006e75"></path><path d="M0 211L8.8 211.3C17.7 211.7 35.3 212.3 53 211.5C70.7 210.7 88.3 208.3 106 210.7C123.7 213 141.3 220 159 224.3C176.7 228.7 194.3 230.3 212 228.5C229.7 226.7 247.3 221.3 265 217.5C282.7 213.7 300.3 211.3 318 213.3C335.7 215.3 353.3 221.7 371 225C388.7 228.3 406.3 228.7 423.8 229.5C441.3 230.3 458.7 231.7 476.2 232C493.7 232.3 511.3 231.7 529 229.8C546.7 228 564.3 225 582 225.3C599.7 225.7 617.3 229.3 635 229.8C652.7 230.3 670.3 227.7 688 224.5C705.7 221.3 723.3 217.7 741 217.2C758.7 216.7 776.3 219.3 794 220.8C811.7 222.3 829.3 222.7 847 221.2C864.7 219.7 882.3 216.3 891.2 214.7L900 213L900 301L891.2 301C882.3 301 864.7 301 847 301C829.3 301 811.7 301 794 301C776.3 301 758.7 301 741 301C723.3 301 705.7 301 688 301C670.3 301 652.7 301 635 301C617.3 301 599.7 301 582 301C564.3 301 546.7 301 529 301C511.3 301 493.7 301 476.2 301C458.7 301 441.3 301 423.8 301C406.3 301 388.7 301 371 301C353.3 301 335.7 301 318 301C300.3 301 282.7 301 265 301C247.3 301 229.7 301 212 301C194.3 301 176.7 301 159 301C141.3 301 123.7 301 106 301C88.3 301 70.7 301 53 301C35.3 301 17.7 301 8.8 301L0 301Z" fill="#007874"></path><path d="M0 245L8.8 243.7C17.7 242.3 35.3 239.7 53 238.5C70.7 237.3 88.3 237.7 106 238.8C123.7 240 141.3 242 159 240.3C176.7 238.7 194.3 233.3 212 233.8C229.7 234.3 247.3 240.7 265 244.3C282.7 248 300.3 249 318 248C335.7 247 353.3 244 371 240.7C388.7 237.3 406.3 233.7 423.8 232.5C441.3 231.3 458.7 232.7 476.2 233.3C493.7 234 511.3 234 529 235.3C546.7 236.7 564.3 239.3 582 241.2C599.7 243 617.3 244 635 243.2C652.7 242.3 670.3 239.7 688 239.5C705.7 239.3 723.3 241.7 741 242.8C758.7 244 776.3 244 794 242.3C811.7 240.7 829.3 237.3 847 234.7C864.7 232 882.3 230 891.2 229L900 228L900 301L891.2 301C882.3 301 864.7 301 847 301C829.3 301 811.7 301 794 301C776.3 301 758.7 301 741 301C723.3 301 705.7 301 688 301C670.3 301 652.7 301 635 301C617.3 301 599.7 301 582 301C564.3 301 546.7 301 529 301C511.3 301 493.7 301 476.2 301C458.7 301 441.3 301 423.8 301C406.3 301 388.7 301 371 301C353.3 301 335.7 301 318 301C300.3 301 282.7 301 265 301C247.3 301 229.7 301 212 301C194.3 301 176.7 301 159 301C141.3 301 123.7 301 106 301C88.3 301 70.7 301 53 301C35.3 301 17.7 301 8.8 301L0 301Z" fill="#008270"></path><path d="M0 263L8.8 263C17.7 263 35.3 263 53 261.3C70.7 259.7 88.3 256.3 106 256.2C123.7 256 141.3 259 159 259.2C176.7 259.3 194.3 256.7 212 254.5C229.7 252.3 247.3 250.7 265 251.8C282.7 253 300.3 257 318 258.5C335.7 260 353.3 259 371 257.3C388.7 255.7 406.3 253.3 423.8 254.7C441.3 256 458.7 261 476.2 260.7C493.7 260.3 511.3 254.7 529 251.8C546.7 249 564.3 249 582 249C599.7 249 617.3 249 635 250.7C652.7 252.3 670.3 255.7 688 258.5C705.7 261.3 723.3 263.7 741 262.7C758.7 261.7 776.3 257.3 794 256.7C811.7 256 829.3 259 847 258C864.7 257 882.3 252 891.2 249.5L900 247L900 301L891.2 301C882.3 301 864.7 301 847 301C829.3 301 811.7 301 794 301C776.3 301 758.7 301 741 301C723.3 301 705.7 301 688 301C670.3 301 652.7 301 635 301C617.3 301 599.7 301 582 301C564.3 301 546.7 301 529 301C511.3 301 493.7 301 476.2 301C458.7 301 441.3 301 423.8 301C406.3 301 388.7 301 371 301C353.3 301 335.7 301 318 301C300.3 301 282.7 301 265 301C247.3 301 229.7 301 212 301C194.3 301 176.7 301 159 301C141.3 301 123.7 301 106 301C88.3 301 70.7 301 53 301C35.3 301 17.7 301 8.8 301L0 301Z" fill="#008b68"></path><path d="M0 283L8.8 280.8C17.7 278.7 35.3 274.3 53 274.7C70.7 275 88.3 280 106 281.8C123.7 283.7 141.3 282.3 159 279.7C176.7 277 194.3 273 212 271.2C229.7 269.3 247.3 269.7 265 272C282.7 274.3 300.3 278.7 318 279C335.7 279.3 353.3 275.7 371 275.3C388.7 275 406.3 278 423.8 279.8C441.3 281.7 458.7 282.3 476.2 280.5C493.7 278.7 511.3 274.3 529 274C546.7 273.7 564.3 277.3 582 277.7C599.7 278 617.3 275 635 274.8C652.7 274.7 670.3 277.3 688 277.7C705.7 278 723.3 276 741 273.8C758.7 271.7 776.3 269.3 794 271C811.7 272.7 829.3 278.3 847 278.8C864.7 279.3 882.3 274.7 891.2 272.3L900 270L900 301L891.2 301C882.3 301 864.7 301 847 301C829.3 301 811.7 301 794 301C776.3 301 758.7 301 741 301C723.3 301 705.7 301 688 301C670.3 301 652.7 301 635 301C617.3 301 599.7 301 582 301C564.3 301 546.7 301 529 301C511.3 301 493.7 301 476.2 301C458.7 301 441.3 301 423.8 301C406.3 301 388.7 301 371 301C353.3 301 335.7 301 318 301C300.3 301 282.7 301 265 301C247.3 301 229.7 301 212 301C194.3 301 176.7 301 159 301C141.3 301 123.7 301 106 301C88.3 301 70.7 301 53 301C35.3 301 17.7 301 8.8 301L0 301Z" fill="#00945d"></path></svg>